G04*
G04 #@! TF.GenerationSoftware,Altium Limited,Altium Designer,19.1.5 (86)*
G04*
G04 Layer_Color=65535*
%FSLAX25Y25*%
%MOIN*%
G70*
G01*
G75*
%ADD10C,0.01000*%
%ADD11C,0.00787*%
%ADD12C,0.01968*%
%ADD13C,0.00500*%
%ADD14C,0.00630*%
G36*
X352756Y26575D02*
Y22638D01*
X348819Y26575D01*
X352756D01*
D02*
G37*
D10*
X238883Y13961D02*
X238391Y14814D01*
X237407D01*
X236914Y13961D01*
X237407Y13109D01*
X238391D01*
X238883Y13961D01*
X359112Y36311D02*
X358277Y36793D01*
Y35829D01*
X359112Y36311D01*
X68273Y22067D02*
X67438Y22549D01*
Y21585D01*
X68273Y22067D01*
X208095Y53937D02*
X207534Y54709D01*
X206627Y54414D01*
Y53460D01*
X207534Y53165D01*
X208095Y53937D01*
X202190D02*
X201629Y54709D01*
X200721Y54414D01*
Y53460D01*
X201629Y53165D01*
X202190Y53937D01*
X323195Y57874D02*
X322359Y58356D01*
Y57392D01*
X323195Y57874D01*
X104331Y37402D02*
X104197Y38421D01*
X103803Y39370D01*
X103178Y40185D01*
X102362Y40811D01*
X101413Y41204D01*
X100394Y41339D01*
X99375Y41204D01*
X98425Y40811D01*
X97610Y40185D01*
X96984Y39370D01*
X96591Y38421D01*
X96457Y37402D01*
X112205D02*
X112071Y38421D01*
X111677Y39370D01*
X111052Y40185D01*
X110236Y40811D01*
X109287Y41204D01*
X108268Y41339D01*
X107249Y41204D01*
X106299Y40811D01*
X105484Y40185D01*
X104858Y39370D01*
X104465Y38421D01*
X104331Y37402D01*
X120079D02*
X119945Y38421D01*
X119551Y39370D01*
X118926Y40185D01*
X118110Y40811D01*
X117161Y41204D01*
X116142Y41339D01*
X115123Y41204D01*
X114173Y40811D01*
X113358Y40185D01*
X112732Y39370D01*
X112339Y38421D01*
X112205Y37402D01*
X304366Y36417D02*
X304148Y37372D01*
X303538Y38138D01*
X302655Y38563D01*
X301676D01*
X300793Y38138D01*
X300183Y37372D01*
X299964Y36417D01*
X300183Y35462D01*
X300793Y34697D01*
X301676Y34272D01*
X302655D01*
X303538Y34697D01*
X304148Y35462D01*
X304366Y36417D01*
X319882D02*
X319853Y37420D01*
X319769Y38419D01*
X319627Y39411D01*
X319430Y40394D01*
X319177Y41365D01*
X318870Y42319D01*
X318509Y43255D01*
X318096Y44169D01*
X317632Y45058D01*
X317119Y45919D01*
X316557Y46749D01*
X315949Y47547D01*
X315298Y48309D01*
X314604Y49033D01*
X313870Y49717D01*
X313099Y50358D01*
X312293Y50954D01*
X311454Y51503D01*
X310586Y52005D01*
X309690Y52456D01*
X308771Y52856D01*
X307831Y53204D01*
X306872Y53497D01*
X305898Y53736D01*
X304912Y53920D01*
X303918Y54047D01*
X302917Y54118D01*
X301915Y54132D01*
X300913Y54089D01*
X299915Y53990D01*
X298924Y53835D01*
X297944Y53624D01*
X296978Y53357D01*
X296027Y53037D01*
X295097Y52663D01*
X294189Y52237D01*
X293307Y51760D01*
X292453Y51235D01*
X291631Y50661D01*
X290842Y50042D01*
X290089Y49380D01*
X289375Y48676D01*
X288702Y47933D01*
X288072Y47153D01*
X287487Y46338D01*
X286949Y45492D01*
X286460Y44616D01*
X286021Y43715D01*
X285634Y42790D01*
X285300Y41844D01*
X285020Y40881D01*
X284795Y39904D01*
X284626Y38916D01*
X284513Y37920D01*
X284456Y36919D01*
X284456Y35916D01*
X284513Y34915D01*
X284626Y33919D01*
X284795Y32930D01*
X285020Y31953D01*
X285300Y30990D01*
X285634Y30045D01*
X286021Y29120D01*
X286460Y28218D01*
X286949Y27343D01*
X287487Y26496D01*
X288072Y25682D01*
X288702Y24902D01*
X289375Y24159D01*
X290089Y23455D01*
X290842Y22792D01*
X291631Y22173D01*
X292453Y21600D01*
X293307Y21074D01*
X294189Y20598D01*
X295097Y20172D01*
X296027Y19798D01*
X296977Y19477D01*
X297944Y19211D01*
X298924Y19000D01*
X299915Y18844D01*
X300913Y18745D01*
X301915Y18702D01*
X302917Y18717D01*
X303917Y18788D01*
X304912Y18915D01*
X305898Y19098D01*
X306872Y19337D01*
X307831Y19631D01*
X308771Y19978D01*
X309690Y20378D01*
X310586Y20830D01*
X311454Y21331D01*
X312293Y21881D01*
X313099Y22477D01*
X313870Y23118D01*
X314604Y23801D01*
X315298Y24525D01*
X315950Y25288D01*
X316557Y26085D01*
X317119Y26916D01*
X317632Y27777D01*
X318096Y28666D01*
X318509Y29580D01*
X318870Y30515D01*
X319177Y31470D01*
X319430Y32440D01*
X319627Y33423D01*
X319769Y34416D01*
X319853Y35415D01*
X319882Y36417D01*
X211516Y46063D02*
Y61811D01*
X197146Y46063D02*
Y61811D01*
X207283Y53937D02*
X211516D01*
X197146D02*
X201378D01*
X200394Y56890D02*
X208268D01*
X206299D02*
Y58858D01*
X202362D02*
X206299D01*
X202362Y56890D02*
Y58858D01*
X259576Y21232D02*
X263752Y17056D01*
X269319Y30975D02*
X273495Y26800D01*
X83661Y12795D02*
X132874D01*
X83661Y62008D02*
X132874D01*
X83661Y45276D02*
Y62008D01*
Y12795D02*
Y29528D01*
X132874Y12795D02*
Y29528D01*
Y45276D02*
Y62008D01*
X92520Y37402D02*
X96457D01*
X120079D02*
X124016D01*
X191142Y12795D02*
Y63976D01*
X155709Y12795D02*
X181299D01*
X145866D02*
Y63976D01*
X191142D01*
X302165Y49213D02*
Y51181D01*
X301181Y50197D02*
X303150D01*
D11*
X58730Y23484D02*
X58364Y24368D01*
X57480Y24734D01*
X56596Y24368D01*
X56230Y23484D01*
X240794Y24429D02*
X253767Y37402D01*
X237008Y54161D02*
X253767Y37402D01*
X220249D02*
X237008Y54161D01*
X220249Y37402D02*
X233222Y24429D01*
X240794D01*
X352756Y12008D02*
Y26575D01*
X326378Y12008D02*
X352756D01*
X326378D02*
Y26575D01*
X352756D01*
X361311Y35917D02*
Y37492D01*
Y20563D02*
Y23319D01*
Y20563D02*
X364067D01*
X376665D02*
X379421D01*
Y23319D01*
Y35917D02*
Y38673D01*
X376665D02*
X379421D01*
X362492D02*
X364067D01*
X361311Y37492D02*
X362492Y38673D01*
X64961Y23484D02*
Y43327D01*
X50000D02*
X64961D01*
X50000Y23484D02*
Y43327D01*
Y23484D02*
X56230D01*
X58730D02*
X64961D01*
X315158Y59350D02*
X320669D01*
X315158D02*
Y70571D01*
X320669D01*
Y59350D02*
Y70571D01*
X360197Y61535D02*
X390197D01*
Y71535D01*
X360197D02*
X390197D01*
X360197Y61535D02*
Y71535D01*
X3347Y35472D02*
X33347D01*
Y45472D01*
X3347D02*
X33347D01*
X3347Y35472D02*
Y45472D01*
D12*
X96943Y45276D02*
X96503Y46038D01*
X95623D01*
X95183Y45276D01*
X95623Y44513D01*
X96503D01*
X96943Y45276D01*
D13*
X267872Y62461D02*
Y65961D01*
X279372Y62461D02*
Y65961D01*
X267872Y62461D02*
X270372D01*
X272872Y67461D02*
X274372D01*
X276872Y62461D02*
X279372D01*
X278980Y51250D02*
Y55050D01*
X285980Y51150D02*
Y55150D01*
X308087Y64923D02*
Y69723D01*
X304537Y63823D02*
X306987D01*
X293537D02*
Y70823D01*
Y63823D02*
X297537D01*
X304537Y70823D02*
X306987D01*
X293537D02*
X297537D01*
X306987D02*
X308487Y69323D01*
Y65323D02*
Y69323D01*
X306987Y63823D02*
X308487Y65323D01*
X294360Y55555D02*
X298160D01*
X294260Y62555D02*
X298260D01*
X277122Y39439D02*
Y43239D01*
X270122Y39339D02*
Y43339D01*
X300607Y7442D02*
Y12242D01*
X297057Y6342D02*
X299507D01*
X286057D02*
Y13342D01*
Y6342D02*
X290057D01*
X297057Y13342D02*
X299507D01*
X286057D02*
X290057D01*
X299507D02*
X301007Y11842D01*
Y7842D02*
Y11842D01*
X299507Y6342D02*
X301007Y7842D01*
X202824Y5358D02*
X206624D01*
X202724Y12358D02*
X206724D01*
X70541Y64217D02*
X74341D01*
X70441Y71216D02*
X74441D01*
X51543D02*
X55543D01*
X51643Y64217D02*
X55443D01*
X215846Y15157D02*
X216634Y15945D01*
X220374D01*
X216437Y15748D02*
X217126Y16437D01*
X219882D02*
X220472Y15846D01*
X220374Y15945D02*
X221161Y15157D01*
Y11614D02*
Y15157D01*
X215846Y11614D02*
Y15157D01*
Y3740D02*
X221161D01*
Y8071D01*
X215846Y3740D02*
Y8071D01*
X217126Y16437D02*
X219882D01*
X222736Y15157D02*
X223524Y15945D01*
X227264D01*
X223327Y15748D02*
X224016Y16437D01*
X226772D02*
X227362Y15846D01*
X227264Y15945D02*
X228051Y15157D01*
Y11614D02*
Y15157D01*
X222736Y11614D02*
Y15157D01*
Y3740D02*
X228051D01*
Y8071D01*
X222736Y3740D02*
Y8071D01*
X224016Y16437D02*
X226772D01*
X59811Y60193D02*
X63811D01*
X59911Y53193D02*
X63711D01*
X39720Y57646D02*
Y61646D01*
X32721Y57746D02*
Y61546D01*
X59811Y44532D02*
X63811D01*
X59911Y51531D02*
X63711D01*
X80272Y51543D02*
Y55543D01*
X73272Y51643D02*
Y55443D01*
X356736Y47213D02*
Y51213D01*
X363736Y47313D02*
Y51113D01*
X366579Y48197D02*
Y52197D01*
X373579Y48297D02*
Y52097D01*
X202724Y13232D02*
X206724D01*
X202824Y20232D02*
X206624D01*
X202724Y21106D02*
X206724D01*
X202824Y28106D02*
X206624D01*
X277012Y14732D02*
Y18732D01*
X284012Y14832D02*
Y18632D01*
X268264Y39339D02*
Y43339D01*
X261264Y39439D02*
Y43239D01*
X28543Y7795D02*
X38386D01*
X28543D02*
Y27638D01*
X38386Y7795D02*
Y27638D01*
X28543D02*
X38386D01*
X273917Y6342D02*
X275416Y7842D01*
Y11842D01*
X273917Y13342D02*
X275416Y11842D01*
X260467Y13342D02*
X264467D01*
X271466D02*
X273917D01*
X260467Y6342D02*
X264467D01*
X260467D02*
Y13342D01*
X271466Y6342D02*
X273917D01*
X275016Y7442D02*
Y12242D01*
X69488Y12298D02*
Y19198D01*
X66339Y12298D02*
Y19198D01*
X84055Y3440D02*
Y10339D01*
X87205Y3440D02*
Y10339D01*
X135527Y53543D02*
X142426D01*
X135527Y56693D02*
X142426D01*
X135527Y22244D02*
X142426D01*
X135527Y19094D02*
X142426D01*
X327259Y43701D02*
X334158D01*
X327259Y46850D02*
X334158D01*
X343898Y38283D02*
Y45182D01*
X347047Y38283D02*
Y45182D01*
X51373Y15550D02*
X56501D01*
X51373Y14372D02*
X56501D01*
X39568Y45074D02*
Y50202D01*
X40746Y45074D02*
Y50202D01*
X43106Y15550D02*
X48233D01*
X43106Y14372D02*
X48233D01*
X363191Y9641D02*
Y14769D01*
X364369Y9641D02*
Y14769D01*
X376373Y47639D02*
X381501D01*
X376373Y48817D02*
X381501D01*
X382872Y8066D02*
Y13194D01*
X381695Y8066D02*
Y13194D01*
X328145Y65550D02*
X333272D01*
X328145Y64372D02*
X333272D01*
X382082Y33660D02*
X387210D01*
X382082Y32482D02*
X387210D01*
X218243Y57696D02*
X221869Y54070D01*
X219076Y58529D02*
X222702Y54903D01*
X250920Y15570D02*
X254546Y11944D01*
X251753Y16403D02*
X255379Y12777D01*
D14*
X279134Y43307D02*
X282282D01*
Y41733D01*
X281758Y41208D01*
X280708D01*
X280183Y41733D01*
Y43307D01*
Y42258D02*
X279134Y41208D01*
X281758Y40159D02*
X282282Y39634D01*
Y38584D01*
X281758Y38059D01*
X281233D01*
X280708Y38584D01*
Y39109D01*
Y38584D01*
X280183Y38059D01*
X279659D01*
X279134Y38584D01*
Y39634D01*
X279659Y40159D01*
X282282Y34911D02*
Y37010D01*
X280708D01*
X281233Y35960D01*
Y35436D01*
X280708Y34911D01*
X279659D01*
X279134Y35436D01*
Y36485D01*
X279659Y37010D01*
X281627Y69816D02*
Y71915D01*
X281102Y72440D01*
X280052D01*
X279528Y71915D01*
Y69816D01*
X280052Y69291D01*
X281102D01*
X280577Y70341D02*
X281627Y69291D01*
X281102D02*
X281627Y69816D01*
X284775Y69291D02*
X282676D01*
X284775Y71390D01*
Y71915D01*
X284250Y72440D01*
X283201D01*
X282676Y71915D01*
X353150Y33463D02*
Y30840D01*
X353674Y30315D01*
X354724D01*
X355249Y30840D01*
Y33463D01*
X358397D02*
X357348Y32939D01*
X356298Y31889D01*
Y30840D01*
X356823Y30315D01*
X357873D01*
X358397Y30840D01*
Y31365D01*
X357873Y31889D01*
X356298D01*
X268110Y51181D02*
Y54330D01*
X269685D01*
X270209Y53805D01*
Y52755D01*
X269685Y52231D01*
X268110D01*
X269160D02*
X270209Y51181D01*
X271259Y53805D02*
X271784Y54330D01*
X272833D01*
X273358Y53805D01*
Y53280D01*
X272833Y52755D01*
X272308D01*
X272833D01*
X273358Y52231D01*
Y51706D01*
X272833Y51181D01*
X271784D01*
X271259Y51706D01*
X274407Y53805D02*
X274932Y54330D01*
X275982D01*
X276506Y53805D01*
Y53280D01*
X275982Y52755D01*
X275457D01*
X275982D01*
X276506Y52231D01*
Y51706D01*
X275982Y51181D01*
X274932D01*
X274407Y51706D01*
X282480Y63976D02*
X282480Y67125D01*
X284055Y67125D01*
X284579Y66600D01*
X284579Y65551D01*
X284055Y65026D01*
X282480Y65026D01*
X283530Y65026D02*
X284579Y63976D01*
X285629Y66600D02*
X286154Y67125D01*
X287203Y67125D01*
X287728Y66600D01*
X287728Y66075D01*
X287203Y65551D01*
X286679Y65551D01*
X287203Y65551D01*
X287728Y65026D01*
X287728Y64501D01*
X287203Y63976D01*
X286154Y63976D01*
X285629Y64501D01*
X290877Y63976D02*
X288777Y63976D01*
X290877Y66075D01*
X290877Y66600D01*
X290352Y67125D01*
X289302Y67125D01*
X288778Y66600D01*
X186614Y5118D02*
Y8267D01*
X188189D01*
X188713Y7742D01*
Y6692D01*
X188189Y6168D01*
X186614D01*
X187664D02*
X188713Y5118D01*
X191862D02*
X189763D01*
X191862Y7217D01*
Y7742D01*
X191337Y8267D01*
X190287D01*
X189763Y7742D01*
X192911D02*
X193436Y8267D01*
X194486D01*
X195010Y7742D01*
Y7217D01*
X194486Y6692D01*
X193961D01*
X194486D01*
X195010Y6168D01*
Y5643D01*
X194486Y5118D01*
X193436D01*
X192911Y5643D01*
X303150Y11416D02*
Y8268D01*
X304724D01*
X305249Y8793D01*
Y10892D01*
X304724Y11416D01*
X303150D01*
X306298Y8268D02*
X307348D01*
X306823D01*
Y11416D01*
X306298Y10892D01*
X308922D02*
X309447Y11416D01*
X310496D01*
X311021Y10892D01*
Y8793D01*
X310496Y8268D01*
X309447D01*
X308922Y8793D01*
Y10892D01*
X286614Y72440D02*
Y69291D01*
X288189D01*
X288713Y69816D01*
Y71915D01*
X288189Y72440D01*
X286614D01*
X289763Y69816D02*
X290287Y69291D01*
X291337D01*
X291862Y69816D01*
Y71915D01*
X291337Y72440D01*
X290287D01*
X289763Y71915D01*
Y71390D01*
X290287Y70866D01*
X291862D01*
X40945Y71260D02*
X44093D01*
Y69686D01*
X43569Y69161D01*
X42519D01*
X41994Y69686D01*
Y71260D01*
Y70210D02*
X40945Y69161D01*
Y68111D02*
Y67062D01*
Y67586D01*
X44093D01*
X43569Y68111D01*
Y65487D02*
X44093Y64963D01*
Y63913D01*
X43569Y63388D01*
X41470D01*
X40945Y63913D01*
Y64963D01*
X41470Y65487D01*
X43569D01*
X77558Y34646D02*
X74934D01*
X74410Y34121D01*
Y33071D01*
X74934Y32547D01*
X77558D01*
Y29398D02*
Y31497D01*
X75984D01*
X76508Y30448D01*
Y29923D01*
X75984Y29398D01*
X74934D01*
X74410Y29923D01*
Y30972D01*
X74934Y31497D01*
X234252Y45668D02*
Y43044D01*
X234777Y42520D01*
X235826D01*
X236351Y43044D01*
Y45668D01*
X237401Y42520D02*
X238450D01*
X237925D01*
Y45668D01*
X237401Y45143D01*
X240024Y42520D02*
X241074D01*
X240549D01*
Y45668D01*
X240024Y45143D01*
X82677Y67323D02*
Y70471D01*
X84251D01*
X84776Y69947D01*
Y68897D01*
X84251Y68372D01*
X82677D01*
X83727D02*
X84776Y67323D01*
X87925D02*
X85826D01*
X87925Y69422D01*
Y69947D01*
X87400Y70471D01*
X86351D01*
X85826Y69947D01*
X233595Y72440D02*
X231496D01*
Y70866D01*
X232546Y71390D01*
X233070D01*
X233595Y70866D01*
Y69816D01*
X233070Y69291D01*
X232021D01*
X231496Y69816D01*
X234645Y72440D02*
Y70341D01*
X235694Y69291D01*
X236744Y70341D01*
Y72440D01*
X214173Y69291D02*
Y72440D01*
X215747D01*
X216272Y71915D01*
Y70866D01*
X215747Y70341D01*
X214173D01*
X215223D02*
X216272Y69291D01*
X219421Y71915D02*
X218896Y72440D01*
X217847D01*
X217322Y71915D01*
Y71390D01*
X217847Y70866D01*
X218896D01*
X219421Y70341D01*
Y69816D01*
X218896Y69291D01*
X217847D01*
X217322Y69816D01*
X220470Y72440D02*
X222569D01*
X221520D01*
Y69291D01*
X241075Y71915D02*
X240551Y72440D01*
X239501D01*
X238976Y71915D01*
Y71390D01*
X239501Y70866D01*
X240551D01*
X241075Y70341D01*
Y69816D01*
X240551Y69291D01*
X239501D01*
X238976Y69816D01*
X244224Y71915D02*
X243699Y72440D01*
X242650D01*
X242125Y71915D01*
Y69816D01*
X242650Y69291D01*
X243699D01*
X244224Y69816D01*
X245274Y72440D02*
Y69291D01*
Y70341D01*
X247373Y72440D01*
X245798Y70866D01*
X247373Y69291D01*
X249213D02*
Y72440D01*
X250262Y71390D01*
X251312Y72440D01*
Y69291D01*
X252361Y72440D02*
X253411D01*
X252886D01*
Y69291D01*
X252361D01*
X253411D01*
X257084Y71915D02*
X256559Y72440D01*
X255510D01*
X254985Y71915D01*
Y71390D01*
X255510Y70866D01*
X256559D01*
X257084Y70341D01*
Y69816D01*
X256559Y69291D01*
X255510D01*
X254985Y69816D01*
X259708Y72440D02*
X258658D01*
X258134Y71915D01*
Y69816D01*
X258658Y69291D01*
X259708D01*
X260233Y69816D01*
Y71915D01*
X259708Y72440D01*
X255118Y57874D02*
Y61023D01*
X256168Y59973D01*
X257217Y61023D01*
Y57874D01*
X259841Y61023D02*
X258791D01*
X258267Y60498D01*
Y58399D01*
X258791Y57874D01*
X259841D01*
X260366Y58399D01*
Y60498D01*
X259841Y61023D01*
X263514Y60498D02*
X262990Y61023D01*
X261940D01*
X261415Y60498D01*
Y59973D01*
X261940Y59448D01*
X262990D01*
X263514Y58924D01*
Y58399D01*
X262990Y57874D01*
X261940D01*
X261415Y58399D01*
X264564Y61023D02*
X265613D01*
X265089D01*
Y57874D01*
X264564D01*
X265613D01*
X165682Y10038D02*
X164632D01*
X165157D01*
Y7414D01*
X164632Y6890D01*
X164107D01*
X163583Y7414D01*
X166731Y6890D02*
X167781D01*
X167256D01*
Y10038D01*
X166731Y9514D01*
X275818Y31784D02*
X275127Y28064D01*
X277322Y30320D02*
X273622Y29528D01*
X277383Y25868D02*
X275879Y27332D01*
X278847Y27373D01*
X279213Y27749D01*
X279203Y28491D01*
X278450Y29223D01*
X277709Y29212D01*
X314173Y57086D02*
Y54462D01*
X314698Y53937D01*
X315747D01*
X316272Y54462D01*
Y57086D01*
X317322D02*
X319421D01*
Y56561D01*
X317322Y54462D01*
Y53937D01*
X324803Y7873D02*
Y5249D01*
X325328Y4724D01*
X326377D01*
X326902Y5249D01*
Y7873D01*
X327952Y7348D02*
X328477Y7873D01*
X329526D01*
X330051Y7348D01*
Y6824D01*
X329526Y6299D01*
X330051Y5774D01*
Y5249D01*
X329526Y4724D01*
X328477D01*
X327952Y5249D01*
Y5774D01*
X328477Y6299D01*
X327952Y6824D01*
Y7348D01*
X328477Y6299D02*
X329526D01*
X17717Y33070D02*
Y29921D01*
X19291D01*
X19816Y30446D01*
Y30971D01*
X19291Y31496D01*
X17717D01*
X19291D01*
X19816Y32020D01*
Y32545D01*
X19291Y33070D01*
X17717D01*
X20865Y29921D02*
Y33070D01*
X21915Y32020D01*
X22964Y33070D01*
Y29921D01*
X8268Y33070D02*
Y29921D01*
X9842D01*
X10367Y30446D01*
Y30971D01*
X9842Y31496D01*
X8268D01*
X9842D01*
X10367Y32020D01*
Y32545D01*
X9842Y33070D01*
X8268D01*
X11416Y31496D02*
X13515D01*
X28937Y33070D02*
Y29921D01*
X30511D01*
X31036Y30446D01*
Y30971D01*
X30511Y31496D01*
X28937D01*
X30511D01*
X31036Y32020D01*
Y32545D01*
X30511Y33070D01*
X28937D01*
X32086Y31496D02*
X34185D01*
X33135Y32545D02*
Y30446D01*
X257469Y51181D02*
Y54330D01*
X259043D01*
X259568Y53805D01*
Y52755D01*
X259043Y52231D01*
X257469D01*
X258518D02*
X259568Y51181D01*
X262716D02*
X260617D01*
X262716Y53280D01*
Y53805D01*
X262192Y54330D01*
X261142D01*
X260617Y53805D01*
X263766Y51706D02*
X264291Y51181D01*
X265340D01*
X265865Y51706D01*
Y53805D01*
X265340Y54330D01*
X264291D01*
X263766Y53805D01*
Y53280D01*
X264291Y52755D01*
X265865D01*
X275984Y2756D02*
Y5904D01*
X277559D01*
X278083Y5380D01*
Y4330D01*
X277559Y3805D01*
X275984D01*
X277034D02*
X278083Y2756D01*
X279133Y5380D02*
X279658Y5904D01*
X280707D01*
X281232Y5380D01*
Y4855D01*
X280707Y4330D01*
X280182D01*
X280707D01*
X281232Y3805D01*
Y3281D01*
X280707Y2756D01*
X279658D01*
X279133Y3281D01*
X282281Y5380D02*
X282806Y5904D01*
X283856D01*
X284381Y5380D01*
Y3281D01*
X283856Y2756D01*
X282806D01*
X282281Y3281D01*
Y5380D01*
X201575Y29921D02*
Y33070D01*
X203149D01*
X203674Y32545D01*
Y31496D01*
X203149Y30971D01*
X201575D01*
X202624D02*
X203674Y29921D01*
X206822D02*
X204723D01*
X206822Y32020D01*
Y32545D01*
X206298Y33070D01*
X205248D01*
X204723Y32545D01*
X209971Y33070D02*
X207872D01*
Y31496D01*
X208922Y32020D01*
X209446D01*
X209971Y31496D01*
Y30446D01*
X209446Y29921D01*
X208397D01*
X207872Y30446D01*
X214173Y18110D02*
Y21259D01*
X215747D01*
X216272Y20734D01*
Y19684D01*
X215747Y19160D01*
X214173D01*
X215223D02*
X216272Y18110D01*
X219421D02*
X217322D01*
X219421Y20209D01*
Y20734D01*
X218896Y21259D01*
X217847D01*
X217322Y20734D01*
X222045Y18110D02*
Y21259D01*
X220470Y19684D01*
X222569D01*
X375000Y55118D02*
Y58267D01*
X376574D01*
X377099Y57742D01*
Y56692D01*
X376574Y56168D01*
X375000D01*
X376049D02*
X377099Y55118D01*
X378149D02*
X379198D01*
X378673D01*
Y58267D01*
X378149Y57742D01*
X380772Y55643D02*
X381297Y55118D01*
X382347D01*
X382872Y55643D01*
Y57742D01*
X382347Y58267D01*
X381297D01*
X380772Y57742D01*
Y57217D01*
X381297Y56692D01*
X382872D01*
X346850Y54331D02*
Y57479D01*
X348425D01*
X348949Y56954D01*
Y55905D01*
X348425Y55380D01*
X346850D01*
X347900D02*
X348949Y54331D01*
X349999D02*
X351048D01*
X350524D01*
Y57479D01*
X349999Y56954D01*
X352623D02*
X353148Y57479D01*
X354197D01*
X354722Y56954D01*
Y56430D01*
X354197Y55905D01*
X354722Y55380D01*
Y54856D01*
X354197Y54331D01*
X353148D01*
X352623Y54856D01*
Y55380D01*
X353148Y55905D01*
X352623Y56430D01*
Y56954D01*
X353148Y55905D02*
X354197D01*
X72835Y41339D02*
X72821Y44487D01*
X74396Y44494D01*
X74923Y43971D01*
X74927Y42922D01*
X74405Y42395D01*
X72830Y42388D01*
X73880Y42393D02*
X74934Y41347D01*
X75983Y41352D02*
X77033Y41356D01*
X76508Y41354D01*
X76495Y44503D01*
X75972Y43976D01*
X80693Y44520D02*
X78594Y44512D01*
X78600Y42937D01*
X79648Y43466D01*
X80172Y43469D01*
X80699Y42946D01*
X80704Y41897D01*
X80181Y41370D01*
X79132Y41365D01*
X78605Y41888D01*
X49213Y53150D02*
X52361D01*
Y51575D01*
X51836Y51051D01*
X50787D01*
X50262Y51575D01*
Y53150D01*
Y52100D02*
X49213Y51051D01*
Y50001D02*
Y48952D01*
Y49476D01*
X52361D01*
X51836Y50001D01*
X49213Y45803D02*
X52361D01*
X50787Y47377D01*
Y45278D01*
X41339Y61024D02*
X44487D01*
Y59449D01*
X43962Y58925D01*
X42913D01*
X42388Y59449D01*
Y61024D01*
Y59974D02*
X41339Y58925D01*
Y57875D02*
Y56826D01*
Y57350D01*
X44487D01*
X43962Y57875D01*
X41339Y53152D02*
Y55251D01*
X43438Y53152D01*
X43962D01*
X44487Y53677D01*
Y54726D01*
X43962Y55251D01*
X49213Y62205D02*
X52361D01*
Y60630D01*
X51836Y60106D01*
X50787D01*
X50262Y60630D01*
Y62205D01*
Y61155D02*
X49213Y60106D01*
Y59056D02*
Y58007D01*
Y58531D01*
X52361D01*
X51836Y59056D01*
X49213Y56432D02*
Y55383D01*
Y55907D01*
X52361D01*
X51836Y56432D01*
X108268Y10038D02*
Y6890D01*
X110367D01*
X111416D02*
X112466D01*
X111941D01*
Y10038D01*
X111416Y9514D01*
X269685Y18109D02*
Y14961D01*
X271259D01*
X271784Y15485D01*
Y17584D01*
X271259Y18109D01*
X269685D01*
X272834D02*
X274933D01*
Y17584D01*
X272834Y15485D01*
Y14961D01*
X238582Y9055D02*
X235433D01*
Y7481D01*
X235958Y6956D01*
X238057D01*
X238582Y7481D01*
Y9055D01*
Y3808D02*
Y5906D01*
X237007D01*
X237532Y4857D01*
Y4332D01*
X237007Y3808D01*
X235958D01*
X235433Y4332D01*
Y5382D01*
X235958Y5906D01*
X233464Y9055D02*
X230315D01*
Y7481D01*
X230840Y6956D01*
X232939D01*
X233464Y7481D01*
Y9055D01*
X230315Y4332D02*
X233464D01*
X231889Y5906D01*
Y3808D01*
X246253Y10607D02*
Y11349D01*
X245511Y12092D01*
X244769Y12092D01*
X243285Y10607D01*
Y9865D01*
X244027Y9123D01*
X244769Y9123D01*
X246624Y6526D02*
X245140Y8010D01*
X248108D01*
X248479Y8381D01*
Y9123D01*
X247737Y9865D01*
X246995Y9865D01*
X251077Y6526D02*
X249593Y8010D01*
X248479Y6897D01*
X249593Y6526D01*
X249964Y6154D01*
Y5412D01*
X249221Y4670D01*
X248479Y4670D01*
X247737Y5412D01*
Y6154D01*
X227640Y55487D02*
Y56229D01*
X226898Y56971D01*
X226156Y56971D01*
X224671Y55487D01*
Y54745D01*
X225413Y54003D01*
X226156Y54003D01*
X228011Y51405D02*
X226527Y52890D01*
X229495D01*
X229866Y53261D01*
Y54003D01*
X229124Y54745D01*
X228382Y54745D01*
X229866Y49550D02*
X232093Y51776D01*
X229866Y51776D01*
X231350Y50292D01*
X383595Y43175D02*
X383070Y43700D01*
X382021D01*
X381496Y43175D01*
Y41076D01*
X382021Y40551D01*
X383070D01*
X383595Y41076D01*
X386744Y40551D02*
X384645D01*
X386744Y42650D01*
Y43175D01*
X386219Y43700D01*
X385169D01*
X384645Y43175D01*
X387793D02*
X388318Y43700D01*
X389368D01*
X389892Y43175D01*
Y41076D01*
X389368Y40551D01*
X388318D01*
X387793Y41076D01*
Y43175D01*
X328477Y57348D02*
X327952Y57873D01*
X326903D01*
X326378Y57348D01*
Y55249D01*
X326903Y54724D01*
X327952D01*
X328477Y55249D01*
X329526Y54724D02*
X330576D01*
X330051D01*
Y57873D01*
X329526Y57348D01*
X332150Y55249D02*
X332675Y54724D01*
X333725D01*
X334249Y55249D01*
Y57348D01*
X333725Y57873D01*
X332675D01*
X332150Y57348D01*
Y56823D01*
X332675Y56299D01*
X334249D01*
X379658Y4592D02*
X379133Y5117D01*
X378084D01*
X377559Y4592D01*
Y2493D01*
X378084Y1969D01*
X379133D01*
X379658Y2493D01*
X380708Y1969D02*
X381757D01*
X381232D01*
Y5117D01*
X380708Y4592D01*
X383331D02*
X383856Y5117D01*
X384906D01*
X385431Y4592D01*
Y4068D01*
X384906Y3543D01*
X385431Y3018D01*
Y2493D01*
X384906Y1969D01*
X383856D01*
X383331Y2493D01*
Y3018D01*
X383856Y3543D01*
X383331Y4068D01*
Y4592D01*
X383856Y3543D02*
X384906D01*
X390025Y53806D02*
X390550Y54331D01*
Y55381D01*
X390025Y55905D01*
X387926D01*
X387402Y55381D01*
Y54331D01*
X387926Y53806D01*
X387402Y52757D02*
Y51707D01*
Y52232D01*
X390550D01*
X390025Y52757D01*
X390550Y50133D02*
Y48034D01*
X390025D01*
X387926Y50133D01*
X387402D01*
X342781Y53413D02*
X343306Y53938D01*
Y54987D01*
X342781Y55512D01*
X340682D01*
X340158Y54987D01*
Y53938D01*
X340682Y53413D01*
X340158Y52363D02*
Y51314D01*
Y51838D01*
X343306D01*
X342781Y52363D01*
X343306Y47640D02*
X342781Y48690D01*
X341732Y49739D01*
X340682D01*
X340158Y49215D01*
Y48165D01*
X340682Y47640D01*
X341207D01*
X341732Y48165D01*
Y49739D01*
X325065Y39239D02*
X325589Y39764D01*
Y40814D01*
X325065Y41339D01*
X322966D01*
X322441Y40814D01*
Y39764D01*
X322966Y39239D01*
X322441Y38190D02*
Y37141D01*
Y37665D01*
X325589D01*
X325065Y38190D01*
X325589Y33467D02*
Y35566D01*
X324015D01*
X324540Y34517D01*
Y33992D01*
X324015Y33467D01*
X322966D01*
X322441Y33992D01*
Y35041D01*
X322966Y35566D01*
X359579Y6167D02*
X359055Y6692D01*
X358005D01*
X357480Y6167D01*
Y4068D01*
X358005Y3543D01*
X359055D01*
X359579Y4068D01*
X360629Y3543D02*
X361678D01*
X361154D01*
Y6692D01*
X360629Y6167D01*
X364827Y3543D02*
Y6692D01*
X363253Y5118D01*
X365352D01*
X43831Y7348D02*
X43307Y7873D01*
X42257D01*
X41732Y7348D01*
Y5249D01*
X42257Y4724D01*
X43307D01*
X43831Y5249D01*
X44881Y4724D02*
X45930D01*
X45406D01*
Y7873D01*
X44881Y7348D01*
X47505D02*
X48030Y7873D01*
X49079D01*
X49604Y7348D01*
Y6824D01*
X49079Y6299D01*
X48554D01*
X49079D01*
X49604Y5774D01*
Y5249D01*
X49079Y4724D01*
X48030D01*
X47505Y5249D01*
X137138Y10301D02*
X136614Y10826D01*
X135564D01*
X135039Y10301D01*
Y8202D01*
X135564Y7677D01*
X136614D01*
X137138Y8202D01*
X138188Y7677D02*
X139237D01*
X138713D01*
Y10826D01*
X138188Y10301D01*
X142911Y7677D02*
X140812D01*
X142911Y9776D01*
Y10301D01*
X142386Y10826D01*
X141337D01*
X140812Y10301D01*
X137532Y67585D02*
X137007Y68109D01*
X135958D01*
X135433Y67585D01*
Y65485D01*
X135958Y64961D01*
X137007D01*
X137532Y65485D01*
X138582Y64961D02*
X139631D01*
X139106D01*
Y68109D01*
X138582Y67585D01*
X141206Y64961D02*
X142255D01*
X141730D01*
Y68109D01*
X141206Y67585D01*
X39632Y40814D02*
X40156Y41339D01*
Y42389D01*
X39632Y42913D01*
X37533D01*
X37008Y42389D01*
Y41339D01*
X37533Y40814D01*
X37008Y39765D02*
Y38715D01*
Y39240D01*
X40156D01*
X39632Y39765D01*
Y37141D02*
X40156Y36616D01*
Y35567D01*
X39632Y35042D01*
X37533D01*
X37008Y35567D01*
Y36616D01*
X37533Y37141D01*
X39632D01*
X98293Y7350D02*
X98818Y7875D01*
Y8924D01*
X98293Y9449D01*
X96194D01*
X95669Y8924D01*
Y7875D01*
X96194Y7350D01*
Y6300D02*
X95669Y5776D01*
Y4726D01*
X96194Y4201D01*
X98293D01*
X98818Y4726D01*
Y5776D01*
X98293Y6300D01*
X97768D01*
X97244Y5776D01*
Y4201D01*
X80577Y16405D02*
X81101Y16930D01*
Y17979D01*
X80577Y18504D01*
X78478D01*
X77953Y17979D01*
Y16930D01*
X78478Y16405D01*
X80577Y15355D02*
X81101Y14831D01*
Y13781D01*
X80577Y13256D01*
X80052D01*
X79527Y13781D01*
X79002Y13256D01*
X78478D01*
X77953Y13781D01*
Y14831D01*
X78478Y15355D01*
X79002D01*
X79527Y14831D01*
X80052Y15355D01*
X80577D01*
X79527Y14831D02*
Y13781D01*
X53674Y7348D02*
X53149Y7873D01*
X52100D01*
X51575Y7348D01*
Y5249D01*
X52100Y4724D01*
X53149D01*
X53674Y5249D01*
X56823Y7873D02*
X54723D01*
Y6299D01*
X55773Y6824D01*
X56298D01*
X56823Y6299D01*
Y5249D01*
X56298Y4724D01*
X55248D01*
X54723Y5249D01*
X306693Y37794D02*
Y34646D01*
X308267D01*
X308792Y35170D01*
Y35695D01*
X308267Y36220D01*
X306693D01*
X308267D01*
X308792Y36745D01*
Y37269D01*
X308267Y37794D01*
X306693D01*
X309841D02*
X311941D01*
Y37269D01*
X309841Y35170D01*
Y34646D01*
X311941D01*
X312990D02*
X314040D01*
X313515D01*
Y37794D01*
X312990Y37269D01*
M02*
