M48
;Layer_Color=9474304
;FILE_FORMAT=2:4
INCH,TZ
;TYPE=PLATED
T1F00S00C0.0079
T2F00S00C0.0118
T3F00S00C0.0276
T4F00S00C0.0300
T5F00S00C0.0354
T6F00S00C0.0787
T7F00S00C0.1260
;TYPE=NON_PLATED
%
T01
X7185Y3400
X7480Y3892
X6890
X7185Y4384
X7913Y5128
X8110Y5502
X7717
X7913Y5876
T02
X5807Y492
X6220Y965
X6969Y945
X7382Y630
X7392Y1496
X8465Y1673
Y738
X18799Y787
X22520Y1260
X22953Y1535
X23465Y984
X23976Y1378
X24518Y1220
X25018Y1006
X29232Y1181
X29823Y728
X30472Y748
X31102Y394
X33809Y5049
X35433Y4921
X35728Y3839
X37008Y4990
X31624Y5039
X31102Y5709
X31900Y6211
X31791Y6791
X29626Y6398
X28110Y6417
X27559Y6447
Y6890
X28051Y6988
X27490Y5472
X28307Y5000
X28898
X29724Y3445
X29429Y2854
X28445Y1811
X26270Y2041
X25876Y1742
X25354Y1703
X23858Y2244
X21535Y3780
X19193Y3642
X18209Y4035
X25157Y5591
X25787Y5000
X31732Y3937
Y3386
X31754Y1991
X32913Y2008
X11417Y5413
X10157Y5226
X10138Y4724
X10236Y5945
X8786Y6024
X8858Y4937
X7087Y4823
X3543Y5906
X10866Y6850
T03
X9978Y1199
X21102Y1555
X26870Y1083
X37244Y1220
X38127Y1906
X38819Y2008
X38641Y4389
X34624Y4921
X33948Y1999
X36063Y1890
X32185Y4429
X28602Y3602
X28543Y2559
X22431Y2874
X22008Y3465
X20276Y3740
X20512Y6703
X19803Y6890
X17421
X23898Y6772
X16634Y6890
X16831Y4429
X16437Y3740
X14370Y1969
X14409Y6004
X9764Y6850
X9843Y2559
X3268Y6811
T04
X34547Y6791
X30217Y4429
Y2854
T05
X3346Y1272
X36520Y6654
X37520
X38520
X2968Y4035
X1969
X3346Y2272
X969Y4035
T06
X18386Y5630
X19685Y5079
X16811Y5748
T07
X1575Y1575
Y5906
M30
