G04*
G04 #@! TF.GenerationSoftware,Altium Limited,Altium Designer,19.1.5 (86)*
G04*
G04 Layer_Physical_Order=2*
G04 Layer_Color=32768*
%FSLAX25Y25*%
%MOIN*%
G70*
G01*
G75*
%ADD89C,0.04000*%
%ADD90C,0.07543*%
%ADD91C,0.07000*%
%ADD92O,0.11087X0.22110*%
%ADD93C,0.11874*%
%ADD94C,0.05181*%
%ADD95C,0.06756*%
D89*
X0Y0D02*
Y74803D01*
X393701D01*
Y0D02*
Y74803D01*
X0Y0D02*
X393701D01*
D90*
X33465Y22716D02*
D03*
Y12717D02*
D03*
X365197Y66535D02*
D03*
X375197D02*
D03*
X8347Y40472D02*
D03*
X18347D02*
D03*
X28346D02*
D03*
D91*
X345276Y69193D02*
D03*
X302165Y28543D02*
D03*
Y44291D02*
D03*
D92*
X150787Y19291D02*
D03*
X186221D02*
D03*
D93*
X171260Y56299D02*
D03*
X155512Y57480D02*
D03*
D94*
X164567Y9843D02*
D03*
X173228D02*
D03*
X253150Y59449D02*
D03*
X297244Y48228D02*
D03*
X168307Y46260D02*
D03*
X320866Y26378D02*
D03*
X316535Y32283D02*
D03*
X319685Y35827D02*
D03*
X324410Y35506D02*
D03*
X293307Y33858D02*
D03*
X285433Y37402D02*
D03*
X290551D02*
D03*
X72933Y71161D02*
D03*
X94488Y56102D02*
D03*
X76772Y40945D02*
D03*
X83661Y64961D02*
D03*
X204724Y8858D02*
D03*
X233268Y26575D02*
D03*
X293307Y27559D02*
D03*
X299213Y21654D02*
D03*
X286417Y18701D02*
D03*
X305118Y13780D02*
D03*
Y18701D02*
D03*
X249606Y56681D02*
D03*
X250984Y36417D02*
D03*
X248031Y32480D02*
D03*
Y40354D02*
D03*
X211811Y37008D02*
D03*
X379921Y20866D02*
D03*
X205118Y41732D02*
D03*
X85630Y4921D02*
D03*
X74114Y9350D02*
D03*
X36417Y59547D02*
D03*
X54331Y65158D02*
D03*
Y68898D02*
D03*
X73721Y4724D02*
D03*
X27559Y70472D02*
D03*
X48622Y49409D02*
D03*
X316240Y50394D02*
D03*
X318996Y62106D02*
D03*
X357283Y38386D02*
D03*
X370079Y49902D02*
D03*
X69685Y9449D02*
D03*
D95*
X204134Y34646D02*
D03*
X205709Y55118D02*
D03*
X262185Y16122D02*
D03*
X323524Y11614D02*
D03*
X388189Y24016D02*
D03*
X79724Y24301D02*
D03*
X151772Y37402D02*
D03*
X155709Y44291D02*
D03*
X321850D02*
D03*
X372441Y12205D02*
D03*
X346240Y49213D02*
D03*
M02*
