G04*
G04 #@! TF.GenerationSoftware,Altium Limited,Altium Designer,19.1.5 (86)*
G04*
G04 Layer_Color=8388736*
%FSLAX25Y25*%
%MOIN*%
G70*
G01*
G75*
G04:AMPARAMS|DCode=15|XSize=31.62mil|YSize=47.37mil|CornerRadius=6.95mil|HoleSize=0mil|Usage=FLASHONLY|Rotation=180.000|XOffset=0mil|YOffset=0mil|HoleType=Round|Shape=RoundedRectangle|*
%AMROUNDEDRECTD15*
21,1,0.03162,0.03347,0,0,180.0*
21,1,0.01772,0.04737,0,0,180.0*
1,1,0.01391,-0.00886,0.01673*
1,1,0.01391,0.00886,0.01673*
1,1,0.01391,0.00886,-0.01673*
1,1,0.01391,-0.00886,-0.01673*
%
%ADD15ROUNDEDRECTD15*%
G04:AMPARAMS|DCode=16|XSize=78.87mil|YSize=59.18mil|CornerRadius=10.4mil|HoleSize=0mil|Usage=FLASHONLY|Rotation=180.000|XOffset=0mil|YOffset=0mil|HoleType=Round|Shape=RoundedRectangle|*
%AMROUNDEDRECTD16*
21,1,0.07887,0.03839,0,0,180.0*
21,1,0.05807,0.05918,0,0,180.0*
1,1,0.02080,-0.02904,0.01919*
1,1,0.02080,0.02904,0.01919*
1,1,0.02080,0.02904,-0.01919*
1,1,0.02080,-0.02904,-0.01919*
%
%ADD16ROUNDEDRECTD16*%
G04:AMPARAMS|DCode=17|XSize=58mil|YSize=58mil|CornerRadius=10.25mil|HoleSize=0mil|Usage=FLASHONLY|Rotation=0.000|XOffset=0mil|YOffset=0mil|HoleType=Round|Shape=RoundedRectangle|*
%AMROUNDEDRECTD17*
21,1,0.05800,0.03750,0,0,0.0*
21,1,0.03750,0.05800,0,0,0.0*
1,1,0.02050,0.01875,-0.01875*
1,1,0.02050,-0.01875,-0.01875*
1,1,0.02050,-0.01875,0.01875*
1,1,0.02050,0.01875,0.01875*
%
%ADD17ROUNDEDRECTD17*%
G04:AMPARAMS|DCode=18|XSize=78.87mil|YSize=59.18mil|CornerRadius=10.4mil|HoleSize=0mil|Usage=FLASHONLY|Rotation=270.000|XOffset=0mil|YOffset=0mil|HoleType=Round|Shape=RoundedRectangle|*
%AMROUNDEDRECTD18*
21,1,0.07887,0.03839,0,0,270.0*
21,1,0.05807,0.05918,0,0,270.0*
1,1,0.02080,-0.01919,-0.02904*
1,1,0.02080,-0.01919,0.02904*
1,1,0.02080,0.01919,0.02904*
1,1,0.02080,0.01919,-0.02904*
%
%ADD18ROUNDEDRECTD18*%
G04:AMPARAMS|DCode=19|XSize=25.72mil|YSize=72.96mil|CornerRadius=8.43mil|HoleSize=0mil|Usage=FLASHONLY|Rotation=225.000|XOffset=0mil|YOffset=0mil|HoleType=Round|Shape=RoundedRectangle|*
%AMROUNDEDRECTD19*
21,1,0.02572,0.05610,0,0,225.0*
21,1,0.00886,0.07296,0,0,225.0*
1,1,0.01686,-0.02297,0.01670*
1,1,0.01686,-0.01670,0.02297*
1,1,0.01686,0.02297,-0.01670*
1,1,0.01686,0.01670,-0.02297*
%
%ADD19ROUNDEDRECTD19*%
G04:AMPARAMS|DCode=20|XSize=25.72mil|YSize=72.96mil|CornerRadius=8.43mil|HoleSize=0mil|Usage=FLASHONLY|Rotation=135.000|XOffset=0mil|YOffset=0mil|HoleType=Round|Shape=RoundedRectangle|*
%AMROUNDEDRECTD20*
21,1,0.02572,0.05610,0,0,135.0*
21,1,0.00886,0.07296,0,0,135.0*
1,1,0.01686,0.01670,0.02297*
1,1,0.01686,0.02297,0.01670*
1,1,0.01686,-0.01670,-0.02297*
1,1,0.01686,-0.02297,-0.01670*
%
%ADD20ROUNDEDRECTD20*%
G04:AMPARAMS|DCode=21|XSize=51.31mil|YSize=76.9mil|CornerRadius=9.41mil|HoleSize=0mil|Usage=FLASHONLY|Rotation=180.000|XOffset=0mil|YOffset=0mil|HoleType=Round|Shape=RoundedRectangle|*
%AMROUNDEDRECTD21*
21,1,0.05131,0.05807,0,0,180.0*
21,1,0.03248,0.07690,0,0,180.0*
1,1,0.01883,-0.01624,0.02904*
1,1,0.01883,0.01624,0.02904*
1,1,0.01883,0.01624,-0.02904*
1,1,0.01883,-0.01624,-0.02904*
%
%ADD21ROUNDEDRECTD21*%
G04:AMPARAMS|DCode=22|XSize=51.31mil|YSize=76.9mil|CornerRadius=9.41mil|HoleSize=0mil|Usage=FLASHONLY|Rotation=180.000|XOffset=0mil|YOffset=0mil|HoleType=Round|Shape=RoundedRectangle|*
%AMROUNDEDRECTD22*
21,1,0.05131,0.05807,0,0,180.0*
21,1,0.03248,0.07690,0,0,180.0*
1,1,0.01883,-0.01624,0.02904*
1,1,0.01883,0.01624,0.02904*
1,1,0.01883,0.01624,-0.02904*
1,1,0.01883,-0.01624,-0.02904*
%
%ADD22ROUNDEDRECTD22*%
G04:AMPARAMS|DCode=23|XSize=145.8mil|YSize=76.9mil|CornerRadius=12.61mil|HoleSize=0mil|Usage=FLASHONLY|Rotation=180.000|XOffset=0mil|YOffset=0mil|HoleType=Round|Shape=RoundedRectangle|*
%AMROUNDEDRECTD23*
21,1,0.14580,0.05167,0,0,180.0*
21,1,0.12057,0.07690,0,0,180.0*
1,1,0.02522,-0.06029,0.02584*
1,1,0.02522,0.06029,0.02584*
1,1,0.02522,0.06029,-0.02584*
1,1,0.02522,-0.06029,-0.02584*
%
%ADD23ROUNDEDRECTD23*%
%ADD24R,0.11430X0.11430*%
%ADD25O,0.03950X0.01902*%
%ADD26O,0.01902X0.03950*%
%ADD27R,0.10642X0.14580*%
G04:AMPARAMS|DCode=28|XSize=70.99mil|YSize=31.62mil|CornerRadius=9.91mil|HoleSize=0mil|Usage=FLASHONLY|Rotation=180.000|XOffset=0mil|YOffset=0mil|HoleType=Round|Shape=RoundedRectangle|*
%AMROUNDEDRECTD28*
21,1,0.07099,0.01181,0,0,180.0*
21,1,0.05118,0.03162,0,0,180.0*
1,1,0.01981,-0.02559,0.00591*
1,1,0.01981,0.02559,0.00591*
1,1,0.01981,0.02559,-0.00591*
1,1,0.01981,-0.02559,-0.00591*
%
%ADD28ROUNDEDRECTD28*%
G04:AMPARAMS|DCode=29|XSize=39.5mil|YSize=39.5mil|CornerRadius=7.94mil|HoleSize=0mil|Usage=FLASHONLY|Rotation=90.000|XOffset=0mil|YOffset=0mil|HoleType=Round|Shape=RoundedRectangle|*
%AMROUNDEDRECTD29*
21,1,0.03950,0.02362,0,0,90.0*
21,1,0.02362,0.03950,0,0,90.0*
1,1,0.01587,0.01181,0.01181*
1,1,0.01587,0.01181,-0.01181*
1,1,0.01587,-0.01181,-0.01181*
1,1,0.01587,-0.01181,0.01181*
%
%ADD29ROUNDEDRECTD29*%
G04:AMPARAMS|DCode=30|XSize=47.37mil|YSize=31.62mil|CornerRadius=9.91mil|HoleSize=0mil|Usage=FLASHONLY|Rotation=270.000|XOffset=0mil|YOffset=0mil|HoleType=Round|Shape=RoundedRectangle|*
%AMROUNDEDRECTD30*
21,1,0.04737,0.01181,0,0,270.0*
21,1,0.02756,0.03162,0,0,270.0*
1,1,0.01981,-0.00591,-0.01378*
1,1,0.01981,-0.00591,0.01378*
1,1,0.01981,0.00591,0.01378*
1,1,0.01981,0.00591,-0.01378*
%
%ADD30ROUNDEDRECTD30*%
G04:AMPARAMS|DCode=31|XSize=27.69mil|YSize=106.42mil|CornerRadius=0mil|HoleSize=0mil|Usage=FLASHONLY|Rotation=45.000|XOffset=0mil|YOffset=0mil|HoleType=Round|Shape=Rectangle|*
%AMROTATEDRECTD31*
4,1,4,0.02784,-0.04742,-0.04742,0.02784,-0.02784,0.04742,0.04742,-0.02784,0.02784,-0.04742,0.0*
%
%ADD31ROTATEDRECTD31*%

G04:AMPARAMS|DCode=32|XSize=27.69mil|YSize=70.99mil|CornerRadius=0mil|HoleSize=0mil|Usage=FLASHONLY|Rotation=45.000|XOffset=0mil|YOffset=0mil|HoleType=Round|Shape=Rectangle|*
%AMROTATEDRECTD32*
4,1,4,0.01531,-0.03489,-0.03489,0.01531,-0.01531,0.03489,0.03489,-0.01531,0.01531,-0.03489,0.0*
%
%ADD32ROTATEDRECTD32*%

G04:AMPARAMS|DCode=33|XSize=47.37mil|YSize=29.65mil|CornerRadius=9.41mil|HoleSize=0mil|Usage=FLASHONLY|Rotation=180.000|XOffset=0mil|YOffset=0mil|HoleType=Round|Shape=RoundedRectangle|*
%AMROUNDEDRECTD33*
21,1,0.04737,0.01083,0,0,180.0*
21,1,0.02854,0.02965,0,0,180.0*
1,1,0.01883,-0.01427,0.00541*
1,1,0.01883,0.01427,0.00541*
1,1,0.01883,0.01427,-0.00541*
1,1,0.01883,-0.01427,-0.00541*
%
%ADD33ROUNDEDRECTD33*%
%ADD34R,0.11036X0.13398*%
G04:AMPARAMS|DCode=35|XSize=78.87mil|YSize=53.28mil|CornerRadius=9.66mil|HoleSize=0mil|Usage=FLASHONLY|Rotation=270.000|XOffset=0mil|YOffset=0mil|HoleType=Round|Shape=RoundedRectangle|*
%AMROUNDEDRECTD35*
21,1,0.07887,0.03396,0,0,270.0*
21,1,0.05955,0.05328,0,0,270.0*
1,1,0.01932,-0.01698,-0.02977*
1,1,0.01932,-0.01698,0.02977*
1,1,0.01932,0.01698,0.02977*
1,1,0.01932,0.01698,-0.02977*
%
%ADD35ROUNDEDRECTD35*%
G04:AMPARAMS|DCode=36|XSize=78.87mil|YSize=53.28mil|CornerRadius=9.66mil|HoleSize=0mil|Usage=FLASHONLY|Rotation=180.000|XOffset=0mil|YOffset=0mil|HoleType=Round|Shape=RoundedRectangle|*
%AMROUNDEDRECTD36*
21,1,0.07887,0.03396,0,0,180.0*
21,1,0.05955,0.05328,0,0,180.0*
1,1,0.01932,-0.02977,0.01698*
1,1,0.01932,0.02977,0.01698*
1,1,0.01932,0.02977,-0.01698*
1,1,0.01932,-0.02977,-0.01698*
%
%ADD36ROUNDEDRECTD36*%
G04:AMPARAMS|DCode=37|XSize=63.12mil|YSize=47.37mil|CornerRadius=8.92mil|HoleSize=0mil|Usage=FLASHONLY|Rotation=0.000|XOffset=0mil|YOffset=0mil|HoleType=Round|Shape=RoundedRectangle|*
%AMROUNDEDRECTD37*
21,1,0.06312,0.02953,0,0,0.0*
21,1,0.04528,0.04737,0,0,0.0*
1,1,0.01784,0.02264,-0.01476*
1,1,0.01784,-0.02264,-0.01476*
1,1,0.01784,-0.02264,0.01476*
1,1,0.01784,0.02264,0.01476*
%
%ADD37ROUNDEDRECTD37*%
G04:AMPARAMS|DCode=38|XSize=63.12mil|YSize=47.37mil|CornerRadius=8.92mil|HoleSize=0mil|Usage=FLASHONLY|Rotation=90.000|XOffset=0mil|YOffset=0mil|HoleType=Round|Shape=RoundedRectangle|*
%AMROUNDEDRECTD38*
21,1,0.06312,0.02953,0,0,90.0*
21,1,0.04528,0.04737,0,0,90.0*
1,1,0.01784,0.01476,0.02264*
1,1,0.01784,0.01476,-0.02264*
1,1,0.01784,-0.01476,-0.02264*
1,1,0.01784,-0.01476,0.02264*
%
%ADD38ROUNDEDRECTD38*%
G04:AMPARAMS|DCode=39|XSize=63.12mil|YSize=47.37mil|CornerRadius=8.92mil|HoleSize=0mil|Usage=FLASHONLY|Rotation=135.000|XOffset=0mil|YOffset=0mil|HoleType=Round|Shape=RoundedRectangle|*
%AMROUNDEDRECTD39*
21,1,0.06312,0.02953,0,0,135.0*
21,1,0.04528,0.04737,0,0,135.0*
1,1,0.01784,-0.00557,0.02645*
1,1,0.01784,0.02645,-0.00557*
1,1,0.01784,0.00557,-0.02645*
1,1,0.01784,-0.02645,0.00557*
%
%ADD39ROUNDEDRECTD39*%
%ADD40C,0.02600*%
%ADD41C,0.06800*%
%ADD42C,0.06706*%
%ADD43R,0.20485X0.10642*%
%ADD44C,0.22453*%
%ADD45O,0.07887X0.18910*%
%ADD46C,0.12611*%
%ADD47R,0.06706X0.06706*%
%ADD48C,0.03162*%
%ADD49C,0.05800*%
%ADD50C,0.02572*%
D15*
X273622Y60433D02*
D03*
X269882Y69488D02*
D03*
X277362D02*
D03*
D16*
X282480Y58858D02*
D03*
Y47441D02*
D03*
X273622Y35630D02*
D03*
Y47047D02*
D03*
X36220Y53937D02*
D03*
Y65354D02*
D03*
X76772Y47835D02*
D03*
Y59252D02*
D03*
X360236Y54921D02*
D03*
Y43504D02*
D03*
X370079Y55905D02*
D03*
Y44488D02*
D03*
X280512Y22441D02*
D03*
Y11024D02*
D03*
X264764Y35630D02*
D03*
Y47047D02*
D03*
D17*
X297037Y67323D02*
D03*
X304537D02*
D03*
X289557Y9843D02*
D03*
X297057D02*
D03*
X271466D02*
D03*
X263966D02*
D03*
D18*
X290551Y59055D02*
D03*
X301969D02*
D03*
X199016Y8858D02*
D03*
X210433D02*
D03*
X66732Y67716D02*
D03*
X78150D02*
D03*
X59252D02*
D03*
X47835D02*
D03*
X67520Y56693D02*
D03*
X56102D02*
D03*
Y48031D02*
D03*
X67520D02*
D03*
X199016Y16732D02*
D03*
X210433D02*
D03*
X199016Y24606D02*
D03*
X210433D02*
D03*
D19*
X241379Y17441D02*
D03*
X243606Y19668D02*
D03*
X245833Y21895D02*
D03*
X248060Y24122D02*
D03*
X250287Y26349D02*
D03*
X252514Y28577D02*
D03*
X254741Y30804D02*
D03*
X256968Y33031D02*
D03*
X232637Y57362D02*
D03*
X230410Y55135D02*
D03*
X228183Y52908D02*
D03*
X225956Y50681D02*
D03*
X223729Y48454D02*
D03*
X221502Y46227D02*
D03*
X219274Y43999D02*
D03*
X217047Y41772D02*
D03*
D20*
X256968D02*
D03*
X254741Y43999D02*
D03*
X252514Y46227D02*
D03*
X250287Y48454D02*
D03*
X248060Y50681D02*
D03*
X245833Y52908D02*
D03*
X243606Y55135D02*
D03*
X241379Y57362D02*
D03*
X217047Y33031D02*
D03*
X219274Y30804D02*
D03*
X221502Y28577D02*
D03*
X223729Y26349D02*
D03*
X225956Y24122D02*
D03*
X228183Y21895D02*
D03*
X230410Y19668D02*
D03*
X232637Y17441D02*
D03*
D21*
X348622Y32283D02*
D03*
D22*
X339567D02*
D03*
X330512D02*
D03*
D23*
X339567Y6299D02*
D03*
D24*
X370366Y29618D02*
D03*
D25*
X362492Y34539D02*
D03*
Y32571D02*
D03*
Y30602D02*
D03*
Y28634D02*
D03*
Y26665D02*
D03*
Y24697D02*
D03*
X378240D02*
D03*
Y26665D02*
D03*
Y28634D02*
D03*
Y30602D02*
D03*
Y32571D02*
D03*
Y34539D02*
D03*
D26*
X365445Y21744D02*
D03*
X367413D02*
D03*
X369382D02*
D03*
X371350D02*
D03*
X373319D02*
D03*
X375287D02*
D03*
Y37492D02*
D03*
X373319D02*
D03*
X371350D02*
D03*
X369382D02*
D03*
X367413D02*
D03*
X365445D02*
D03*
D27*
X57480Y33484D02*
D03*
D28*
X45669Y40984D02*
D03*
Y35984D02*
D03*
Y30984D02*
D03*
Y25984D02*
D03*
X69291Y40984D02*
D03*
Y35984D02*
D03*
Y30984D02*
D03*
Y25984D02*
D03*
D29*
X218504Y6496D02*
D03*
Y13189D02*
D03*
X225394Y6496D02*
D03*
Y13189D02*
D03*
D30*
X211516Y65748D02*
D03*
X197146D02*
D03*
X211516Y42126D02*
D03*
X197146D02*
D03*
D31*
X263891Y21371D02*
D03*
X269180Y26660D02*
D03*
D32*
X266535Y24016D02*
D03*
D33*
X323425Y61221D02*
D03*
Y64961D02*
D03*
Y68701D02*
D03*
X312402Y61221D02*
D03*
Y64961D02*
D03*
Y68701D02*
D03*
D34*
X86417Y37402D02*
D03*
X130118D02*
D03*
D35*
X62008Y15748D02*
D03*
X73819D02*
D03*
X91535Y6890D02*
D03*
X79724D02*
D03*
X351378Y41732D02*
D03*
X339567D02*
D03*
D36*
X138976Y61024D02*
D03*
Y49213D02*
D03*
X138976Y14764D02*
D03*
Y26575D02*
D03*
X330709Y51181D02*
D03*
Y39370D02*
D03*
D37*
X53937Y18504D02*
D03*
Y11417D02*
D03*
X45669Y18504D02*
D03*
Y11417D02*
D03*
X378937Y44685D02*
D03*
Y51772D02*
D03*
X330709Y68504D02*
D03*
Y61417D02*
D03*
X384646Y36614D02*
D03*
Y29528D02*
D03*
D38*
X36614Y47638D02*
D03*
X43701D02*
D03*
X360236Y12205D02*
D03*
X367323D02*
D03*
X385827Y10630D02*
D03*
X378740D02*
D03*
D39*
X217967Y53794D02*
D03*
X222978Y58805D02*
D03*
X250644Y11668D02*
D03*
X255655Y16679D02*
D03*
D40*
X25984Y29528D02*
D03*
X5906D02*
D03*
X15748D02*
D03*
D41*
X259055Y65354D02*
D03*
X251181D02*
D03*
X242913D02*
D03*
X225394Y66929D02*
D03*
X234252Y65354D02*
D03*
X302165Y28543D02*
D03*
Y44291D02*
D03*
D42*
X33465Y22716D02*
D03*
Y12717D02*
D03*
X375197Y66535D02*
D03*
X385197D02*
D03*
X18347Y40472D02*
D03*
X28346D02*
D03*
D43*
X345276Y69193D02*
D03*
D44*
X15748Y59055D02*
D03*
Y15748D02*
D03*
D45*
X150787Y19291D02*
D03*
X186221D02*
D03*
D46*
X171260Y56299D02*
D03*
X155512Y57480D02*
D03*
X184252Y50787D02*
D03*
D47*
X365197Y66535D02*
D03*
X8347Y40472D02*
D03*
D48*
X358661Y70374D02*
D03*
Y64567D02*
D03*
X354528Y61122D02*
D03*
X348721D02*
D03*
X342913D02*
D03*
X136221Y10236D02*
D03*
X128347Y25984D02*
D03*
X132284Y18110D02*
D03*
X124410D02*
D03*
X116536D02*
D03*
X112599Y10236D02*
D03*
X108662Y18110D02*
D03*
X100787D02*
D03*
X88977Y25984D02*
D03*
X92914Y18110D02*
D03*
X103347Y13780D02*
D03*
X122047D02*
D03*
X93504D02*
D03*
X337106Y61122D02*
D03*
X216535Y50197D02*
D03*
X164567Y9843D02*
D03*
X173228D02*
D03*
X253150Y59449D02*
D03*
X297244Y48228D02*
D03*
X174803Y38976D02*
D03*
X195866Y31496D02*
D03*
X168307Y46260D02*
D03*
X320866Y26378D02*
D03*
X316535Y32283D02*
D03*
X319685Y35827D02*
D03*
X324410Y35506D02*
D03*
X293307Y33858D02*
D03*
X285433Y37402D02*
D03*
X290551D02*
D03*
X72933Y71161D02*
D03*
X94488Y56102D02*
D03*
X76772Y40945D02*
D03*
X131890Y13780D02*
D03*
X232283Y10827D02*
D03*
X83661Y64961D02*
D03*
X204724Y8858D02*
D03*
X233268Y26575D02*
D03*
X293307Y15748D02*
D03*
X238583Y49606D02*
D03*
X213386Y55118D02*
D03*
X256890Y10827D02*
D03*
X293307Y27559D02*
D03*
X299213Y21654D02*
D03*
X286417Y18701D02*
D03*
X305118Y13780D02*
D03*
Y18701D02*
D03*
X249606Y56681D02*
D03*
X254331Y22441D02*
D03*
X250984Y36417D02*
D03*
X248031Y32480D02*
D03*
Y40354D02*
D03*
X211811Y37008D02*
D03*
X379921Y20866D02*
D03*
X262205Y28346D02*
D03*
X205118Y41732D02*
D03*
X85630Y4921D02*
D03*
X74114Y9350D02*
D03*
X88287Y57087D02*
D03*
X36417Y59547D02*
D03*
X54331Y65158D02*
D03*
Y68898D02*
D03*
X73721Y4724D02*
D03*
X43307Y5906D02*
D03*
X27559Y70472D02*
D03*
X48622Y49409D02*
D03*
X62205Y9646D02*
D03*
X338090Y50492D02*
D03*
X316240Y50394D02*
D03*
X91929Y68504D02*
D03*
X318996Y62106D02*
D03*
X317913Y67913D02*
D03*
X354331Y49213D02*
D03*
X357283Y38386D02*
D03*
X370079Y49902D02*
D03*
X69685Y9449D02*
D03*
X58071Y4921D02*
D03*
D49*
X308481Y57284D02*
D03*
X265748Y63976D02*
D03*
X204134Y34646D02*
D03*
X203543Y64961D02*
D03*
X354331Y11417D02*
D03*
X205709Y55118D02*
D03*
X262185Y16122D02*
D03*
X317323Y14961D02*
D03*
X323524Y11614D02*
D03*
X385039Y17323D02*
D03*
X388189Y24016D02*
D03*
X79724Y24301D02*
D03*
X151772Y37402D02*
D03*
X155709Y44291D02*
D03*
X321850D02*
D03*
X386409Y43890D02*
D03*
X360630Y18898D02*
D03*
X372441Y12205D02*
D03*
X339478Y19990D02*
D03*
X346240Y49213D02*
D03*
X127362Y60039D02*
D03*
D50*
X48031Y53445D02*
D03*
Y60925D02*
D03*
X50000Y57185D02*
D03*
X46063D02*
D03*
X57480Y28563D02*
D03*
Y38405D02*
D03*
X54528Y33484D02*
D03*
X60433D02*
D03*
M02*
