G04*
G04 #@! TF.GenerationSoftware,Altium Limited,Altium Designer,19.1.5 (86)*
G04*
G04 Layer_Color=32896*
%FSLAX25Y25*%
%MOIN*%
G70*
G01*
G75*
%ADD10C,0.01000*%
%ADD11C,0.00787*%
%ADD13C,0.00500*%
%ADD14C,0.00630*%
G36*
X71862Y7842D02*
Y10051D01*
X69653Y7842D01*
X71862D01*
D02*
G37*
G36*
X73437Y25559D02*
Y27768D01*
X71228Y25559D01*
X73437D01*
D02*
G37*
G36*
X85630Y26969D02*
Y23031D01*
X89567Y26969D01*
X85630D01*
D02*
G37*
G36*
X113779D02*
Y23031D01*
X117717Y26969D01*
X113779D01*
D02*
G37*
D10*
X39803Y49311D02*
X39173Y49941D01*
X38543Y49311D01*
X39173Y48681D01*
X39803Y49311D01*
X127797Y61024D02*
X127465Y61936D01*
X126625Y62422D01*
X125668Y62253D01*
X125044Y61509D01*
Y60538D01*
X125668Y59794D01*
X126625Y59626D01*
X127465Y60111D01*
X127797Y61024D01*
X231060Y5571D02*
X230694Y6455D01*
X229810Y6821D01*
X228926Y6455D01*
X228560Y5571D01*
X245472Y51772D02*
Y57677D01*
X231693Y51772D02*
Y57677D01*
X224213Y67913D02*
Y70866D01*
X192717D02*
X224213D01*
X192717Y67913D02*
Y70866D01*
Y67913D02*
X194095D01*
X222638D02*
X224213D01*
X194291D02*
X222638D01*
Y63976D02*
Y67913D01*
X194291Y63976D02*
Y67716D01*
X222638Y53347D02*
Y54921D01*
X215551Y47441D02*
X222638D01*
X194291Y53347D02*
Y54921D01*
Y47441D02*
X201378D01*
X392543Y8277D02*
Y28824D01*
Y31824D02*
Y52372D01*
X314173D02*
X392543D01*
X314173Y8277D02*
Y52372D01*
Y8277D02*
X392543D01*
Y52372D02*
X417443D01*
X392543Y8277D02*
X417443D01*
Y52372D01*
X392543Y28824D02*
Y31824D01*
X393543Y50324D02*
X413543D01*
Y44324D02*
Y50324D01*
X397543Y44324D02*
X413543D01*
X397543Y38324D02*
Y44324D01*
Y38324D02*
X413543D01*
Y32324D02*
Y38324D01*
X397543Y32324D02*
X413543D01*
X397543Y26324D02*
Y32324D01*
Y26324D02*
X413543D01*
Y20324D02*
Y26324D01*
X397543Y20324D02*
X413543D01*
X397543Y14324D02*
Y20324D01*
Y14324D02*
X413543D01*
Y12324D02*
Y14324D01*
Y10324D02*
Y12324D01*
X392643Y50324D02*
X393543D01*
X119685Y66929D02*
X130315D01*
X119685Y64961D02*
Y66929D01*
Y55118D02*
Y57087D01*
Y55118D02*
X130315D01*
X134252Y60236D02*
Y61811D01*
X223511Y5571D02*
Y45571D01*
X236109D01*
Y5571D02*
Y45571D01*
X231060Y5571D02*
X236109D01*
X223511D02*
X228560D01*
D11*
X49213Y51083D02*
X54921D01*
Y52165D01*
Y62205D02*
Y63287D01*
X49213D02*
X54921D01*
X41142D02*
X46850D01*
X41142Y62205D02*
Y63287D01*
Y51083D02*
Y52165D01*
Y51083D02*
X46850D01*
X113779Y12402D02*
Y26969D01*
Y12402D02*
X140157D01*
Y26969D01*
X113779D02*
X140157D01*
X85630D02*
X112008D01*
Y12402D02*
Y26969D01*
X85630Y12402D02*
X112008D01*
X85630D02*
Y26969D01*
X109252Y52461D02*
X125000D01*
X109252Y40059D02*
X125000D01*
D13*
X176840Y70823D02*
X180640D01*
X176740Y63823D02*
X180740D01*
X186083Y40652D02*
Y43152D01*
X191083Y36652D02*
Y38152D01*
X186083Y31652D02*
Y34152D01*
Y43152D02*
X189583D01*
X186083Y31652D02*
X189583D01*
X73437Y25559D02*
Y29559D01*
X62807Y29559D02*
X73437Y29559D01*
X62807Y25559D02*
Y29559D01*
Y25559D02*
X73437Y25559D01*
X144839Y59517D02*
Y63317D01*
X137839Y59417D02*
Y63417D01*
X202724Y14217D02*
X206724D01*
X202824Y21216D02*
X206624D01*
X264075Y65158D02*
Y67913D01*
X251378Y63878D02*
X255709D01*
X251378Y69193D02*
X255709D01*
X251378Y63878D02*
Y69193D01*
X259252Y63878D02*
X262795D01*
X259252Y69193D02*
X262795D01*
X263583Y68405D01*
X263484Y68504D02*
X264075Y67913D01*
X263386Y64468D02*
X264075Y65158D01*
X263583Y64665D02*
Y68405D01*
X262795Y63878D02*
X263583Y64665D01*
X269275Y64529D02*
Y69329D01*
X270375Y63429D02*
X272825D01*
X283825D02*
Y70429D01*
X279825Y63429D02*
X283825D01*
X270375Y70429D02*
X272825D01*
X279825D02*
X283825D01*
X268875Y68929D02*
X270375Y70429D01*
X268875Y64929D02*
Y68929D01*
Y64929D02*
X270375Y63429D01*
X256102Y59055D02*
X257283D01*
X256102D02*
X257283Y58465D01*
X256102Y59055D02*
X257283Y59646D01*
Y58465D02*
Y59646D01*
X256102Y58465D02*
Y59646D01*
X258366Y59055D02*
X263327D01*
X258366Y53150D02*
X263327D01*
X258366D02*
Y59055D01*
X257842Y44138D02*
X261842D01*
X257943Y51138D02*
X261742D01*
X277528Y43744D02*
X281528D01*
X277628Y50744D02*
X281428D01*
X292291Y62445D02*
X296291D01*
X292391Y69445D02*
X296191D01*
X71862Y7842D02*
Y11842D01*
X61232Y11842D02*
X71862Y11842D01*
X61232Y7842D02*
Y11842D01*
Y7842D02*
X71862Y7842D01*
X202824Y12358D02*
X206624D01*
X202724Y5358D02*
X206724D01*
X237864Y70035D02*
X241664D01*
X237764Y63035D02*
X241764D01*
X84996Y50068D02*
Y53869D01*
X77996Y49968D02*
Y53969D01*
X69335Y50068D02*
Y53869D01*
X76335Y49968D02*
Y53969D01*
X69941Y69785D02*
Y72285D01*
X74941Y65785D02*
Y67285D01*
X69941Y60785D02*
Y63285D01*
Y72285D02*
X73441D01*
X69941Y60785D02*
X73441D01*
X46652Y65153D02*
Y70280D01*
X45474Y65153D02*
Y70280D01*
X41801Y31146D02*
X45601D01*
X41701Y38146D02*
X45701D01*
X166242Y42658D02*
X168742D01*
X162242Y37657D02*
X163742D01*
X157242Y42658D02*
X159742D01*
X168742Y39158D02*
Y42658D01*
X157242Y39158D02*
Y42658D01*
X169841Y39158D02*
Y42658D01*
X181341Y39158D02*
Y42658D01*
X169841D02*
X172341D01*
X174841Y37657D02*
X176341D01*
X178841Y42658D02*
X181341D01*
X41701Y46807D02*
X45701D01*
X41801Y39807D02*
X45601D01*
X56736Y59417D02*
Y63417D01*
X63736Y59517D02*
Y63317D01*
X104693Y64524D02*
X108693D01*
X104793Y57524D02*
X108593D01*
X31539Y57055D02*
Y61055D01*
X38539Y57155D02*
Y60955D01*
X46819Y8311D02*
X50819D01*
X46919Y15311D02*
X50719D01*
X160870Y18669D02*
Y22669D01*
X167870Y18769D02*
Y22569D01*
X169728Y18669D02*
Y22669D01*
X176728Y18769D02*
Y22569D01*
X88480Y54528D02*
X95379D01*
X88480Y57677D02*
X95379D01*
X248519Y10236D02*
X255418D01*
X248519Y13386D02*
X255418D01*
X134247Y45671D02*
X139375D01*
X134247Y46849D02*
X139375D01*
X61616Y44680D02*
Y49808D01*
X62794Y44680D02*
Y49808D01*
X40743Y24211D02*
X45871D01*
X40743Y23033D02*
X45871D01*
X49602Y24211D02*
X54729D01*
X49602Y23033D02*
X54729D01*
X254326Y29923D02*
X259454D01*
X254326Y31101D02*
X259454D01*
X204526Y22633D02*
Y27761D01*
X203348Y22633D02*
Y27761D01*
X89173Y45276D02*
X90354D01*
X89173D02*
X90354Y44685D01*
X89173Y45276D02*
X90354Y45866D01*
Y44685D02*
Y45866D01*
X89173Y44685D02*
Y45866D01*
X91437Y45276D02*
X96398D01*
X91437Y39370D02*
X96398D01*
X91437D02*
Y45276D01*
X195866Y35827D02*
Y37008D01*
Y35827D02*
X196457Y37008D01*
X195276D02*
X195866Y35827D01*
X195276Y37008D02*
X196457D01*
X195276Y35827D02*
X196457D01*
X195866Y38091D02*
Y43051D01*
X201772Y38091D02*
Y43051D01*
X195866Y38091D02*
X201772D01*
D14*
X119256Y45319D02*
X119278Y48468D01*
X117704Y48479D01*
X117176Y47958D01*
X117168Y46908D01*
X117689Y46380D01*
X119264Y46369D01*
X118214Y46376D02*
X117157Y45334D01*
X116126Y47965D02*
X115605Y48493D01*
X114556Y48501D01*
X114027Y47980D01*
X114023Y47455D01*
X114544Y46926D01*
X115069Y46923D01*
X114544Y46926D01*
X114016Y46405D01*
X114013Y45880D01*
X114534Y45352D01*
X115583Y45345D01*
X116112Y45866D01*
X75103Y24559D02*
X74953Y24409D01*
X74803Y24559D01*
X74953Y24709D01*
X75103Y24559D01*
X73922Y7237D02*
X73772Y7087D01*
X73622Y7237D01*
X73772Y7386D01*
X73922Y7237D01*
X168504Y65748D02*
Y68897D01*
X166930D01*
X166405Y68372D01*
Y67322D01*
X166930Y66798D01*
X168504D01*
X167454D02*
X166405Y65748D01*
X165355Y68372D02*
X164831Y68897D01*
X163781D01*
X163256Y68372D01*
Y67847D01*
X163781Y67322D01*
X164306D01*
X163781D01*
X163256Y66798D01*
Y66273D01*
X163781Y65748D01*
X164831D01*
X165355Y66273D01*
X160108Y68897D02*
X161157Y68372D01*
X162207Y67322D01*
Y66273D01*
X161682Y65748D01*
X160633D01*
X160108Y66273D01*
Y66798D01*
X160633Y67322D01*
X162207D01*
X195669Y27165D02*
Y30314D01*
X194620Y29264D01*
X193570Y30314D01*
Y27165D01*
X190946D02*
Y30314D01*
X192521Y28740D01*
X190422D01*
X75460Y13123D02*
Y15222D01*
X75985Y15747D01*
X77034D01*
X77559Y15222D01*
Y13123D01*
X77034Y12598D01*
X75985D01*
X76509Y13648D02*
X75460Y12598D01*
X75985D02*
X75460Y13123D01*
X74410Y12598D02*
X73361D01*
X73886D01*
Y15747D01*
X74410Y15222D01*
X252362Y61810D02*
Y58661D01*
X250788D01*
X250263Y59186D01*
Y61285D01*
X250788Y61810D01*
X252362D01*
X247115D02*
X248164Y61285D01*
X249214Y60236D01*
Y59186D01*
X248689Y58661D01*
X247639D01*
X247115Y59186D01*
Y59711D01*
X247639Y60236D01*
X249214D01*
X284646Y61810D02*
Y58661D01*
X283071D01*
X282547Y59186D01*
Y61285D01*
X283071Y61810D01*
X284646D01*
X281497Y61285D02*
X280972Y61810D01*
X279923D01*
X279398Y61285D01*
Y60760D01*
X279923Y60236D01*
X280448D01*
X279923D01*
X279398Y59711D01*
Y59186D01*
X279923Y58661D01*
X280972D01*
X281497Y59186D01*
X152756Y65748D02*
Y68897D01*
X151182D01*
X150657Y68372D01*
Y67322D01*
X151182Y66798D01*
X152756D01*
X151706D02*
X150657Y65748D01*
X149607Y66273D02*
X149083Y65748D01*
X148033D01*
X147508Y66273D01*
Y68372D01*
X148033Y68897D01*
X149083D01*
X149607Y68372D01*
Y67847D01*
X149083Y67322D01*
X147508D01*
X227165Y63779D02*
X230314D01*
Y65354D01*
X229789Y65879D01*
X228740D01*
X228215Y65354D01*
Y63779D01*
Y64829D02*
X227165Y65879D01*
Y69027D02*
Y66928D01*
X229264Y69027D01*
X229789D01*
X230314Y68502D01*
Y67453D01*
X229789Y66928D01*
X230314Y72176D02*
X229789Y71126D01*
X228740Y70077D01*
X227690D01*
X227165Y70601D01*
Y71651D01*
X227690Y72176D01*
X228215D01*
X228740Y71651D01*
Y70077D01*
X37271Y70734D02*
X37796Y71259D01*
X38845D01*
X39370Y70734D01*
Y68635D01*
X38845Y68110D01*
X37796D01*
X37271Y68635D01*
X36222Y70734D02*
X35697Y71259D01*
X34647D01*
X34122Y70734D01*
Y70209D01*
X34647Y69684D01*
X35172D01*
X34647D01*
X34122Y69160D01*
Y68635D01*
X34647Y68110D01*
X35697D01*
X36222Y68635D01*
X33858Y32677D02*
Y35826D01*
X32284D01*
X31759Y35301D01*
Y34251D01*
X32284Y33727D01*
X33858D01*
X32809D02*
X31759Y32677D01*
X28611Y35826D02*
X29660Y35301D01*
X30710Y34251D01*
Y33202D01*
X30185Y32677D01*
X29135D01*
X28611Y33202D01*
Y33727D01*
X29135Y34251D01*
X30710D01*
X78345Y28346D02*
X75722D01*
X75197Y28871D01*
Y29921D01*
X75722Y30446D01*
X78345D01*
X75197Y33069D02*
X78345D01*
X76771Y31495D01*
Y33594D01*
X248425Y49212D02*
X246326Y46063D01*
Y49212D02*
X248425Y46063D01*
X245277D02*
X244227D01*
X244752D01*
Y49212D01*
X245277Y48687D01*
X191732Y14173D02*
X194881D01*
Y15747D01*
X194356Y16272D01*
X193307D01*
X192782Y15747D01*
Y14173D01*
Y15223D02*
X191732Y16272D01*
Y19421D02*
Y17322D01*
X193831Y19421D01*
X194356D01*
X194881Y18896D01*
Y17847D01*
X194356Y17322D01*
X194881Y20470D02*
Y22569D01*
X194356D01*
X192257Y20470D01*
X191732D01*
X301969Y57087D02*
Y60235D01*
X300394D01*
X299869Y59710D01*
Y58661D01*
X300394Y58136D01*
X301969D01*
X300919D02*
X299869Y57087D01*
X296721D02*
X298820D01*
X296721Y59186D01*
Y59710D01*
X297246Y60235D01*
X298295D01*
X298820Y59710D01*
X293572Y57087D02*
X295671D01*
X293572Y59186D01*
Y59710D01*
X294097Y60235D01*
X295146D01*
X295671Y59710D01*
X267717Y39370D02*
Y42519D01*
X266142D01*
X265617Y41994D01*
Y40944D01*
X266142Y40420D01*
X267717D01*
X266667D02*
X265617Y39370D01*
X262469D02*
X264568D01*
X262469Y41469D01*
Y41994D01*
X262994Y42519D01*
X264043D01*
X264568Y41994D01*
X261419Y39370D02*
X260370D01*
X260895D01*
Y42519D01*
X261419Y41994D01*
X287008Y38976D02*
Y42125D01*
X285434D01*
X284909Y41600D01*
Y40551D01*
X285434Y40026D01*
X287008D01*
X285958D02*
X284909Y38976D01*
X281760D02*
X283859D01*
X281760Y41075D01*
Y41600D01*
X282285Y42125D01*
X283334D01*
X283859Y41600D01*
X280711D02*
X280186Y42125D01*
X279136D01*
X278612Y41600D01*
Y39501D01*
X279136Y38976D01*
X280186D01*
X280711Y39501D01*
Y41600D01*
X272243Y53740D02*
X269094D01*
Y55314D01*
X269619Y55839D01*
X271718D01*
X272243Y55314D01*
Y53740D01*
X269094Y58988D02*
Y56889D01*
X271194Y58988D01*
X271718D01*
X272243Y58463D01*
Y57414D01*
X271718Y56889D01*
X233465Y19684D02*
Y17060D01*
X232940Y16535D01*
X231890D01*
X231365Y17060D01*
Y19684D01*
X230316Y16535D02*
X229266D01*
X229791D01*
Y19684D01*
X230316Y19159D01*
X227692D02*
X227167Y19684D01*
X226118D01*
X225593Y19159D01*
Y17060D01*
X226118Y16535D01*
X227167D01*
X227692Y17060D01*
Y19159D01*
X382283Y49212D02*
Y46588D01*
X381759Y46063D01*
X380709D01*
X380184Y46588D01*
Y49212D01*
X379135Y46588D02*
X378610Y46063D01*
X377561D01*
X377036Y46588D01*
Y48687D01*
X377561Y49212D01*
X378610D01*
X379135Y48687D01*
Y48162D01*
X378610Y47637D01*
X377036D01*
X55905Y44094D02*
X53281D01*
X52756Y44619D01*
Y45669D01*
X53281Y46194D01*
X55905D01*
X55380Y47243D02*
X55905Y47768D01*
Y48817D01*
X55380Y49342D01*
X54855D01*
X54330Y48817D01*
Y48293D01*
Y48817D01*
X53805Y49342D01*
X53281D01*
X52756Y48817D01*
Y47768D01*
X53281Y47243D01*
X111811Y10629D02*
Y8005D01*
X111286Y7480D01*
X110237D01*
X109712Y8005D01*
Y10629D01*
X106563Y7480D02*
X108662D01*
X106563Y9579D01*
Y10104D01*
X107088Y10629D01*
X108138D01*
X108662Y10104D01*
X118110Y10629D02*
Y8005D01*
X117586Y7480D01*
X116536D01*
X116011Y8005D01*
Y10629D01*
X114962Y7480D02*
X113912D01*
X114437D01*
Y10629D01*
X114962Y10104D01*
X177953Y4724D02*
Y7873D01*
X176379D01*
X175854Y7348D01*
Y6299D01*
X176379Y5774D01*
X177953D01*
X176903D02*
X175854Y4724D01*
X174804Y7348D02*
X174279Y7873D01*
X173230D01*
X172705Y7348D01*
Y6824D01*
X173230Y6299D01*
X173755D01*
X173230D01*
X172705Y5774D01*
Y5249D01*
X173230Y4724D01*
X174279D01*
X174804Y5249D01*
X170081Y4724D02*
Y7873D01*
X171656Y6299D01*
X169556D01*
X167717Y4724D02*
Y7873D01*
X166142D01*
X165618Y7348D01*
Y6299D01*
X166142Y5774D01*
X167717D01*
X166667D02*
X165618Y4724D01*
X164568Y7348D02*
X164043Y7873D01*
X162994D01*
X162469Y7348D01*
Y6824D01*
X162994Y6299D01*
X163518D01*
X162994D01*
X162469Y5774D01*
Y5249D01*
X162994Y4724D01*
X164043D01*
X164568Y5249D01*
X161419Y4724D02*
X160370D01*
X160895D01*
Y7873D01*
X161419Y7348D01*
X191732Y3937D02*
X194881D01*
Y5511D01*
X194356Y6036D01*
X193307D01*
X192782Y5511D01*
Y3937D01*
Y4986D02*
X191732Y6036D01*
Y9185D02*
Y7086D01*
X193831Y9185D01*
X194356D01*
X194881Y8660D01*
Y7610D01*
X194356Y7086D01*
Y10234D02*
X194881Y10759D01*
Y11808D01*
X194356Y12333D01*
X193831D01*
X193307Y11808D01*
X192782Y12333D01*
X192257D01*
X191732Y11808D01*
Y10759D01*
X192257Y10234D01*
X192782D01*
X193307Y10759D01*
X193831Y10234D01*
X194356D01*
X193307Y10759D02*
Y11808D01*
X85827Y38976D02*
Y42125D01*
X84253D01*
X83728Y41600D01*
Y40551D01*
X84253Y40026D01*
X85827D01*
X84777D02*
X83728Y38976D01*
X82678D02*
X81629D01*
X82153D01*
Y42125D01*
X82678Y41600D01*
X80054Y42125D02*
X77955D01*
Y41600D01*
X80054Y39501D01*
Y38976D01*
X75197D02*
Y42125D01*
X73623D01*
X73098Y41600D01*
Y40551D01*
X73623Y40026D01*
X75197D01*
X74147D02*
X73098Y38976D01*
X72048D02*
X70999D01*
X71523D01*
Y42125D01*
X72048Y41600D01*
X67325Y42125D02*
X68375Y41600D01*
X69424Y40551D01*
Y39501D01*
X68900Y38976D01*
X67850D01*
X67325Y39501D01*
Y40026D01*
X67850Y40551D01*
X69424D01*
X53150Y3543D02*
Y6692D01*
X51575D01*
X51051Y6167D01*
Y5118D01*
X51575Y4593D01*
X53150D01*
X52100D02*
X51051Y3543D01*
X50001D02*
X48952D01*
X49476D01*
Y6692D01*
X50001Y6167D01*
X47377D02*
X46852Y6692D01*
X45803D01*
X45278Y6167D01*
Y5642D01*
X45803Y5118D01*
X46328D01*
X45803D01*
X45278Y4593D01*
Y4068D01*
X45803Y3543D01*
X46852D01*
X47377Y4068D01*
X117717Y66535D02*
Y69684D01*
X116142D01*
X115618Y69159D01*
Y68110D01*
X116142Y67585D01*
X117717D01*
X116667D02*
X115618Y66535D01*
X114568Y69684D02*
X112469D01*
Y69159D01*
X114568Y67060D01*
Y66535D01*
X27165Y62992D02*
X30314D01*
Y64566D01*
X29789Y65091D01*
X28740D01*
X28215Y64566D01*
Y62992D01*
Y64042D02*
X27165Y65091D01*
X29789Y66141D02*
X30314Y66666D01*
Y67715D01*
X29789Y68240D01*
X29264D01*
X28740Y67715D01*
X28215Y68240D01*
X27690D01*
X27165Y67715D01*
Y66666D01*
X27690Y66141D01*
X28215D01*
X28740Y66666D01*
X29264Y66141D01*
X29789D01*
X28740Y66666D02*
Y67715D01*
X109055Y66535D02*
Y69684D01*
X107481D01*
X106956Y69159D01*
Y68110D01*
X107481Y67585D01*
X109055D01*
X108006D02*
X106956Y66535D01*
X103807Y69684D02*
X105906D01*
Y68110D01*
X104857Y68634D01*
X104332D01*
X103807Y68110D01*
Y67060D01*
X104332Y66535D01*
X105382D01*
X105906Y67060D01*
X68504Y55118D02*
Y58267D01*
X66930D01*
X66405Y57742D01*
Y56692D01*
X66930Y56168D01*
X68504D01*
X67454D02*
X66405Y55118D01*
X65355D02*
X64306D01*
X64831D01*
Y58267D01*
X65355Y57742D01*
X33858Y45276D02*
Y48424D01*
X32284D01*
X31759Y47899D01*
Y46850D01*
X32284Y46325D01*
X33858D01*
X32809D02*
X31759Y45276D01*
X29135D02*
Y48424D01*
X30710Y46850D01*
X28611D01*
X183071Y29134D02*
Y32283D01*
X182021Y31233D01*
X180972Y32283D01*
Y29134D01*
X179922Y31758D02*
X179397Y32283D01*
X178348D01*
X177823Y31758D01*
Y31233D01*
X178348Y30708D01*
X178873D01*
X178348D01*
X177823Y30183D01*
Y29659D01*
X178348Y29134D01*
X179397D01*
X179922Y29659D01*
X165354Y48031D02*
Y51180D01*
X164305Y50131D01*
X163255Y51180D01*
Y48031D01*
X160107D02*
X162206D01*
X160107Y50131D01*
Y50655D01*
X160631Y51180D01*
X161681D01*
X162206Y50655D01*
X84646Y68898D02*
Y72046D01*
X83596Y70997D01*
X82547Y72046D01*
Y68898D01*
X81497D02*
X80448D01*
X80972D01*
Y72046D01*
X81497Y71522D01*
X209842Y40156D02*
Y37008D01*
X208268D01*
X207744Y37533D01*
Y39632D01*
X208268Y40156D01*
X209842D01*
X206694Y39632D02*
X206169Y40156D01*
X205120D01*
X204595Y39632D01*
Y39107D01*
X205120Y38582D01*
X204595Y38057D01*
Y37533D01*
X205120Y37008D01*
X206169D01*
X206694Y37533D01*
Y38057D01*
X206169Y38582D01*
X206694Y39107D01*
Y39632D01*
X206169Y38582D02*
X205120D01*
X101575Y49605D02*
Y46457D01*
X100001D01*
X99476Y46981D01*
Y49081D01*
X100001Y49605D01*
X101575D01*
X98426Y46457D02*
X97377D01*
X97901D01*
Y49605D01*
X98426Y49081D01*
X206945Y32143D02*
X207468Y32670D01*
X208518Y32674D01*
X209045Y32151D01*
X209053Y30052D01*
X208530Y29526D01*
X207481Y29521D01*
X206954Y30044D01*
X203807Y29506D02*
X205907Y29515D01*
X203799Y31605D01*
X203797Y32130D01*
X204320Y32657D01*
X205369Y32661D01*
X205896Y32139D01*
X202747Y32126D02*
X202221Y32649D01*
X201171Y32645D01*
X200648Y32118D01*
X200651Y31593D01*
X201177Y31070D01*
X201702Y31072D01*
X201177Y31070D01*
X200655Y30543D01*
X200657Y30018D01*
X201184Y29496D01*
X202233Y29500D01*
X202756Y30027D01*
X267192Y34514D02*
X267717Y35038D01*
X268767D01*
X269291Y34514D01*
Y32414D01*
X268767Y31890D01*
X267717D01*
X267192Y32414D01*
X264044Y31890D02*
X266143D01*
X264044Y33989D01*
Y34514D01*
X264568Y35038D01*
X265618D01*
X266143Y34514D01*
X262994Y31890D02*
X261945D01*
X262469D01*
Y35038D01*
X262994Y34514D01*
X261679Y6430D02*
X262204Y5905D01*
Y4856D01*
X261679Y4331D01*
X259580D01*
X259055Y4856D01*
Y5905D01*
X259580Y6430D01*
X259055Y9578D02*
Y7479D01*
X261154Y9578D01*
X261679D01*
X262204Y9054D01*
Y8004D01*
X261679Y7479D01*
X259055Y12727D02*
Y10628D01*
X261154Y12727D01*
X261679D01*
X262204Y12202D01*
Y11153D01*
X261679Y10628D01*
X59317Y20997D02*
X59842Y20472D01*
Y19422D01*
X59317Y18898D01*
X57218D01*
X56693Y19422D01*
Y20472D01*
X57218Y20997D01*
X59842Y22046D02*
Y24145D01*
X59317D01*
X57218Y22046D01*
X56693D01*
X38844Y17847D02*
X39369Y17322D01*
Y16273D01*
X38844Y15748D01*
X36745D01*
X36220Y16273D01*
Y17322D01*
X36745Y17847D01*
X39369Y20996D02*
X38844Y19946D01*
X37795Y18897D01*
X36745D01*
X36220Y19421D01*
Y20471D01*
X36745Y20996D01*
X37270D01*
X37795Y20471D01*
Y18897D01*
X62468Y42388D02*
X62993Y42912D01*
X64042D01*
X64567Y42388D01*
Y40288D01*
X64042Y39764D01*
X62993D01*
X62468Y40288D01*
X59844Y39764D02*
Y42912D01*
X61418Y41338D01*
X59319D01*
X100657Y55773D02*
X101182Y56298D01*
X102231D01*
X102756Y55773D01*
Y53674D01*
X102231Y53150D01*
X101182D01*
X100657Y53674D01*
X97508Y53150D02*
X99607D01*
X97508Y55249D01*
Y55773D01*
X98033Y56298D01*
X99083D01*
X99607Y55773D01*
X144358Y47112D02*
X144882Y47637D01*
X145932D01*
X146457Y47112D01*
Y45013D01*
X145932Y44488D01*
X144882D01*
X144358Y45013D01*
X143308Y44488D02*
X142259D01*
X142783D01*
Y47637D01*
X143308Y47112D01*
M02*
