G04*
G04 #@! TF.GenerationSoftware,Altium Limited,Altium Designer,19.1.5 (86)*
G04*
G04 Layer_Color=32768*
%FSLAX25Y25*%
%MOIN*%
G70*
G01*
G75*
%ADD13C,0.00500*%
%ADD77C,0.02000*%
%ADD144C,0.00394*%
%ADD145C,0.00300*%
%ADD146C,0.01000*%
%ADD147C,0.03937*%
%ADD148C,0.01968*%
D13*
X128740Y1575D02*
X158661D01*
Y37795D01*
X128740D02*
X158661D01*
X128740Y1575D02*
Y37795D01*
X100591Y1575D02*
X130512D01*
Y37795D01*
X100591D02*
X130512D01*
X100591Y1575D02*
Y37795D01*
X324606Y1181D02*
X354528D01*
X324606D02*
Y37402D01*
X354528D01*
Y1181D02*
Y37402D01*
D77*
X47244Y64961D02*
D03*
X94882Y56299D02*
D03*
X47244Y54134D02*
D03*
X176181Y20669D02*
D03*
X123425Y61024D02*
D03*
X47244Y43307D02*
D03*
X186024Y20669D02*
D03*
X47244Y32480D02*
D03*
X48819Y22047D02*
D03*
X46063Y37795D02*
D03*
X75984Y65748D02*
D03*
X42520Y59449D02*
D03*
X48819Y11811D02*
D03*
X64567Y55512D02*
D03*
X56693Y64173D02*
D03*
X51575Y11811D02*
D03*
X42913D02*
D03*
X360236Y49213D02*
D03*
X370079Y50197D02*
D03*
X263779Y68110D02*
D03*
X228346Y53150D02*
D03*
X281496Y6693D02*
D03*
X214567Y48228D02*
D03*
X296260Y63976D02*
D03*
X303937Y14173D02*
D03*
X287402Y63976D02*
D03*
X215551Y6890D02*
D03*
X214567Y58071D02*
D03*
X235039Y6890D02*
D03*
X186024Y68898D02*
D03*
X182087Y40354D02*
D03*
X250394Y65354D02*
D03*
X305118Y64961D02*
D03*
X275590Y21654D02*
D03*
X215354Y66929D02*
D03*
X108661Y56102D02*
D03*
X84646Y21654D02*
D03*
Y12795D02*
D03*
X151575Y55118D02*
D03*
Y20669D02*
D03*
X330709Y45276D02*
D03*
X345472Y41732D02*
D03*
X283465Y18701D02*
D03*
X110630Y42323D02*
D03*
X209646Y32480D02*
D03*
D144*
X149016Y38780D02*
Y53740D01*
X118701Y38780D02*
Y53740D01*
X149016D01*
X118701Y38780D02*
X149016D01*
X38189Y60630D02*
Y69291D01*
X56299Y60630D02*
Y69291D01*
X38189Y60630D02*
X56299D01*
X38189Y69291D02*
X56299D01*
X90551Y47244D02*
X99213D01*
X90551Y65354D02*
X99213D01*
Y47244D02*
Y65354D01*
X90551Y47244D02*
Y65354D01*
X38189Y49803D02*
Y58465D01*
X56299Y49803D02*
Y58465D01*
X38189Y49803D02*
X56299D01*
X38189Y58465D02*
X56299D01*
X171850Y29724D02*
X180512D01*
X171850Y11614D02*
X180512D01*
X171850D02*
Y29724D01*
X180512Y11614D02*
Y29724D01*
X114370Y56693D02*
Y65354D01*
X132480Y56693D02*
Y65354D01*
X114370Y56693D02*
X132480D01*
X114370Y65354D02*
X132480D01*
X38189Y38976D02*
Y47638D01*
X56299Y38976D02*
Y47638D01*
X38189Y38976D02*
X56299D01*
X38189Y47638D02*
X56299D01*
X181693Y11614D02*
X190354D01*
X181693Y29724D02*
X190354D01*
Y11614D02*
Y29724D01*
X181693Y11614D02*
Y29724D01*
X38189Y28150D02*
Y36811D01*
X56299Y28150D02*
Y36811D01*
X38189Y28150D02*
X56299D01*
X38189Y36811D02*
X56299D01*
X39764Y17717D02*
Y26378D01*
X57874Y17717D02*
Y26378D01*
X39764Y17717D02*
X57874D01*
X39764Y26378D02*
X57874D01*
X37008Y33465D02*
Y42126D01*
X55118Y33465D02*
Y42126D01*
X37008D02*
X55118D01*
X37008Y33465D02*
X55118D01*
X85039Y61417D02*
Y70079D01*
X66929Y61417D02*
Y70079D01*
Y61417D02*
X85039D01*
X66929Y70079D02*
X85039D01*
X38189Y50394D02*
X46850D01*
X38189Y68504D02*
X46850D01*
X38189Y50394D02*
Y68504D01*
X46850Y50394D02*
Y68504D01*
X57874Y7480D02*
Y16142D01*
X39764Y7480D02*
Y16142D01*
X57874D01*
X39764Y7480D02*
X57874D01*
X73622Y51181D02*
Y59842D01*
X55512Y51181D02*
Y59842D01*
Y51181D02*
X73622D01*
X55512Y59842D02*
X73622D01*
X65748D02*
Y68504D01*
X47638Y59842D02*
Y68504D01*
Y59842D02*
X65748D01*
X47638Y68504D02*
X65748D01*
X47244Y20866D02*
X55905D01*
X47244Y2756D02*
X55905D01*
Y20866D01*
X47244Y2756D02*
Y20866D01*
X38583Y2756D02*
X47244D01*
X38583Y20866D02*
X47244D01*
X38583Y2756D02*
Y20866D01*
X47244Y2756D02*
Y20866D01*
X355906Y58268D02*
X364567D01*
X355906Y40157D02*
X364567D01*
Y58268D01*
X355906Y40157D02*
Y58268D01*
X365748Y59252D02*
X374410D01*
X365748Y41142D02*
X374410D01*
Y59252D01*
X365748Y41142D02*
Y59252D01*
X272835Y63779D02*
Y72441D01*
X254724Y63779D02*
Y72441D01*
Y63779D02*
X272835D01*
X254724Y72441D02*
X272835D01*
X224016Y44094D02*
X232677D01*
X224016Y62205D02*
X232677D01*
X224016Y44094D02*
Y62205D01*
X232677Y44094D02*
Y62205D01*
X290551Y2362D02*
Y11024D01*
X272441Y2362D02*
Y11024D01*
Y2362D02*
X290551D01*
X272441Y11024D02*
X290551D01*
X223622Y43898D02*
Y52559D01*
X205512Y43898D02*
Y52559D01*
Y43898D02*
X223622D01*
X205512Y52559D02*
X223622D01*
X291929Y73032D02*
X300590D01*
X291929Y54921D02*
X300590D01*
Y73032D01*
X291929Y54921D02*
Y73032D01*
X312992Y9843D02*
Y18504D01*
X294882Y9843D02*
Y18504D01*
Y9843D02*
X312992D01*
X294882Y18504D02*
X312992D01*
X283071Y54921D02*
X291732D01*
X283071Y73032D02*
X291732D01*
X283071Y54921D02*
Y73032D01*
X291732Y54921D02*
Y73032D01*
X206496Y2559D02*
Y11220D01*
X224606Y2559D02*
Y11220D01*
X206496Y2559D02*
X224606D01*
X206496Y11220D02*
X224606D01*
X223622Y53740D02*
Y62402D01*
X205512Y53740D02*
Y62402D01*
Y53740D02*
X223622D01*
X205512Y62402D02*
X223622D01*
X225984Y2559D02*
Y11220D01*
X244094Y2559D02*
Y11220D01*
X225984Y2559D02*
X244094D01*
X225984Y11220D02*
X244094D01*
X176969Y64567D02*
Y73228D01*
X195079Y64567D02*
Y73228D01*
X176969Y64567D02*
X195079D01*
X176969Y73228D02*
X195079D01*
X177756Y31299D02*
X186417D01*
X177756Y49409D02*
X186417D01*
Y31299D02*
Y49409D01*
X177756Y31299D02*
Y49409D01*
X104331Y47047D02*
Y65158D01*
X112992Y47047D02*
Y65158D01*
X104331D02*
X112992D01*
X104331Y47047D02*
X112992D01*
X75590Y25984D02*
X93701D01*
X75590Y17323D02*
X93701D01*
X75590D02*
Y25984D01*
X93701Y17323D02*
Y25984D01*
X75590Y17126D02*
X93701D01*
X75590Y8465D02*
X93701D01*
X75590D02*
Y17126D01*
X93701Y8465D02*
Y17126D01*
X155905Y46063D02*
Y64173D01*
X147244Y46063D02*
Y64173D01*
X155905D01*
X147244Y46063D02*
X155905D01*
X147244Y11614D02*
Y29724D01*
X155905Y11614D02*
Y29724D01*
X147244Y11614D02*
X155905D01*
X147244Y29724D02*
X155905D01*
X335039Y36220D02*
Y54331D01*
X326378Y36220D02*
Y54331D01*
X335039D01*
X326378Y36220D02*
X335039D01*
X336417Y37402D02*
X354528D01*
X336417Y46063D02*
X354528D01*
Y37402D02*
Y46063D01*
X336417Y37402D02*
Y46063D01*
X274410Y23031D02*
X292520D01*
X274410Y14370D02*
X292520D01*
Y23031D01*
X274410Y14370D02*
Y23031D01*
X59449Y70866D02*
X66535D01*
X59449Y58268D02*
X66535D01*
X59449D02*
Y70866D01*
X66535Y58268D02*
Y70866D01*
X150000Y39961D02*
X157087D01*
X150000Y52559D02*
X157087D01*
Y39961D02*
Y52559D01*
X150000Y39961D02*
Y52559D01*
X59449Y57480D02*
X66535D01*
X59449Y44882D02*
X66535D01*
X59449D02*
Y57480D01*
X66535Y44882D02*
Y57480D01*
X70866Y62205D02*
Y69291D01*
X83465Y62205D02*
Y69291D01*
X70866Y62205D02*
X83465D01*
X70866Y69291D02*
X83465D01*
X90354Y37795D02*
Y44882D01*
X77756Y37795D02*
Y44882D01*
X90354D01*
X77756Y37795D02*
X90354D01*
X57677Y29921D02*
Y37008D01*
X70276Y29921D02*
Y37008D01*
X57677Y29921D02*
X70276D01*
X57677Y37008D02*
X70276D01*
X64961Y25984D02*
X72047D01*
X64961Y13386D02*
X72047D01*
Y25984D01*
X64961Y13386D02*
Y25984D01*
X71260Y17323D02*
X78347D01*
X71260Y29921D02*
X78347D01*
Y17323D02*
Y29921D01*
X71260Y17323D02*
Y29921D01*
X47638Y47244D02*
X54724D01*
X47638Y59842D02*
X54724D01*
X47638Y47244D02*
Y59842D01*
X54724Y47244D02*
Y59842D01*
X57480Y25984D02*
X64567D01*
X57480Y13386D02*
X64567D01*
Y25984D01*
X57480Y13386D02*
Y25984D01*
X357480Y8661D02*
Y15748D01*
X370079Y8661D02*
Y15748D01*
X357480D02*
X370079D01*
X357480Y8661D02*
X370079D01*
X375394Y41929D02*
X382480D01*
X375394Y54528D02*
X382480D01*
X375394Y41929D02*
Y54528D01*
X382480Y41929D02*
Y54528D01*
X389764Y8661D02*
Y15748D01*
X377165Y8661D02*
Y15748D01*
Y8661D02*
X389764D01*
X377165Y15748D02*
X389764D01*
X327165Y71260D02*
X334252D01*
X327165Y58661D02*
X334252D01*
Y71260D01*
X327165Y58661D02*
Y71260D01*
X381102Y35433D02*
X388189D01*
X381102Y22835D02*
X388189D01*
Y35433D01*
X381102Y22835D02*
Y35433D01*
X275197Y36220D02*
X282283D01*
X275197Y23622D02*
X282283D01*
X275197D02*
Y36220D01*
X282283Y23622D02*
Y36220D01*
X238976Y29921D02*
Y37008D01*
X226378Y29921D02*
Y37008D01*
X238976D01*
X226378Y29921D02*
X238976D01*
X265748Y58661D02*
X272835D01*
X265748Y71260D02*
X272835D01*
Y58661D02*
Y71260D01*
X265748Y58661D02*
Y71260D01*
X242520Y58661D02*
X249606D01*
X242520Y71260D02*
X249606D01*
Y58661D02*
Y71260D01*
X242520Y58661D02*
Y71260D01*
X229921Y29528D02*
X237008D01*
X229921Y42126D02*
X237008D01*
X229921Y29528D02*
Y42126D01*
X237008Y29528D02*
Y42126D01*
X275000Y26181D02*
X282087D01*
X275000Y38780D02*
X282087D01*
X275000Y26181D02*
Y38780D01*
X282087Y26181D02*
Y38780D01*
D145*
X253642Y2953D02*
X258957D01*
Y15157D01*
X253642D02*
X258957D01*
X253642Y2953D02*
Y15157D01*
X259941Y2953D02*
X265256D01*
Y15157D01*
X259941D02*
X265256D01*
X259941Y2953D02*
Y15157D01*
X224213Y65059D02*
Y70374D01*
Y65059D02*
X236417D01*
Y70374D01*
X224213D02*
X236417D01*
X39764Y19882D02*
X54724D01*
Y33661D01*
X39764D02*
X54724D01*
X39764Y19882D02*
Y33661D01*
X207087Y28543D02*
X222047D01*
Y14764D02*
Y28543D01*
X207087Y14764D02*
X222047D01*
X207087D02*
Y28543D01*
X236417Y15354D02*
Y30315D01*
X222638Y15354D02*
X236417D01*
X222638D02*
Y30315D01*
X236417D01*
X246394Y73104D02*
X254394D01*
X246394Y57104D02*
Y73104D01*
Y57104D02*
X254394D01*
Y73104D01*
X301118Y72711D02*
X309118D01*
X301118Y56711D02*
Y72711D01*
Y56711D02*
X309118D01*
Y72711D01*
X267841Y17653D02*
Y25653D01*
Y17653D02*
X283840D01*
Y25653D01*
X267841D02*
X283840D01*
X223104Y62929D02*
Y70929D01*
X207104D02*
X223104D01*
X207104Y62929D02*
Y70929D01*
Y62929D02*
X223104D01*
X103740Y46260D02*
X117520D01*
X103740Y38386D02*
Y46260D01*
Y38386D02*
X117520D01*
Y46260D01*
X205709Y25591D02*
Y39370D01*
Y25591D02*
X213583D01*
Y39370D01*
X205709D02*
X213583D01*
D146*
X256299Y9055D02*
D03*
X262598D02*
D03*
X230315Y67716D02*
D03*
X33465Y17717D02*
D03*
X62992Y64567D02*
D03*
X153543Y46260D02*
D03*
X62992Y51181D02*
D03*
X77165Y65748D02*
D03*
X84055Y41339D02*
D03*
X63976Y33465D02*
D03*
X68504Y19685D02*
D03*
X74803Y23622D02*
D03*
X51181Y53543D02*
D03*
X61024Y19685D02*
D03*
X363779Y12205D02*
D03*
X378937Y48228D02*
D03*
X383465Y12205D02*
D03*
X330709Y64961D02*
D03*
X384646Y29134D02*
D03*
X278740Y29921D02*
D03*
X232677Y33465D02*
D03*
X269291Y64961D02*
D03*
X246063Y64961D02*
D03*
X233465Y35827D02*
D03*
X278543Y32480D02*
D03*
D147*
X133858Y46260D02*
D03*
X143701Y19685D02*
D03*
X115551D02*
D03*
X339567Y19291D02*
D03*
D148*
X47244Y26772D02*
D03*
X214567Y21654D02*
D03*
X229528Y22835D02*
D03*
M02*
