M48
;Layer_Color=9474304
;FILE_FORMAT=2:4
INCH,TZ
;TYPE=PLATED
T1F00S00C0.0079
T2F00S00C0.0118
T3F00S00C0.0276
T4F00S00C0.0300
T5F00S00C0.0354
T6F00S00C0.0787
T7F00S00C0.1260
;TYPE=NON_PLATED
%
T01
X5748Y2856
X5453Y3348
X6043
X5748Y3841
X4803Y5344
X5000Y5719
X4606
X4803Y6093
T02
X4331Y591
X5807Y492
X6220Y965
X6969Y945
X7411Y935
X7372Y472
X8563Y492
X9350Y1378
X10335
X11260Y1024
X12205Y1378
X13189
X13622Y1024
X16457Y984
X17323
X20472Y886
X23228Y1083
X25689
X29331Y1575
X30512Y1378
X33809Y5049
X33711Y6112
X34291
X34872
X35453
X35866Y6457
Y7037
X35433Y4921
X35728Y3839
X37008Y4990
X37992Y2087
X32087Y2638
X31654Y3228
X31969Y3583
X32441Y3551
X31624Y5039
X31900Y6211
X31791Y6791
X29724Y4823
X29055Y3740
X28543
X29331Y3386
Y2756
X29921Y2165
X30512Y1870
X28642
X26220Y2835
X25433Y2244
X24803Y3248
X25098Y3642
X24803Y4035
X24961Y5668
X25315Y5945
X23858Y4961
X21654Y5020
X21339Y5512
X21181Y3701
X20512Y4173
X19587Y3150
X17480Y3898
X23327Y2657
X16831Y4626
X12835Y2598
X13228Y1811
X12441
X11654
X10866
X10079
X9291
X8898Y2598
X7677Y4094
X8829Y5709
X9449Y5610
X9193Y6850
X8366Y6496
X7293Y7116
X5433Y6890
Y6516
X4862Y4941
X3642Y5955
X2756Y7047
T03
X26218Y1612
X31732Y1496
X32352Y1161
X35433Y1142
X37244Y1220
X38504Y1732
X38819Y2402
X38641Y4389
X34624Y4921
X33948Y1999
X36063Y1890
X32185Y4429
X30848Y5728
X26575Y6398
X20354Y6496
X20571Y5512
X20413Y3465
X15177Y3740
X15571Y4429
X12736Y6004
X7972Y2430
T04
X34528Y6919
X30217Y4429
Y2854
T05
X3346Y1272
X36520Y6654
X37520
X38520
X2835Y4047
X1835
X3346Y2272
X835Y4047
T06
X18425Y5079
X17126Y5630
X15551Y5748
T07
X1575Y1575
Y5906
M30
