G04*
G04 #@! TF.GenerationSoftware,Altium Limited,Altium Designer,19.1.5 (86)*
G04*
G04 Layer_Color=65535*
%FSLAX25Y25*%
%MOIN*%
G70*
G01*
G75*
%ADD10C,0.01000*%
%ADD11C,0.01968*%
%ADD12C,0.00787*%
%ADD13C,0.00500*%
%ADD14C,0.00630*%
G36*
X352756Y26575D02*
Y22638D01*
X348819Y26575D01*
X352756D01*
D02*
G37*
D10*
X359112Y36311D02*
X358277Y36793D01*
Y35829D01*
X359112Y36311D01*
X269454Y26378D02*
X268619Y26860D01*
Y25896D01*
X269454Y26378D01*
X222072Y16339D02*
X221511Y17110D01*
X220603Y16816D01*
Y15861D01*
X221511Y15567D01*
X222072Y16339D01*
Y10433D02*
X221511Y11205D01*
X220603Y10910D01*
Y9956D01*
X221511Y9661D01*
X222072Y10433D01*
X323195Y57874D02*
X322359Y58356D01*
Y57392D01*
X323195Y57874D01*
X118110Y37402D02*
X117976Y38421D01*
X117583Y39370D01*
X116957Y40185D01*
X116142Y40811D01*
X115192Y41204D01*
X114173Y41339D01*
X113154Y41204D01*
X112205Y40811D01*
X111389Y40185D01*
X110764Y39370D01*
X110370Y38421D01*
X110236Y37402D01*
X125984D02*
X125850Y38421D01*
X125457Y39370D01*
X124831Y40185D01*
X124016Y40811D01*
X123066Y41204D01*
X122047Y41339D01*
X121028Y41204D01*
X120079Y40811D01*
X119263Y40185D01*
X118638Y39370D01*
X118244Y38421D01*
X118110Y37402D01*
X133858D02*
X133724Y38421D01*
X133331Y39370D01*
X132705Y40185D01*
X131890Y40811D01*
X130940Y41204D01*
X129921Y41339D01*
X128902Y41204D01*
X127953Y40811D01*
X127137Y40185D01*
X126512Y39370D01*
X126118Y38421D01*
X125984Y37402D01*
X82643Y27500D02*
X81808Y27982D01*
Y27018D01*
X82643Y27500D01*
X304366Y36417D02*
X304148Y37372D01*
X303538Y38138D01*
X302655Y38563D01*
X301676D01*
X300793Y38138D01*
X300183Y37372D01*
X299964Y36417D01*
X300183Y35462D01*
X300793Y34697D01*
X301676Y34272D01*
X302655D01*
X303538Y34697D01*
X304148Y35462D01*
X304366Y36417D01*
X319882D02*
X319853Y37420D01*
X319769Y38419D01*
X319627Y39411D01*
X319430Y40394D01*
X319177Y41365D01*
X318870Y42319D01*
X318509Y43255D01*
X318096Y44169D01*
X317632Y45058D01*
X317119Y45919D01*
X316557Y46749D01*
X315949Y47547D01*
X315298Y48309D01*
X314604Y49033D01*
X313870Y49717D01*
X313099Y50358D01*
X312293Y50954D01*
X311454Y51503D01*
X310586Y52005D01*
X309690Y52456D01*
X308771Y52856D01*
X307831Y53204D01*
X306872Y53497D01*
X305898Y53736D01*
X304912Y53920D01*
X303918Y54047D01*
X302917Y54118D01*
X301915Y54132D01*
X300913Y54089D01*
X299915Y53990D01*
X298924Y53835D01*
X297944Y53624D01*
X296978Y53357D01*
X296027Y53037D01*
X295097Y52663D01*
X294189Y52237D01*
X293307Y51760D01*
X292453Y51235D01*
X291631Y50661D01*
X290842Y50042D01*
X290089Y49380D01*
X289375Y48676D01*
X288702Y47933D01*
X288072Y47153D01*
X287487Y46338D01*
X286949Y45492D01*
X286460Y44616D01*
X286021Y43715D01*
X285634Y42790D01*
X285300Y41844D01*
X285020Y40881D01*
X284795Y39904D01*
X284626Y38916D01*
X284513Y37920D01*
X284456Y36919D01*
X284456Y35916D01*
X284513Y34915D01*
X284626Y33919D01*
X284795Y32930D01*
X285020Y31953D01*
X285300Y30990D01*
X285634Y30045D01*
X286021Y29120D01*
X286460Y28218D01*
X286949Y27343D01*
X287487Y26496D01*
X288072Y25682D01*
X288702Y24902D01*
X289375Y24159D01*
X290089Y23455D01*
X290842Y22792D01*
X291631Y22173D01*
X292453Y21600D01*
X293307Y21074D01*
X294189Y20598D01*
X295097Y20172D01*
X296027Y19798D01*
X296977Y19477D01*
X297944Y19211D01*
X298924Y19000D01*
X299915Y18844D01*
X300913Y18745D01*
X301915Y18702D01*
X302917Y18717D01*
X303917Y18788D01*
X304912Y18915D01*
X305898Y19098D01*
X306872Y19337D01*
X307831Y19631D01*
X308771Y19978D01*
X309690Y20378D01*
X310586Y20830D01*
X311454Y21331D01*
X312293Y21881D01*
X313099Y22477D01*
X313870Y23118D01*
X314604Y23801D01*
X315298Y24525D01*
X315950Y25288D01*
X316557Y26085D01*
X317119Y26916D01*
X317632Y27777D01*
X318096Y28666D01*
X318509Y29580D01*
X318870Y30515D01*
X319177Y31470D01*
X319430Y32440D01*
X319627Y33423D01*
X319769Y34416D01*
X319853Y35415D01*
X319882Y36417D01*
X213386Y20571D02*
X229134D01*
X213386Y6201D02*
X229134D01*
X221260Y16339D02*
Y20571D01*
Y6201D02*
Y10433D01*
X218307Y9449D02*
Y17323D01*
X216339Y15354D02*
X218307D01*
X216339Y11417D02*
Y15354D01*
Y11417D02*
X218307D01*
X281496Y44685D02*
Y50591D01*
X267717Y44685D02*
Y50591D01*
X97441Y12795D02*
X146653D01*
X97441Y62008D02*
X146653D01*
X97441Y45276D02*
Y62008D01*
Y12795D02*
Y29528D01*
X146653Y12795D02*
Y29528D01*
Y45276D02*
Y62008D01*
X106299Y37402D02*
X110236D01*
X133858D02*
X137795D01*
X203740Y12795D02*
Y63976D01*
X168307Y12795D02*
X193898D01*
X158465D02*
Y63976D01*
X203740D01*
X302165Y49213D02*
Y51181D01*
X301181Y50197D02*
X303150D01*
D11*
X110723Y45276D02*
X110283Y46038D01*
X109402D01*
X108962Y45276D01*
X109402Y44513D01*
X110283D01*
X110723Y45276D01*
D12*
X73100Y28917D02*
X72734Y29801D01*
X71850Y30167D01*
X70967Y29801D01*
X70600Y28917D01*
X361311Y37492D02*
X362492Y38673D01*
X364067D01*
X376665D02*
X379421D01*
Y35917D02*
Y38673D01*
Y20563D02*
Y23319D01*
X376665Y20563D02*
X379421D01*
X361311D02*
X364067D01*
X361311D02*
Y23319D01*
Y35917D02*
Y37492D01*
X266929Y25591D02*
Y27362D01*
Y43504D02*
Y46457D01*
X263976D02*
X266929D01*
X244882D02*
X247835D01*
X244882Y43504D02*
Y46457D01*
Y24409D02*
Y27362D01*
Y24409D02*
X247835D01*
X263976D02*
X265748D01*
X266929Y25591D01*
X315158Y59350D02*
X320669D01*
X315158D02*
Y70571D01*
X320669D01*
Y59350D02*
Y70571D01*
X73100Y28917D02*
X79331D01*
X64370D02*
X70600D01*
X64370D02*
Y48760D01*
X79331D01*
Y28917D02*
Y48760D01*
X352756Y12008D02*
Y26575D01*
X326378Y12008D02*
X352756D01*
X326378D02*
Y26575D01*
X352756D01*
X360197Y61535D02*
X390197D01*
Y71535D01*
X360197D02*
X390197D01*
X360197Y61535D02*
Y71535D01*
X4685Y35354D02*
X34685D01*
Y45354D01*
X4685D02*
X34685D01*
X4685Y35354D02*
Y45354D01*
D13*
X253642Y14370D02*
X254429Y15157D01*
X258169D01*
X254232Y14961D02*
X254921Y15650D01*
X257677D02*
X258268Y15059D01*
X258169Y15157D02*
X258957Y14370D01*
Y10827D02*
Y14370D01*
X253642Y10827D02*
Y14370D01*
Y2953D02*
X258957D01*
Y7283D01*
X253642Y2953D02*
Y7283D01*
X254921Y15650D02*
X257677D01*
X259941Y14370D02*
X260728Y15157D01*
X264469D01*
X260531Y14961D02*
X261221Y15650D01*
X263976D02*
X264567Y15059D01*
X264469Y15157D02*
X265256Y14370D01*
Y10827D02*
Y14370D01*
X259941Y10827D02*
Y14370D01*
Y2953D02*
X265256D01*
Y7283D01*
X259941Y2953D02*
Y7283D01*
X261221Y15650D02*
X263976D01*
X235630Y70374D02*
X236417Y69587D01*
Y65847D02*
Y69587D01*
X236221Y69784D02*
X236910Y69095D01*
X236319Y65748D02*
X236910Y66339D01*
X235630Y65059D02*
X236417Y65847D01*
X232087Y65059D02*
X235630D01*
X232087Y70374D02*
X235630D01*
X224213Y65059D02*
Y70374D01*
Y65059D02*
X228543D01*
X224213Y70374D02*
X228543D01*
X236910Y66339D02*
Y69095D01*
X44063Y34295D02*
X48063D01*
X44163Y41295D02*
X47963D01*
X73984Y69248D02*
X77984D01*
X74084Y62248D02*
X77884D01*
X46020Y57449D02*
Y61449D01*
X39020Y57549D02*
Y61349D01*
X62567Y59012D02*
X66567D01*
X62667Y52012D02*
X66467D01*
X54693Y67673D02*
X58693D01*
X54793Y60673D02*
X58593D01*
X48075Y9811D02*
Y13811D01*
X55075Y9911D02*
Y13711D01*
X46413Y9811D02*
Y13811D01*
X39413Y9911D02*
Y13711D01*
X356736Y47213D02*
Y51213D01*
X363736Y47313D02*
Y51113D01*
X366579Y48197D02*
Y52197D01*
X373579Y48297D02*
Y52097D01*
X261779Y71610D02*
X265779D01*
X261879Y64610D02*
X265680D01*
X231846Y51150D02*
Y55150D01*
X224847Y51250D02*
Y55050D01*
X279496Y10193D02*
X283496D01*
X279596Y3193D02*
X283396D01*
X212567Y51728D02*
X216567D01*
X212667Y44728D02*
X216467D01*
X292760Y61976D02*
Y65976D01*
X299760Y62076D02*
Y65876D01*
X301937Y17673D02*
X305937D01*
X302037Y10673D02*
X305837D01*
X290902Y61976D02*
Y65976D01*
X283902Y62076D02*
Y65876D01*
X212567Y61571D02*
X216567D01*
X212667Y54571D02*
X216467D01*
X44744Y21022D02*
Y23522D01*
X49744Y26022D02*
Y27522D01*
X44744Y30022D02*
Y32522D01*
Y21022D02*
X48244D01*
X44744Y32522D02*
X48244D01*
X28543Y7795D02*
X38386D01*
X28543D02*
Y27638D01*
X38386Y7795D02*
Y27638D01*
X28543D02*
X38386D01*
X246894Y59154D02*
X248394Y57654D01*
X252394D01*
X253894Y59154D01*
Y68604D02*
Y72604D01*
Y59154D02*
Y61604D01*
X246894Y68604D02*
Y72604D01*
X253894D01*
X246894Y59154D02*
Y61604D01*
X247994Y58054D02*
X252794D01*
X301618Y58761D02*
X303118Y57261D01*
X307118D01*
X308618Y58761D01*
Y68211D02*
Y72211D01*
Y58761D02*
Y61211D01*
X301618Y68211D02*
Y72211D01*
X308618D01*
X301618Y58761D02*
Y61211D01*
X302718Y57661D02*
X307518D01*
X281790Y18154D02*
X283291Y19654D01*
Y23653D01*
X281790Y25153D02*
X283291Y23653D01*
X268340Y25153D02*
X272340D01*
X279341D02*
X281790D01*
X268340Y18154D02*
X272340D01*
X268340D02*
Y25153D01*
X279341Y18154D02*
X281790D01*
X282891Y19253D02*
Y24054D01*
X207654Y68929D02*
X209154Y70429D01*
X207654Y64929D02*
Y68929D01*
Y64929D02*
X209154Y63429D01*
X218604D02*
X222604D01*
X209154D02*
X211604D01*
X218604Y70429D02*
X222604D01*
Y63429D02*
Y70429D01*
X209154D02*
X211604D01*
X208054Y64529D02*
Y69329D01*
X86221Y18204D02*
Y25103D01*
X83071Y18204D02*
Y25103D01*
X86221Y9346D02*
Y16245D01*
X83071Y9346D02*
Y16245D01*
X148125Y53543D02*
X155024D01*
X148125Y56693D02*
X155024D01*
X148125Y22244D02*
X155024D01*
X148125Y19094D02*
X155024D01*
X327259Y43701D02*
X334158D01*
X327259Y46850D02*
X334158D01*
X343898Y38283D02*
Y45182D01*
X347047Y38283D02*
Y45182D01*
X65940Y20274D02*
X71068D01*
X65940Y19096D02*
X71068D01*
X48617Y52954D02*
X53745D01*
X48617Y54132D02*
X53745D01*
X58460Y20274D02*
X63587D01*
X58460Y19096D02*
X63587D01*
X363191Y9641D02*
Y14769D01*
X364369Y9641D02*
Y14769D01*
X376373Y47639D02*
X381501D01*
X376373Y48817D02*
X381501D01*
X384053Y9641D02*
Y14769D01*
X382876Y9641D02*
Y14769D01*
X328145Y65550D02*
X333272D01*
X328145Y64372D02*
X333272D01*
X382082Y29723D02*
X387210D01*
X382082Y28545D02*
X387210D01*
X230901Y35238D02*
X236028D01*
X230901Y36416D02*
X236028D01*
X275979Y31891D02*
X281107D01*
X275979Y33069D02*
X281107D01*
D14*
X235433Y12991D02*
Y10892D01*
X236483Y9843D01*
X237532Y10892D01*
Y12991D01*
X238582Y9843D02*
X239631D01*
X239106D01*
Y11942D01*
X238582D01*
X241206Y9843D02*
Y11942D01*
X242780D01*
X243305Y11417D01*
Y9843D01*
X206693Y32283D02*
Y35432D01*
X208267D01*
X208792Y34907D01*
Y33858D01*
X208267Y33333D01*
X206693D01*
X207742D02*
X208792Y32283D01*
X211941Y34907D02*
X211416Y35432D01*
X210366D01*
X209841Y34907D01*
Y34383D01*
X210366Y33858D01*
X211416D01*
X211941Y33333D01*
Y32808D01*
X211416Y32283D01*
X210366D01*
X209841Y32808D01*
X212990Y35432D02*
X215089D01*
X214040D01*
Y32283D01*
X241207Y40814D02*
X241731Y41339D01*
Y42389D01*
X241207Y42913D01*
X240682D01*
X240157Y42389D01*
Y41339D01*
X239632Y40814D01*
X239107D01*
X238583Y41339D01*
Y42389D01*
X239107Y42913D01*
X241207Y37666D02*
X241731Y38190D01*
Y39240D01*
X241207Y39765D01*
X239107D01*
X238583Y39240D01*
Y38190D01*
X239107Y37666D01*
X241731Y36616D02*
X238583D01*
X239632D01*
X241731Y34517D01*
X240157Y36091D01*
X238583Y34517D01*
X232677Y59842D02*
Y62991D01*
X233727Y61942D01*
X234776Y62991D01*
Y59842D01*
X235826Y62991D02*
X236875D01*
X236350D01*
Y59842D01*
X235826D01*
X236875D01*
X240549Y62466D02*
X240024Y62991D01*
X238974D01*
X238450Y62466D01*
Y61942D01*
X238974Y61417D01*
X240024D01*
X240549Y60892D01*
Y60367D01*
X240024Y59842D01*
X238974D01*
X238450Y60367D01*
X243173Y62991D02*
X242123D01*
X241598Y62466D01*
Y60367D01*
X242123Y59842D01*
X243173D01*
X243697Y60367D01*
Y62466D01*
X243173Y62991D01*
X249213Y51181D02*
Y54330D01*
X250262Y53280D01*
X251312Y54330D01*
Y51181D01*
X253936Y54330D02*
X252886D01*
X252361Y53805D01*
Y51706D01*
X252886Y51181D01*
X253936D01*
X254460Y51706D01*
Y53805D01*
X253936Y54330D01*
X257609Y53805D02*
X257084Y54330D01*
X256034D01*
X255510Y53805D01*
Y53280D01*
X256034Y52755D01*
X257084D01*
X257609Y52231D01*
Y51706D01*
X257084Y51181D01*
X256034D01*
X255510Y51706D01*
X258658Y54330D02*
X259708D01*
X259183D01*
Y51181D01*
X258658D01*
X259708D01*
X178280Y10038D02*
X177231D01*
X177755D01*
Y7414D01*
X177231Y6890D01*
X176706D01*
X176181Y7414D01*
X179330Y6890D02*
X180379D01*
X179855D01*
Y10038D01*
X179330Y9514D01*
X244881Y71260D02*
X241732D01*
Y69686D01*
X242257Y69161D01*
X244356D01*
X244881Y69686D01*
Y71260D01*
Y66012D02*
Y68111D01*
X243307D01*
X243831Y67062D01*
Y66537D01*
X243307Y66012D01*
X242257D01*
X241732Y66537D01*
Y67586D01*
X242257Y68111D01*
X264567Y57086D02*
X266666Y53937D01*
Y57086D02*
X264567Y53937D01*
X269815D02*
X267716D01*
X269815Y56036D01*
Y56561D01*
X269290Y57086D01*
X268240D01*
X267716Y56561D01*
X243307Y21653D02*
Y19029D01*
X243832Y18504D01*
X244881D01*
X245406Y19029D01*
Y21653D01*
X246456Y18504D02*
X247505D01*
X246981D01*
Y21653D01*
X246456Y21128D01*
X249079Y18504D02*
X250129D01*
X249604D01*
Y21653D01*
X249079Y21128D01*
X314173Y57086D02*
Y54462D01*
X314698Y53937D01*
X315747D01*
X316272Y54462D01*
Y57086D01*
X317322Y56561D02*
X317847Y57086D01*
X318896D01*
X319421Y56561D01*
Y56036D01*
X318896Y55511D01*
X319421Y54987D01*
Y54462D01*
X318896Y53937D01*
X317847D01*
X317322Y54462D01*
Y54987D01*
X317847Y55511D01*
X317322Y56036D01*
Y56561D01*
X317847Y55511D02*
X318896D01*
X324803Y7873D02*
Y5249D01*
X325328Y4724D01*
X326377D01*
X326902Y5249D01*
Y7873D01*
X327952D02*
X330051D01*
Y7348D01*
X327952Y5249D01*
Y4724D01*
X353150Y33463D02*
Y30840D01*
X353674Y30315D01*
X354724D01*
X355249Y30840D01*
Y33463D01*
X358397D02*
X357348Y32939D01*
X356298Y31889D01*
Y30840D01*
X356823Y30315D01*
X357873D01*
X358397Y30840D01*
Y31365D01*
X357873Y31889D01*
X356298D01*
X81693Y52361D02*
Y49737D01*
X82218Y49213D01*
X83267D01*
X83792Y49737D01*
Y52361D01*
X86941D02*
X84842D01*
Y50787D01*
X85891Y51312D01*
X86416D01*
X86941Y50787D01*
Y49737D01*
X86416Y49213D01*
X85366D01*
X84842Y49737D01*
X152756Y44882D02*
X155904Y44882D01*
Y43308D01*
X155380Y42783D01*
X154330Y42783D01*
X153805Y43308D01*
Y44882D01*
X155904Y41733D02*
X152756Y41733D01*
X153805Y40684D01*
X152756Y39634D01*
X155904Y39634D01*
X152756Y38585D02*
X155904Y38585D01*
Y37010D01*
X155380Y36486D01*
X154330Y36486D01*
X153805Y37010D01*
Y38585D01*
Y37535D02*
X152756Y36486D01*
X158201Y71128D02*
X157677Y71653D01*
X156627D01*
X156102Y71128D01*
Y69029D01*
X156627Y68504D01*
X157677D01*
X158201Y69029D01*
X159251Y71653D02*
Y68504D01*
Y70078D01*
X161350D01*
Y71653D01*
Y68504D01*
X17717Y33070D02*
Y29921D01*
X19291D01*
X19816Y30446D01*
Y30971D01*
X19291Y31496D01*
X17717D01*
X19291D01*
X19816Y32020D01*
Y32545D01*
X19291Y33070D01*
X17717D01*
X20865Y29921D02*
Y33070D01*
X21915Y32020D01*
X22964Y33070D01*
Y29921D01*
X8268Y33070D02*
Y29921D01*
X9842D01*
X10367Y30446D01*
Y30971D01*
X9842Y31496D01*
X8268D01*
X9842D01*
X10367Y32020D01*
Y32545D01*
X9842Y33070D01*
X8268D01*
X11416Y31496D02*
X13515D01*
X28937Y33070D02*
Y29921D01*
X30511D01*
X31036Y30446D01*
Y30971D01*
X30511Y31496D01*
X28937D01*
X30511D01*
X31036Y32020D01*
Y32545D01*
X30511Y33070D01*
X28937D01*
X32086Y31496D02*
X34185D01*
X33135Y32545D02*
Y30446D01*
X275721Y41731D02*
X273622D01*
Y40157D01*
X274672Y40682D01*
X275196D01*
X275721Y40157D01*
Y39107D01*
X275196Y38583D01*
X274147D01*
X273622Y39107D01*
X276771Y41731D02*
Y39632D01*
X277820Y38583D01*
X278870Y39632D01*
Y41731D01*
X314961Y20734D02*
X315485Y21259D01*
X316535D01*
X317060Y20734D01*
Y20209D01*
X316535Y19684D01*
X316010D01*
X316535D01*
X317060Y19160D01*
Y18635D01*
X316535Y18110D01*
X315485D01*
X314961Y18635D01*
X318109Y21259D02*
Y19160D01*
X319159Y18110D01*
X320208Y19160D01*
Y21259D01*
X321258Y20734D02*
X321783Y21259D01*
X322832D01*
X323357Y20734D01*
Y20209D01*
X322832Y19684D01*
X322307D01*
X322832D01*
X323357Y19160D01*
Y18635D01*
X322832Y18110D01*
X321783D01*
X321258Y18635D01*
X192126Y58268D02*
Y61416D01*
X193700D01*
X194225Y60891D01*
Y59842D01*
X193700Y59317D01*
X192126D01*
X193175D02*
X194225Y58268D01*
X195275Y60891D02*
X195799Y61416D01*
X196849D01*
X197374Y60891D01*
Y60367D01*
X196849Y59842D01*
X196324D01*
X196849D01*
X197374Y59317D01*
Y58793D01*
X196849Y58268D01*
X195799D01*
X195275Y58793D01*
X200522Y58268D02*
X198423D01*
X200522Y60367D01*
Y60891D01*
X199997Y61416D01*
X198948D01*
X198423Y60891D01*
X272835Y69291D02*
Y72440D01*
X274409D01*
X274934Y71915D01*
Y70866D01*
X274409Y70341D01*
X272835D01*
X273884D02*
X274934Y69291D01*
X275983Y71915D02*
X276508Y72440D01*
X277557D01*
X278082Y71915D01*
Y71390D01*
X277557Y70866D01*
X277033D01*
X277557D01*
X278082Y70341D01*
Y69816D01*
X277557Y69291D01*
X276508D01*
X275983Y69816D01*
X279132Y71915D02*
X279657Y72440D01*
X280706D01*
X281231Y71915D01*
Y69816D01*
X280706Y69291D01*
X279657D01*
X279132Y69816D01*
Y71915D01*
X307087Y5906D02*
Y9054D01*
X308661D01*
X309186Y8529D01*
Y7480D01*
X308661Y6955D01*
X307087D01*
X308136D02*
X309186Y5906D01*
X312334D02*
X310235D01*
X312334Y8005D01*
Y8529D01*
X311809Y9054D01*
X310760D01*
X310235Y8529D01*
X313384Y6430D02*
X313909Y5906D01*
X314958D01*
X315483Y6430D01*
Y8529D01*
X314958Y9054D01*
X313909D01*
X313384Y8529D01*
Y8005D01*
X313909Y7480D01*
X315483D01*
X272835Y62992D02*
Y66141D01*
X274409D01*
X274934Y65616D01*
Y64566D01*
X274409Y64042D01*
X272835D01*
X273884D02*
X274934Y62992D01*
X278082D02*
X275983D01*
X278082Y65091D01*
Y65616D01*
X277557Y66141D01*
X276508D01*
X275983Y65616D01*
X279132D02*
X279657Y66141D01*
X280706D01*
X281231Y65616D01*
Y65091D01*
X280706Y64566D01*
X281231Y64042D01*
Y63517D01*
X280706Y62992D01*
X279657D01*
X279132Y63517D01*
Y64042D01*
X279657Y64566D01*
X279132Y65091D01*
Y65616D01*
X279657Y64566D02*
X280706D01*
X205906Y39370D02*
Y42519D01*
X207480D01*
X208005Y41994D01*
Y40944D01*
X207480Y40420D01*
X205906D01*
X206955D02*
X208005Y39370D01*
X211153D02*
X209054D01*
X211153Y41469D01*
Y41994D01*
X210628Y42519D01*
X209579D01*
X209054Y41994D01*
X214302Y42519D02*
X213252Y41994D01*
X212203Y40944D01*
Y39895D01*
X212727Y39370D01*
X213777D01*
X214302Y39895D01*
Y40420D01*
X213777Y40944D01*
X212203D01*
X273228Y12992D02*
Y16141D01*
X274803D01*
X275327Y15616D01*
Y14566D01*
X274803Y14042D01*
X273228D01*
X274278D02*
X275327Y12992D01*
X278476D02*
X276377D01*
X278476Y15091D01*
Y15616D01*
X277951Y16141D01*
X276902D01*
X276377Y15616D01*
X281625Y16141D02*
X279525D01*
Y14566D01*
X280575Y15091D01*
X281100D01*
X281625Y14566D01*
Y13517D01*
X281100Y12992D01*
X280050D01*
X279525Y13517D01*
X219291Y39370D02*
Y42519D01*
X220866D01*
X221390Y41994D01*
Y40944D01*
X220866Y40420D01*
X219291D01*
X220341D02*
X221390Y39370D01*
X224539D02*
X222440D01*
X224539Y41469D01*
Y41994D01*
X224014Y42519D01*
X222965D01*
X222440Y41994D01*
X227163Y39370D02*
Y42519D01*
X225588Y40944D01*
X227688D01*
X261024Y59449D02*
Y62597D01*
X262598D01*
X263123Y62073D01*
Y61023D01*
X262598Y60498D01*
X261024D01*
X262073D02*
X263123Y59449D01*
X266271D02*
X264172D01*
X266271Y61548D01*
Y62073D01*
X265746Y62597D01*
X264697D01*
X264172Y62073D01*
X267321D02*
X267846Y62597D01*
X268895D01*
X269420Y62073D01*
Y61548D01*
X268895Y61023D01*
X268370D01*
X268895D01*
X269420Y60498D01*
Y59974D01*
X268895Y59449D01*
X267846D01*
X267321Y59974D01*
X375000Y55118D02*
Y58267D01*
X376574D01*
X377099Y57742D01*
Y56692D01*
X376574Y56168D01*
X375000D01*
X376049D02*
X377099Y55118D01*
X380248D02*
X378149D01*
X380248Y57217D01*
Y57742D01*
X379723Y58267D01*
X378673D01*
X378149Y57742D01*
X383396Y55118D02*
X381297D01*
X383396Y57217D01*
Y57742D01*
X382872Y58267D01*
X381822D01*
X381297Y57742D01*
X346850Y54331D02*
Y57479D01*
X348425D01*
X348949Y56954D01*
Y55905D01*
X348425Y55380D01*
X346850D01*
X347900D02*
X348949Y54331D01*
X352098D02*
X349999D01*
X352098Y56430D01*
Y56954D01*
X351573Y57479D01*
X350524D01*
X349999Y56954D01*
X353148Y54331D02*
X354197D01*
X353672D01*
Y57479D01*
X353148Y56954D01*
X28740Y2362D02*
Y5511D01*
X30314D01*
X30839Y4986D01*
Y3937D01*
X30314Y3412D01*
X28740D01*
X29790D02*
X30839Y2362D01*
X33988D02*
X31889D01*
X33988Y4461D01*
Y4986D01*
X33463Y5511D01*
X32414D01*
X31889Y4986D01*
X35037D02*
X35562Y5511D01*
X36612D01*
X37136Y4986D01*
Y2887D01*
X36612Y2362D01*
X35562D01*
X35037Y2887D01*
Y4986D01*
X60039Y2953D02*
Y6101D01*
X61614D01*
X62138Y5577D01*
Y4527D01*
X61614Y4002D01*
X60039D01*
X61089D02*
X62138Y2953D01*
X63188D02*
X64237D01*
X63713D01*
Y6101D01*
X63188Y5577D01*
X65812Y3478D02*
X66337Y2953D01*
X67386D01*
X67911Y3478D01*
Y5577D01*
X67386Y6101D01*
X66337D01*
X65812Y5577D01*
Y5052D01*
X66337Y4527D01*
X67911D01*
X48425Y69291D02*
Y72440D01*
X49999D01*
X50524Y71915D01*
Y70866D01*
X49999Y70341D01*
X48425D01*
X49475D02*
X50524Y69291D01*
X51574D02*
X52623D01*
X52099D01*
Y72440D01*
X51574Y71915D01*
X54198D02*
X54722Y72440D01*
X55772D01*
X56297Y71915D01*
Y71390D01*
X55772Y70866D01*
X56297Y70341D01*
Y69816D01*
X55772Y69291D01*
X54722D01*
X54198Y69816D01*
Y70341D01*
X54722Y70866D01*
X54198Y71390D01*
Y71915D01*
X54722Y70866D02*
X55772D01*
X74410Y57087D02*
Y60235D01*
X75984D01*
X76508Y59710D01*
Y58661D01*
X75984Y58136D01*
X74410D01*
X75459D02*
X76508Y57087D01*
X77558D02*
X78608D01*
X78083D01*
Y60235D01*
X77558Y59710D01*
X80182Y60235D02*
X82281D01*
Y59710D01*
X80182Y57611D01*
Y57087D01*
X36220Y69291D02*
Y72440D01*
X37795D01*
X38320Y71915D01*
Y70866D01*
X37795Y70341D01*
X36220D01*
X37270D02*
X38320Y69291D01*
X39369D02*
X40419D01*
X39894D01*
Y72440D01*
X39369Y71915D01*
X44092Y72440D02*
X41993D01*
Y70866D01*
X43042Y71390D01*
X43567D01*
X44092Y70866D01*
Y69816D01*
X43567Y69291D01*
X42518D01*
X41993Y69816D01*
X85433Y66142D02*
Y69290D01*
X87007D01*
X87532Y68766D01*
Y67716D01*
X87007Y67191D01*
X85433D01*
X86483D02*
X87532Y66142D01*
X88582D02*
X89631D01*
X89106D01*
Y69290D01*
X88582Y68766D01*
X92780Y66142D02*
Y69290D01*
X91206Y67716D01*
X93305D01*
X36614Y42913D02*
Y46062D01*
X38188D01*
X38713Y45537D01*
Y44488D01*
X38188Y43963D01*
X36614D01*
X37664D02*
X38713Y42913D01*
X39763D02*
X40812D01*
X40288D01*
Y46062D01*
X39763Y45537D01*
X42387D02*
X42911Y46062D01*
X43961D01*
X44486Y45537D01*
Y45013D01*
X43961Y44488D01*
X43436D01*
X43961D01*
X44486Y43963D01*
Y43438D01*
X43961Y42913D01*
X42911D01*
X42387Y43438D01*
X38189Y29528D02*
Y32676D01*
X39239Y31627D01*
X40288Y32676D01*
Y29528D01*
X41338D02*
X42387D01*
X41862D01*
Y32676D01*
X41338Y32151D01*
X122047Y10038D02*
Y6890D01*
X124146D01*
X125196D02*
X126245D01*
X125721D01*
Y10038D01*
X125196Y9514D01*
X200787Y73031D02*
Y69882D01*
X202362D01*
X202887Y70407D01*
Y72506D01*
X202362Y73031D01*
X200787D01*
X203936Y70407D02*
X204461Y69882D01*
X205510D01*
X206035Y70407D01*
Y72506D01*
X205510Y73031D01*
X204461D01*
X203936Y72506D01*
Y71981D01*
X204461Y71456D01*
X206035D01*
X261024Y21653D02*
Y18504D01*
X262598D01*
X263123Y19029D01*
Y21128D01*
X262598Y21653D01*
X261024D01*
X264172D02*
X266271D01*
Y21128D01*
X264172Y19029D01*
Y18504D01*
X272441Y59842D02*
Y56693D01*
X274015D01*
X274540Y57218D01*
Y59317D01*
X274015Y59842D01*
X272441D01*
X277689D02*
X276639Y59317D01*
X275589Y58267D01*
Y57218D01*
X276114Y56693D01*
X277164D01*
X277689Y57218D01*
Y57742D01*
X277164Y58267D01*
X275589D01*
X270078Y7480D02*
X266929D01*
Y5906D01*
X267454Y5381D01*
X269553D01*
X270078Y5906D01*
Y7480D01*
X266929Y2757D02*
X270078D01*
X268503Y4332D01*
Y2233D01*
X251574Y7480D02*
X248425D01*
Y5906D01*
X248950Y5381D01*
X251049D01*
X251574Y5906D01*
Y7480D01*
X251049Y4332D02*
X251574Y3807D01*
Y2757D01*
X251049Y2233D01*
X250524D01*
X249999Y2757D01*
Y3282D01*
Y2757D01*
X249475Y2233D01*
X248950D01*
X248425Y2757D01*
Y3807D01*
X248950Y4332D01*
X258660Y63386D02*
X255512D01*
Y61812D01*
X256037Y61287D01*
X258136D01*
X258660Y61812D01*
Y63386D01*
X255512Y58138D02*
Y60237D01*
X257611Y58138D01*
X258136D01*
X258660Y58663D01*
Y59712D01*
X258136Y60237D01*
X273490Y34515D02*
X274015Y35040D01*
Y36089D01*
X273490Y36614D01*
X271391D01*
X270866Y36089D01*
Y35040D01*
X271391Y34515D01*
X270866Y31367D02*
Y33466D01*
X272965Y31367D01*
X273490D01*
X274015Y31891D01*
Y32941D01*
X273490Y33466D01*
X271391Y30317D02*
X270866Y29792D01*
Y28743D01*
X271391Y28218D01*
X273490D01*
X274015Y28743D01*
Y29792D01*
X273490Y30317D01*
X272965D01*
X272440Y29792D01*
Y28218D01*
X230839Y28214D02*
X230314Y28739D01*
X229265D01*
X228740Y28214D01*
Y26115D01*
X229265Y25591D01*
X230314D01*
X230839Y26115D01*
X233988Y25591D02*
X231889D01*
X233988Y27690D01*
Y28214D01*
X233463Y28739D01*
X232414D01*
X231889Y28214D01*
X235037D02*
X235562Y28739D01*
X236612D01*
X237136Y28214D01*
Y27690D01*
X236612Y27165D01*
X237136Y26640D01*
Y26115D01*
X236612Y25591D01*
X235562D01*
X235037Y26115D01*
Y26640D01*
X235562Y27165D01*
X235037Y27690D01*
Y28214D01*
X235562Y27165D02*
X236612D01*
X383595Y39238D02*
X383070Y39763D01*
X382021D01*
X381496Y39238D01*
Y37139D01*
X382021Y36614D01*
X383070D01*
X383595Y37139D01*
X386744Y36614D02*
X384645D01*
X386744Y38713D01*
Y39238D01*
X386219Y39763D01*
X385169D01*
X384645Y39238D01*
X389892Y36614D02*
X387793D01*
X389892Y38713D01*
Y39238D01*
X389368Y39763D01*
X388318D01*
X387793Y39238D01*
X328477Y57348D02*
X327952Y57873D01*
X326903D01*
X326378Y57348D01*
Y55249D01*
X326903Y54724D01*
X327952D01*
X328477Y55249D01*
X331626Y54724D02*
X329526D01*
X331626Y56823D01*
Y57348D01*
X331101Y57873D01*
X330051D01*
X329526Y57348D01*
X332675Y54724D02*
X333725D01*
X333200D01*
Y57873D01*
X332675Y57348D01*
X380839Y6167D02*
X380314Y6692D01*
X379265D01*
X378740Y6167D01*
Y4068D01*
X379265Y3543D01*
X380314D01*
X380839Y4068D01*
X383988Y3543D02*
X381889D01*
X383988Y5642D01*
Y6167D01*
X383463Y6692D01*
X382414D01*
X381889Y6167D01*
X385037D02*
X385562Y6692D01*
X386612D01*
X387136Y6167D01*
Y4068D01*
X386612Y3543D01*
X385562D01*
X385037Y4068D01*
Y6167D01*
X390025Y53806D02*
X390550Y54331D01*
Y55381D01*
X390025Y55905D01*
X387926D01*
X387402Y55381D01*
Y54331D01*
X387926Y53806D01*
X387402Y52757D02*
Y51707D01*
Y52232D01*
X390550D01*
X390025Y52757D01*
X387926Y50133D02*
X387402Y49608D01*
Y48559D01*
X387926Y48034D01*
X390025D01*
X390550Y48559D01*
Y49608D01*
X390025Y50133D01*
X389501D01*
X388976Y49608D01*
Y48034D01*
X342781Y53413D02*
X343306Y53938D01*
Y54987D01*
X342781Y55512D01*
X340682D01*
X340158Y54987D01*
Y53938D01*
X340682Y53413D01*
X340158Y52363D02*
Y51314D01*
Y51838D01*
X343306D01*
X342781Y52363D01*
Y49739D02*
X343306Y49215D01*
Y48165D01*
X342781Y47640D01*
X342256D01*
X341732Y48165D01*
X341207Y47640D01*
X340682D01*
X340158Y48165D01*
Y49215D01*
X340682Y49739D01*
X341207D01*
X341732Y49215D01*
X342256Y49739D01*
X342781D01*
X341732Y49215D02*
Y48165D01*
X325065Y39239D02*
X325589Y39764D01*
Y40814D01*
X325065Y41339D01*
X322966D01*
X322441Y40814D01*
Y39764D01*
X322966Y39239D01*
X322441Y38190D02*
Y37141D01*
Y37665D01*
X325589D01*
X325065Y38190D01*
X325589Y35566D02*
Y33467D01*
X325065D01*
X322966Y35566D01*
X322441D01*
X359579Y6167D02*
X359055Y6692D01*
X358005D01*
X357480Y6167D01*
Y4068D01*
X358005Y3543D01*
X359055D01*
X359579Y4068D01*
X360629Y3543D02*
X361678D01*
X361154D01*
Y6692D01*
X360629Y6167D01*
X365352Y6692D02*
X364302Y6167D01*
X363253Y5118D01*
Y4068D01*
X363777Y3543D01*
X364827D01*
X365352Y4068D01*
Y4593D01*
X364827Y5118D01*
X363253D01*
X58792Y12466D02*
X58267Y12991D01*
X57218D01*
X56693Y12466D01*
Y10367D01*
X57218Y9843D01*
X58267D01*
X58792Y10367D01*
X59842Y9843D02*
X60891D01*
X60366D01*
Y12991D01*
X59842Y12466D01*
X64564Y12991D02*
X62465D01*
Y11417D01*
X63515Y11942D01*
X64040D01*
X64564Y11417D01*
Y10367D01*
X64040Y9843D01*
X62990D01*
X62465Y10367D01*
X149737Y10301D02*
X149212Y10826D01*
X148163D01*
X147638Y10301D01*
Y8202D01*
X148163Y7677D01*
X149212D01*
X149737Y8202D01*
X150786Y7677D02*
X151836D01*
X151311D01*
Y10826D01*
X150786Y10301D01*
X154984Y7677D02*
Y10826D01*
X153410Y9251D01*
X155509D01*
X147768Y66994D02*
X147244Y67519D01*
X146194D01*
X145669Y66994D01*
Y64895D01*
X146194Y64370D01*
X147244D01*
X147768Y64895D01*
X148818Y64370D02*
X149867D01*
X149343D01*
Y67519D01*
X148818Y66994D01*
X151442D02*
X151967Y67519D01*
X153016D01*
X153541Y66994D01*
Y66469D01*
X153016Y65944D01*
X152491D01*
X153016D01*
X153541Y65420D01*
Y64895D01*
X153016Y64370D01*
X151967D01*
X151442Y64895D01*
X49343Y46325D02*
X48818Y46849D01*
X47769D01*
X47244Y46325D01*
Y44226D01*
X47769Y43701D01*
X48818D01*
X49343Y44226D01*
X50393Y43701D02*
X51442D01*
X50918D01*
Y46849D01*
X50393Y46325D01*
X55116Y43701D02*
X53017D01*
X55116Y45800D01*
Y46325D01*
X54591Y46849D01*
X53541D01*
X53017Y46325D01*
X89697Y6561D02*
X89173Y7086D01*
X88123D01*
X87598Y6561D01*
Y4462D01*
X88123Y3937D01*
X89173D01*
X89697Y4462D01*
X90747Y3937D02*
X91797D01*
X91272D01*
Y7086D01*
X90747Y6561D01*
X93371Y3937D02*
X94420D01*
X93896D01*
Y7086D01*
X93371Y6561D01*
X88713Y29199D02*
X88188Y29723D01*
X87139D01*
X86614Y29199D01*
Y27100D01*
X87139Y26575D01*
X88188D01*
X88713Y27100D01*
X89763Y26575D02*
X90812D01*
X90288D01*
Y29723D01*
X89763Y29199D01*
X92387D02*
X92911Y29723D01*
X93961D01*
X94486Y29199D01*
Y27100D01*
X93961Y26575D01*
X92911D01*
X92387Y27100D01*
Y29199D01*
X69422Y12466D02*
X68897Y12991D01*
X67848D01*
X67323Y12466D01*
Y10367D01*
X67848Y9843D01*
X68897D01*
X69422Y10367D01*
X70471Y12466D02*
X70996Y12991D01*
X72046D01*
X72571Y12466D01*
Y11942D01*
X72046Y11417D01*
X72571Y10892D01*
Y10367D01*
X72046Y9843D01*
X70996D01*
X70471Y10367D01*
Y10892D01*
X70996Y11417D01*
X70471Y11942D01*
Y12466D01*
X70996Y11417D02*
X72046D01*
X306693Y37794D02*
Y34646D01*
X308267D01*
X308792Y35170D01*
Y35695D01*
X308267Y36220D01*
X306693D01*
X308267D01*
X308792Y36745D01*
Y37269D01*
X308267Y37794D01*
X306693D01*
X309841D02*
X311941D01*
Y37269D01*
X309841Y35170D01*
Y34646D01*
X311941D01*
X312990D02*
X314040D01*
X313515D01*
Y37794D01*
X312990Y37269D01*
M02*
