G04*
G04 #@! TF.GenerationSoftware,Altium Limited,Altium Designer,19.1.5 (86)*
G04*
G04 Layer_Physical_Order=4*
G04 Layer_Color=16711680*
%FSLAX25Y25*%
%MOIN*%
G70*
G01*
G75*
%ADD10C,0.01000*%
G04:AMPARAMS|DCode=62|XSize=70.87mil|YSize=51.18mil|CornerRadius=6.4mil|HoleSize=0mil|Usage=FLASHONLY|Rotation=90.000|XOffset=0mil|YOffset=0mil|HoleType=Round|Shape=RoundedRectangle|*
%AMROUNDEDRECTD62*
21,1,0.07087,0.03839,0,0,90.0*
21,1,0.05807,0.05118,0,0,90.0*
1,1,0.01280,0.01919,0.02904*
1,1,0.01280,0.01919,-0.02904*
1,1,0.01280,-0.01919,-0.02904*
1,1,0.01280,-0.01919,0.02904*
%
%ADD62ROUNDEDRECTD62*%
G04:AMPARAMS|DCode=63|XSize=70.87mil|YSize=51.18mil|CornerRadius=6.4mil|HoleSize=0mil|Usage=FLASHONLY|Rotation=180.000|XOffset=0mil|YOffset=0mil|HoleType=Round|Shape=RoundedRectangle|*
%AMROUNDEDRECTD63*
21,1,0.07087,0.03839,0,0,180.0*
21,1,0.05807,0.05118,0,0,180.0*
1,1,0.01280,-0.02904,0.01919*
1,1,0.01280,0.02904,0.01919*
1,1,0.01280,0.02904,-0.01919*
1,1,0.01280,-0.02904,-0.01919*
%
%ADD63ROUNDEDRECTD63*%
G04:AMPARAMS|DCode=67|XSize=23.62mil|YSize=39.37mil|CornerRadius=2.95mil|HoleSize=0mil|Usage=FLASHONLY|Rotation=90.000|XOffset=0mil|YOffset=0mil|HoleType=Round|Shape=RoundedRectangle|*
%AMROUNDEDRECTD67*
21,1,0.02362,0.03347,0,0,90.0*
21,1,0.01772,0.03937,0,0,90.0*
1,1,0.00591,0.01673,0.00886*
1,1,0.00591,0.01673,-0.00886*
1,1,0.00591,-0.01673,-0.00886*
1,1,0.00591,-0.01673,0.00886*
%
%ADD67ROUNDEDRECTD67*%
G04:AMPARAMS|DCode=71|XSize=70.87mil|YSize=45.28mil|CornerRadius=5.66mil|HoleSize=0mil|Usage=FLASHONLY|Rotation=270.000|XOffset=0mil|YOffset=0mil|HoleType=Round|Shape=RoundedRectangle|*
%AMROUNDEDRECTD71*
21,1,0.07087,0.03396,0,0,270.0*
21,1,0.05955,0.04528,0,0,270.0*
1,1,0.01132,-0.01698,-0.02977*
1,1,0.01132,-0.01698,0.02977*
1,1,0.01132,0.01698,0.02977*
1,1,0.01132,0.01698,-0.02977*
%
%ADD71ROUNDEDRECTD71*%
G04:AMPARAMS|DCode=72|XSize=70.87mil|YSize=45.28mil|CornerRadius=5.66mil|HoleSize=0mil|Usage=FLASHONLY|Rotation=180.000|XOffset=0mil|YOffset=0mil|HoleType=Round|Shape=RoundedRectangle|*
%AMROUNDEDRECTD72*
21,1,0.07087,0.03396,0,0,180.0*
21,1,0.05955,0.04528,0,0,180.0*
1,1,0.01132,-0.02977,0.01698*
1,1,0.01132,0.02977,0.01698*
1,1,0.01132,0.02977,-0.01698*
1,1,0.01132,-0.02977,-0.01698*
%
%ADD72ROUNDEDRECTD72*%
G04:AMPARAMS|DCode=73|XSize=55.12mil|YSize=39.37mil|CornerRadius=4.92mil|HoleSize=0mil|Usage=FLASHONLY|Rotation=0.000|XOffset=0mil|YOffset=0mil|HoleType=Round|Shape=RoundedRectangle|*
%AMROUNDEDRECTD73*
21,1,0.05512,0.02953,0,0,0.0*
21,1,0.04528,0.03937,0,0,0.0*
1,1,0.00984,0.02264,-0.01476*
1,1,0.00984,-0.02264,-0.01476*
1,1,0.00984,-0.02264,0.01476*
1,1,0.00984,0.02264,0.01476*
%
%ADD73ROUNDEDRECTD73*%
G04:AMPARAMS|DCode=74|XSize=55.12mil|YSize=39.37mil|CornerRadius=4.92mil|HoleSize=0mil|Usage=FLASHONLY|Rotation=90.000|XOffset=0mil|YOffset=0mil|HoleType=Round|Shape=RoundedRectangle|*
%AMROUNDEDRECTD74*
21,1,0.05512,0.02953,0,0,90.0*
21,1,0.04528,0.03937,0,0,90.0*
1,1,0.00984,0.01476,0.02264*
1,1,0.00984,0.01476,-0.02264*
1,1,0.00984,-0.01476,-0.02264*
1,1,0.00984,-0.01476,0.02264*
%
%ADD74ROUNDEDRECTD74*%
G04:AMPARAMS|DCode=78|XSize=43.31mil|YSize=68.9mil|CornerRadius=5.41mil|HoleSize=0mil|Usage=FLASHONLY|Rotation=180.000|XOffset=0mil|YOffset=0mil|HoleType=Round|Shape=RoundedRectangle|*
%AMROUNDEDRECTD78*
21,1,0.04331,0.05807,0,0,180.0*
21,1,0.03248,0.06890,0,0,180.0*
1,1,0.01083,-0.01624,0.02904*
1,1,0.01083,0.01624,0.02904*
1,1,0.01083,0.01624,-0.02904*
1,1,0.01083,-0.01624,-0.02904*
%
%ADD78ROUNDEDRECTD78*%
G04:AMPARAMS|DCode=79|XSize=43.31mil|YSize=68.9mil|CornerRadius=5.41mil|HoleSize=0mil|Usage=FLASHONLY|Rotation=180.000|XOffset=0mil|YOffset=0mil|HoleType=Round|Shape=RoundedRectangle|*
%AMROUNDEDRECTD79*
21,1,0.04331,0.05807,0,0,180.0*
21,1,0.03248,0.06890,0,0,180.0*
1,1,0.01083,-0.01624,0.02904*
1,1,0.01083,0.01624,0.02904*
1,1,0.01083,0.01624,-0.02904*
1,1,0.01083,-0.01624,-0.02904*
%
%ADD79ROUNDEDRECTD79*%
G04:AMPARAMS|DCode=80|XSize=137.8mil|YSize=68.9mil|CornerRadius=8.61mil|HoleSize=0mil|Usage=FLASHONLY|Rotation=180.000|XOffset=0mil|YOffset=0mil|HoleType=Round|Shape=RoundedRectangle|*
%AMROUNDEDRECTD80*
21,1,0.13780,0.05167,0,0,180.0*
21,1,0.12057,0.06890,0,0,180.0*
1,1,0.01722,-0.06029,0.02584*
1,1,0.01722,0.06029,0.02584*
1,1,0.01722,0.06029,-0.02584*
1,1,0.01722,-0.06029,-0.02584*
%
%ADD80ROUNDEDRECTD80*%
%ADD81C,0.06000*%
%ADD82C,0.05000*%
%ADD84C,0.05906*%
%ADD85R,0.19685X0.09843*%
%ADD86C,0.21654*%
%ADD87O,0.07087X0.18110*%
%ADD88C,0.11811*%
%ADD89R,0.05906X0.05906*%
%ADD90C,0.01772*%
%ADD91C,0.02362*%
%ADD92C,0.05000*%
%ADD109R,0.07480X0.07480*%
%ADD110R,0.05118X0.03937*%
%ADD111R,0.01575X0.05315*%
G04:AMPARAMS|DCode=112|XSize=131.89mil|YSize=49.21mil|CornerRadius=6.15mil|HoleSize=0mil|Usage=FLASHONLY|Rotation=90.000|XOffset=0mil|YOffset=0mil|HoleType=Round|Shape=RoundedRectangle|*
%AMROUNDEDRECTD112*
21,1,0.13189,0.03691,0,0,90.0*
21,1,0.11959,0.04921,0,0,90.0*
1,1,0.01230,0.01846,0.05979*
1,1,0.01230,0.01846,-0.05979*
1,1,0.01230,-0.01846,-0.05979*
1,1,0.01230,-0.01846,0.05979*
%
%ADD112ROUNDEDRECTD112*%
%ADD113R,0.05512X0.04724*%
G04:AMPARAMS|DCode=114|XSize=23.62mil|YSize=39.37mil|CornerRadius=2.95mil|HoleSize=0mil|Usage=FLASHONLY|Rotation=180.000|XOffset=0mil|YOffset=0mil|HoleType=Round|Shape=RoundedRectangle|*
%AMROUNDEDRECTD114*
21,1,0.02362,0.03347,0,0,180.0*
21,1,0.01772,0.03937,0,0,180.0*
1,1,0.00591,-0.00886,0.01673*
1,1,0.00591,0.00886,0.01673*
1,1,0.00591,0.00886,-0.01673*
1,1,0.00591,-0.00886,-0.01673*
%
%ADD114ROUNDEDRECTD114*%
%ADD115R,0.03940X0.05120*%
%ADD116R,0.05120X0.03940*%
G04:AMPARAMS|DCode=117|XSize=47.24mil|YSize=47.24mil|CornerRadius=11.81mil|HoleSize=0mil|Usage=FLASHONLY|Rotation=270.000|XOffset=0mil|YOffset=0mil|HoleType=Round|Shape=RoundedRectangle|*
%AMROUNDEDRECTD117*
21,1,0.04724,0.02362,0,0,270.0*
21,1,0.02362,0.04724,0,0,270.0*
1,1,0.02362,-0.01181,-0.01181*
1,1,0.02362,-0.01181,0.01181*
1,1,0.02362,0.01181,0.01181*
1,1,0.02362,0.01181,-0.01181*
%
%ADD117ROUNDEDRECTD117*%
G04:AMPARAMS|DCode=118|XSize=62.99mil|YSize=59.06mil|CornerRadius=14.76mil|HoleSize=0mil|Usage=FLASHONLY|Rotation=270.000|XOffset=0mil|YOffset=0mil|HoleType=Round|Shape=RoundedRectangle|*
%AMROUNDEDRECTD118*
21,1,0.06299,0.02953,0,0,270.0*
21,1,0.03347,0.05906,0,0,270.0*
1,1,0.02953,-0.01476,-0.01673*
1,1,0.02953,-0.01476,0.01673*
1,1,0.02953,0.01476,0.01673*
1,1,0.02953,0.01476,-0.01673*
%
%ADD118ROUNDEDRECTD118*%
G04:AMPARAMS|DCode=119|XSize=39.37mil|YSize=19.68mil|CornerRadius=4.92mil|HoleSize=0mil|Usage=FLASHONLY|Rotation=90.000|XOffset=0mil|YOffset=0mil|HoleType=Round|Shape=RoundedRectangle|*
%AMROUNDEDRECTD119*
21,1,0.03937,0.00984,0,0,90.0*
21,1,0.02953,0.01968,0,0,90.0*
1,1,0.00984,0.00492,0.01476*
1,1,0.00984,0.00492,-0.01476*
1,1,0.00984,-0.00492,-0.01476*
1,1,0.00984,-0.00492,0.01476*
%
%ADD119ROUNDEDRECTD119*%
%ADD120O,0.02362X0.01181*%
%ADD121R,0.06496X0.09449*%
G04:AMPARAMS|DCode=122|XSize=23.62mil|YSize=27.56mil|CornerRadius=2.95mil|HoleSize=0mil|Usage=FLASHONLY|Rotation=180.000|XOffset=0mil|YOffset=0mil|HoleType=Round|Shape=RoundedRectangle|*
%AMROUNDEDRECTD122*
21,1,0.02362,0.02165,0,0,180.0*
21,1,0.01772,0.02756,0,0,180.0*
1,1,0.00591,-0.00886,0.01083*
1,1,0.00591,0.00886,0.01083*
1,1,0.00591,0.00886,-0.01083*
1,1,0.00591,-0.00886,-0.01083*
%
%ADD122ROUNDEDRECTD122*%
G04:AMPARAMS|DCode=123|XSize=23.62mil|YSize=27.56mil|CornerRadius=2.95mil|HoleSize=0mil|Usage=FLASHONLY|Rotation=270.000|XOffset=0mil|YOffset=0mil|HoleType=Round|Shape=RoundedRectangle|*
%AMROUNDEDRECTD123*
21,1,0.02362,0.02165,0,0,270.0*
21,1,0.01772,0.02756,0,0,270.0*
1,1,0.00591,-0.01083,-0.00886*
1,1,0.00591,-0.01083,0.00886*
1,1,0.00591,0.01083,0.00886*
1,1,0.00591,0.01083,-0.00886*
%
%ADD123ROUNDEDRECTD123*%
G04:AMPARAMS|DCode=124|XSize=20.47mil|YSize=11.81mil|CornerRadius=2.95mil|HoleSize=0mil|Usage=FLASHONLY|Rotation=90.000|XOffset=0mil|YOffset=0mil|HoleType=Round|Shape=RoundedRectangle|*
%AMROUNDEDRECTD124*
21,1,0.02047,0.00591,0,0,90.0*
21,1,0.01457,0.01181,0,0,90.0*
1,1,0.00591,0.00295,0.00728*
1,1,0.00591,0.00295,-0.00728*
1,1,0.00591,-0.00295,-0.00728*
1,1,0.00591,-0.00295,0.00728*
%
%ADD124ROUNDEDRECTD124*%
G04:AMPARAMS|DCode=125|XSize=70.87mil|YSize=23.62mil|CornerRadius=5.91mil|HoleSize=0mil|Usage=FLASHONLY|Rotation=0.000|XOffset=0mil|YOffset=0mil|HoleType=Round|Shape=RoundedRectangle|*
%AMROUNDEDRECTD125*
21,1,0.07087,0.01181,0,0,0.0*
21,1,0.05906,0.02362,0,0,0.0*
1,1,0.01181,0.02953,-0.00591*
1,1,0.01181,-0.02953,-0.00591*
1,1,0.01181,-0.02953,0.00591*
1,1,0.01181,0.02953,0.00591*
%
%ADD125ROUNDEDRECTD125*%
G36*
X279746Y72335D02*
X279221Y72117D01*
X278687Y71707D01*
X278276Y71172D01*
X278019Y70550D01*
X277968Y70165D01*
X277448Y70044D01*
X277163Y70470D01*
X276442Y70952D01*
X276091Y71022D01*
Y68898D01*
X275091D01*
Y71022D01*
X274740Y70952D01*
X274230Y70612D01*
X272928D01*
X272631Y71056D01*
X272137Y71386D01*
X271555Y71502D01*
X271143D01*
X270669Y71596D01*
X270196Y71502D01*
X269791D01*
Y68504D01*
X268791D01*
Y71502D01*
X267028D01*
X266642Y71425D01*
X266142Y71739D01*
Y71850D01*
X258268D01*
Y64764D01*
Y58071D01*
X260491D01*
Y51615D01*
X259991Y51445D01*
X259699Y51825D01*
X259165Y52235D01*
X258542Y52493D01*
X257874Y52581D01*
X257735Y52563D01*
X254120Y56178D01*
X254068Y56574D01*
X253810Y57196D01*
X253522Y57571D01*
X253734Y58071D01*
X257480D01*
Y64764D01*
Y71850D01*
X249606D01*
Y71521D01*
X249106Y71254D01*
X248909Y71386D01*
X248327Y71502D01*
X246563D01*
Y68504D01*
X245563D01*
Y71502D01*
X243799D01*
X243217Y71386D01*
X242723Y71056D01*
X242394Y70562D01*
X242279Y69984D01*
X242269Y69977D01*
X241778Y69815D01*
X241473Y70213D01*
X240741Y70774D01*
X239890Y71126D01*
X239476Y71181D01*
Y67716D01*
X238976D01*
Y67216D01*
X235512D01*
X235566Y66803D01*
X235919Y65951D01*
X236480Y65220D01*
X237211Y64659D01*
X237262Y64638D01*
Y64142D01*
X232661D01*
Y61116D01*
X223471D01*
X223412Y61258D01*
X222822Y62027D01*
X222053Y62617D01*
X221158Y62988D01*
X220197Y63114D01*
X210252D01*
Y64142D01*
X207863D01*
X207699Y64642D01*
X208175Y65263D01*
X208528Y66114D01*
X208582Y66528D01*
X205118D01*
Y67028D01*
X204618D01*
Y70492D01*
X204204Y70438D01*
X203353Y70085D01*
X202622Y69524D01*
X202233Y69017D01*
X201710Y69157D01*
X201618Y69859D01*
X201247Y70754D01*
X200657Y71523D01*
X199888Y72113D01*
X199353Y72335D01*
X199452Y72835D01*
X279647D01*
X279746Y72335D01*
D02*
G37*
G36*
X48689Y72373D02*
X45337Y69021D01*
X44839Y69070D01*
X44767Y69177D01*
X44165Y69579D01*
X43455Y69721D01*
X39616D01*
X38906Y69579D01*
X38303Y69177D01*
X37901Y68575D01*
X37760Y67864D01*
Y66668D01*
X37139Y66544D01*
X36583Y66173D01*
X34221Y63810D01*
X33849Y63254D01*
X33719Y62598D01*
Y60966D01*
X33608Y60880D01*
X33198Y60346D01*
X32940Y59723D01*
X32852Y59055D01*
X32940Y58387D01*
X33198Y57765D01*
X33608Y57230D01*
X34143Y56820D01*
X34765Y56562D01*
X35433Y56474D01*
X36101Y56562D01*
X36724Y56820D01*
X37258Y57230D01*
X37299Y57283D01*
X37766Y57071D01*
X37760Y57037D01*
Y55848D01*
X36024D01*
X35368Y55717D01*
X34812Y55346D01*
X29408Y49942D01*
X26575D01*
X25919Y49812D01*
X25363Y49440D01*
X20358Y44435D01*
X19685Y44524D01*
X18606Y44382D01*
X17600Y43965D01*
X16737Y43303D01*
X16074Y42439D01*
X15658Y41434D01*
X15516Y40354D01*
X15658Y39275D01*
X16074Y38270D01*
X16737Y37406D01*
X17600Y36743D01*
X18606Y36327D01*
X19685Y36185D01*
X20764Y36327D01*
X21770Y36743D01*
X22633Y37406D01*
X23296Y38270D01*
X23712Y39275D01*
X23855Y40354D01*
X23712Y41434D01*
X23296Y42439D01*
X23258Y42488D01*
X27285Y46514D01*
X30118D01*
X30774Y46645D01*
X31330Y47016D01*
X36734Y52420D01*
X37760D01*
Y51230D01*
X37901Y50520D01*
X38303Y49918D01*
X38906Y49515D01*
X39616Y49374D01*
X39821D01*
Y48067D01*
X39616D01*
X38906Y47926D01*
X38303Y47523D01*
X37901Y46921D01*
X37760Y46211D01*
Y40404D01*
X37901Y39693D01*
X38303Y39091D01*
X38906Y38688D01*
X39616Y38547D01*
X42887D01*
X43741Y37693D01*
X43495Y37232D01*
X43455Y37240D01*
X39616D01*
X38906Y37099D01*
X38303Y36697D01*
X37901Y36094D01*
X37760Y35384D01*
Y35200D01*
X37298Y35008D01*
X33513Y38793D01*
X33713Y39275D01*
X33855Y40354D01*
X33713Y41434D01*
X33296Y42439D01*
X32633Y43303D01*
X31770Y43965D01*
X30764Y44382D01*
X29685Y44524D01*
X28606Y44382D01*
X27600Y43965D01*
X26737Y43303D01*
X26074Y42439D01*
X25658Y41434D01*
X25515Y40354D01*
X25658Y39275D01*
X26074Y38270D01*
X26737Y37406D01*
X27600Y36743D01*
X28606Y36327D01*
X29685Y36185D01*
X30764Y36327D01*
X31024Y36434D01*
X36190Y31268D01*
X36746Y30897D01*
X37402Y30766D01*
X37760D01*
Y29577D01*
X37901Y28866D01*
X38303Y28264D01*
X38906Y27861D01*
X39616Y27720D01*
X43455D01*
X44165Y27861D01*
X44767Y28264D01*
X45030Y28657D01*
X45530Y28505D01*
Y27114D01*
X45157Y26782D01*
X45030Y26807D01*
X41191D01*
X40481Y26666D01*
X39878Y26263D01*
X39476Y25661D01*
X39334Y24951D01*
Y19144D01*
X39476Y18433D01*
X39878Y17831D01*
X40481Y17428D01*
X41191Y17287D01*
X45030D01*
X45740Y17428D01*
X46342Y17831D01*
X46745Y18433D01*
X46886Y19144D01*
Y23596D01*
X48456Y25166D01*
X48828Y25722D01*
X48958Y26378D01*
Y28505D01*
X49458Y28657D01*
X49721Y28264D01*
X50323Y27861D01*
X51034Y27720D01*
X54872D01*
X55582Y27861D01*
X56185Y28264D01*
X56587Y28866D01*
X56729Y29577D01*
Y30766D01*
X57337D01*
X57381Y30548D01*
X57750Y29994D01*
X58304Y29625D01*
X58416Y29602D01*
Y28721D01*
X58353Y28627D01*
X58239Y28051D01*
Y26594D01*
X58281Y26384D01*
X57810Y26188D01*
X57760Y26263D01*
X57157Y26666D01*
X56447Y26807D01*
X52608D01*
X51898Y26666D01*
X51296Y26263D01*
X50893Y25661D01*
X50752Y24951D01*
Y19144D01*
X50893Y18433D01*
X51296Y17831D01*
X51898Y17428D01*
X52608Y17287D01*
X56006D01*
X56257Y16787D01*
X56097Y16571D01*
X52608D01*
X51898Y16430D01*
X51296Y16027D01*
X50893Y15425D01*
X50752Y14715D01*
Y8907D01*
X50893Y8197D01*
X51296Y7595D01*
X51898Y7192D01*
X52608Y7051D01*
X56447D01*
X56621Y6576D01*
X56498Y6494D01*
X56016Y5772D01*
X55946Y5421D01*
X58071D01*
Y4921D01*
X58571D01*
Y2797D01*
X58922Y2867D01*
X59284Y3109D01*
X60238D01*
X60307Y2764D01*
X60505Y2468D01*
X60258Y1969D01*
X1969D01*
Y72835D01*
X48498D01*
X48689Y72373D01*
D02*
G37*
G36*
X327829Y63054D02*
Y59666D01*
X320840D01*
X320671Y60166D01*
X320821Y60281D01*
X321231Y60816D01*
X321489Y61438D01*
X321577Y62106D01*
X321489Y62774D01*
X321231Y63397D01*
X320821Y63931D01*
X320287Y64342D01*
X319664Y64600D01*
X318996Y64687D01*
X318328Y64600D01*
X317705Y64342D01*
X317171Y63931D01*
X317086Y63820D01*
X309842D01*
X309187Y63690D01*
X308630Y63318D01*
X298436Y53124D01*
X297974Y53315D01*
Y62066D01*
X298085Y62151D01*
X298495Y62686D01*
X298753Y63308D01*
X298841Y63976D01*
X298753Y64644D01*
X298495Y65267D01*
X298085Y65802D01*
X297550Y66212D01*
X296928Y66470D01*
X296260Y66558D01*
X295592Y66470D01*
X294969Y66212D01*
X294435Y65802D01*
X294024Y65267D01*
X293767Y64644D01*
X293679Y63976D01*
X293767Y63308D01*
X294024Y62686D01*
X294435Y62151D01*
X294546Y62066D01*
Y52875D01*
X293079Y51409D01*
X292708Y50853D01*
X292577Y50197D01*
Y30454D01*
X292466Y30368D01*
X292056Y29834D01*
X291798Y29211D01*
X291710Y28543D01*
X291798Y27875D01*
X292056Y27253D01*
X292466Y26718D01*
X293001Y26308D01*
X293623Y26050D01*
X294291Y25962D01*
X294959Y26050D01*
X295582Y26308D01*
X296116Y26718D01*
X296527Y27253D01*
X296784Y27875D01*
X296872Y28543D01*
X296784Y29211D01*
X296527Y29834D01*
X296116Y30368D01*
X296005Y30454D01*
Y31742D01*
X296421Y32020D01*
X296576Y31956D01*
X297244Y31868D01*
X297912Y31956D01*
X298535Y32214D01*
X299069Y32624D01*
X299479Y33158D01*
X299737Y33781D01*
X299825Y34449D01*
X299737Y35117D01*
X299479Y35739D01*
X299069Y36274D01*
X298958Y36359D01*
Y40852D01*
X299458Y41098D01*
X300057Y40639D01*
X301074Y40218D01*
X302165Y40074D01*
X303257Y40218D01*
X304274Y40639D01*
X305147Y41309D01*
X305818Y42183D01*
X306239Y43200D01*
X306702Y43079D01*
Y41973D01*
Y36073D01*
Y30173D01*
Y24173D01*
Y18273D01*
Y12373D01*
Y9819D01*
X306202Y9572D01*
X306015Y9716D01*
X305393Y9973D01*
X304724Y10061D01*
X304056Y9973D01*
X303434Y9716D01*
X302899Y9305D01*
X302489Y8771D01*
X302231Y8148D01*
X302143Y7480D01*
X302162Y7342D01*
X301140Y6320D01*
X300717Y6604D01*
X300722Y6615D01*
X300810Y7283D01*
X300722Y7952D01*
X300464Y8574D01*
X300054Y9109D01*
X299519Y9519D01*
X298896Y9777D01*
X298228Y9865D01*
X297560Y9777D01*
X296938Y9519D01*
X296403Y9109D01*
X296318Y8997D01*
X294138D01*
X293918Y9259D01*
X293992Y9867D01*
X294148Y9986D01*
X294558Y10520D01*
X294816Y11143D01*
X294904Y11811D01*
X294816Y12479D01*
X294558Y13102D01*
X294148Y13636D01*
X293613Y14046D01*
X292991Y14304D01*
X292636Y14351D01*
X292393Y14887D01*
X292543Y15112D01*
X292665Y15723D01*
Y18201D01*
X289370D01*
Y19201D01*
X292665D01*
Y21678D01*
X292543Y22289D01*
X292197Y22807D01*
X291679Y23153D01*
X291068Y23275D01*
X290173D01*
X288822Y24626D01*
X288843Y24677D01*
X288897Y25091D01*
X285433D01*
Y25591D01*
X284933D01*
Y29055D01*
X284519Y29000D01*
X283668Y28648D01*
X283142Y28244D01*
X282599Y28421D01*
X282597Y28424D01*
X282580Y28507D01*
X282283Y28951D01*
Y30891D01*
X282580Y31335D01*
X282710Y31988D01*
Y33474D01*
X283210Y33644D01*
X283398Y33398D01*
X284167Y32808D01*
X285063Y32437D01*
X286024Y32311D01*
X286985Y32437D01*
X287880Y32808D01*
X288649Y33398D01*
X289239Y34167D01*
X289610Y35063D01*
X289737Y36024D01*
X289610Y36985D01*
X289239Y37880D01*
X288649Y38649D01*
X287880Y39239D01*
X286985Y39610D01*
X286024Y39737D01*
X285063Y39610D01*
X284167Y39239D01*
X283398Y38649D01*
X282808Y37880D01*
X282437Y36985D01*
X282390Y36628D01*
X281854Y36385D01*
X281657Y36517D01*
X281004Y36647D01*
X276476D01*
X275823Y36517D01*
X275270Y36147D01*
X274900Y35594D01*
X274804Y35110D01*
X273073D01*
X273017Y35195D01*
X272464Y35564D01*
X272433Y35827D01*
X272464Y36089D01*
X273017Y36459D01*
X273408Y37045D01*
X273546Y37736D01*
Y38917D01*
X273408Y39609D01*
X273017Y40195D01*
X272464Y40564D01*
X272433Y40827D01*
X272464Y41089D01*
X273017Y41459D01*
X273408Y42045D01*
X273546Y42736D01*
Y43917D01*
X273408Y44609D01*
X273017Y45195D01*
X272464Y45564D01*
X272433Y45827D01*
X272464Y46089D01*
X273017Y46459D01*
X273408Y47045D01*
X273546Y47736D01*
Y48917D01*
X273408Y49609D01*
X273017Y50195D01*
X272464Y50564D01*
X272433Y50827D01*
X272464Y51089D01*
X273017Y51459D01*
X273408Y52045D01*
X273488Y52445D01*
X274027Y52686D01*
X274051Y52670D01*
X274402Y52600D01*
Y54724D01*
Y56849D01*
X274051Y56779D01*
X273329Y56297D01*
X273001Y55806D01*
X272431Y55586D01*
X271739Y55724D01*
X265834D01*
X265143Y55586D01*
X264557Y55195D01*
X264419Y54988D01*
X263919Y55140D01*
Y58071D01*
X266142D01*
Y58071D01*
X266642Y58312D01*
X267028Y58235D01*
X271555D01*
X272208Y58365D01*
X272761Y58735D01*
X273131Y59288D01*
X273261Y59941D01*
Y62479D01*
X273761Y62649D01*
X273765Y62643D01*
X274300Y62233D01*
X274922Y61975D01*
X275590Y61887D01*
X275729Y61906D01*
X281357Y56278D01*
Y51910D01*
X281246Y51825D01*
X280836Y51291D01*
X280578Y50668D01*
X280490Y50000D01*
X280578Y49332D01*
X280836Y48709D01*
X281246Y48175D01*
X281780Y47765D01*
X282403Y47507D01*
X283071Y47419D01*
X283739Y47507D01*
X284361Y47765D01*
X284896Y48175D01*
X285306Y48709D01*
X285564Y49332D01*
X285652Y50000D01*
X285564Y50668D01*
X285306Y51291D01*
X284896Y51825D01*
X284785Y51910D01*
Y56988D01*
X284693Y57452D01*
X285154Y57698D01*
X287262Y55589D01*
Y51910D01*
X287151Y51825D01*
X286741Y51291D01*
X286483Y50668D01*
X286395Y50000D01*
X286483Y49332D01*
X286741Y48709D01*
X287151Y48175D01*
X287686Y47765D01*
X288308Y47507D01*
X288976Y47419D01*
X289644Y47507D01*
X290267Y47765D01*
X290802Y48175D01*
X291212Y48709D01*
X291470Y49332D01*
X291558Y50000D01*
X291470Y50668D01*
X291212Y51291D01*
X290802Y51825D01*
X290690Y51910D01*
Y56299D01*
X290560Y56955D01*
X290188Y57511D01*
X283665Y64034D01*
X283683Y64173D01*
X283595Y64841D01*
X283338Y65464D01*
X282927Y65998D01*
X282393Y66409D01*
X281770Y66666D01*
X281102Y66754D01*
X280434Y66666D01*
X279812Y66409D01*
X279277Y65998D01*
X278867Y65464D01*
X278623Y64874D01*
X278578Y64853D01*
X278099Y65023D01*
X278084Y65137D01*
X277826Y65759D01*
X277416Y66294D01*
X276998Y66614D01*
X276929Y67169D01*
X277163Y67325D01*
X277645Y68047D01*
X277748Y68562D01*
X278268Y68613D01*
X278276Y68591D01*
X278687Y68057D01*
X279221Y67647D01*
X279844Y67389D01*
X280512Y67301D01*
X281180Y67389D01*
X281802Y67647D01*
X282337Y68057D01*
X282422Y68168D01*
X311614D01*
X312270Y68298D01*
X312826Y68670D01*
X313702Y69546D01*
X315780D01*
X316047Y69046D01*
X315859Y68764D01*
X315789Y68413D01*
X320038D01*
X319968Y68764D01*
X319780Y69046D01*
X320047Y69546D01*
X321337D01*
X327829Y63054D01*
D02*
G37*
G36*
X188063Y72335D02*
X187957Y71801D01*
Y65994D01*
X188098Y65284D01*
X188500Y64681D01*
X189102Y64279D01*
X189813Y64138D01*
X193652D01*
X194362Y64279D01*
X194964Y64681D01*
X195367Y65284D01*
X195434Y65621D01*
X195985Y65828D01*
X196175Y65682D01*
X197071Y65311D01*
X198031Y65185D01*
X198993Y65311D01*
X199888Y65682D01*
X200657Y66272D01*
X201106Y66857D01*
X201629Y66717D01*
X201708Y66114D01*
X202061Y65263D01*
X202537Y64642D01*
X202373Y64142D01*
X200772D01*
Y59912D01*
X198395Y57535D01*
X198204Y57593D01*
X197350Y57677D01*
Y51287D01*
X203740D01*
X203656Y52141D01*
X203620Y52259D01*
X204683Y53322D01*
X205145Y53131D01*
Y50539D01*
X205272Y49578D01*
X205299Y49512D01*
Y47571D01*
X206680D01*
X207002Y47324D01*
X207897Y46953D01*
X208858Y46826D01*
X209819Y46953D01*
X210715Y47324D01*
X211036Y47571D01*
X212417D01*
Y49512D01*
X212445Y49578D01*
X212571Y50539D01*
Y55689D01*
X220197D01*
X221158Y55815D01*
X221300Y55874D01*
X224008Y53167D01*
X223816Y52705D01*
X214370D01*
Y45164D01*
X212799Y43593D01*
X208020D01*
X207365Y43462D01*
X206808Y43091D01*
X204832Y41114D01*
X202756D01*
X201795Y40988D01*
X200900Y40617D01*
X200131Y40027D01*
X199540Y39258D01*
X199170Y38363D01*
X199043Y37402D01*
X199170Y36441D01*
X199540Y35545D01*
X200131Y34776D01*
X200900Y34186D01*
X201795Y33815D01*
X202756Y33689D01*
X202756Y33689D01*
X209646D01*
X210607Y33815D01*
X211502Y34186D01*
X212271Y34776D01*
X212861Y35545D01*
X213018Y35925D01*
X213422Y35978D01*
X213566Y35941D01*
X214064Y35560D01*
X214686Y35302D01*
X214767Y35291D01*
X214946Y34764D01*
X211454Y31272D01*
X209646D01*
X208685Y31145D01*
X207789Y30775D01*
X207020Y30184D01*
X206889Y30014D01*
X206061Y30213D01*
X204331Y30349D01*
X193307D01*
X191577Y30213D01*
X189890Y29808D01*
X189722Y29738D01*
X189567Y29842D01*
X188927Y29969D01*
X188612D01*
X188405Y30469D01*
X192179Y34243D01*
X192780Y34363D01*
X193502Y34845D01*
X193984Y35566D01*
X194053Y35917D01*
X191929D01*
Y36417D01*
X191429D01*
Y38542D01*
X191078Y38472D01*
X190357Y37990D01*
X189875Y37268D01*
X189755Y36667D01*
X187309Y34221D01*
X186847Y34412D01*
Y36565D01*
X186705Y37275D01*
X186303Y37878D01*
X185701Y38280D01*
X184990Y38421D01*
X184459D01*
X184213Y38921D01*
X184322Y39064D01*
X184580Y39686D01*
X184668Y40354D01*
X184580Y41022D01*
X184322Y41645D01*
X184213Y41787D01*
X184459Y42287D01*
X184990D01*
X185701Y42428D01*
X186303Y42831D01*
X186705Y43433D01*
X186847Y44144D01*
Y47982D01*
X186705Y48693D01*
X186404Y49143D01*
X186524Y49703D01*
X186583Y49720D01*
X187814Y50378D01*
X188893Y51264D01*
X189533Y52043D01*
X190015Y51843D01*
X189961Y51287D01*
X196350D01*
Y57677D01*
X195497Y57593D01*
X194195Y57198D01*
X192995Y56557D01*
X191944Y55694D01*
X191351Y54971D01*
X190868Y55171D01*
X190979Y56299D01*
X190842Y57688D01*
X190437Y59024D01*
X189779Y60255D01*
X188893Y61335D01*
X187814Y62220D01*
X186583Y62878D01*
X185248Y63283D01*
X183858Y63420D01*
X182469Y63283D01*
X181133Y62878D01*
X179902Y62220D01*
X178823Y61335D01*
X178198Y60573D01*
X177698Y60752D01*
Y61221D01*
X177568Y61876D01*
X177196Y62432D01*
X174817Y64812D01*
X174977Y65285D01*
X175174Y65311D01*
X176069Y65682D01*
X176088Y65697D01*
X176639Y65490D01*
X176681Y65284D01*
X177083Y64681D01*
X177685Y64279D01*
X178396Y64138D01*
X182234D01*
X182945Y64279D01*
X183547Y64681D01*
X183949Y65284D01*
X184091Y65994D01*
Y71801D01*
X183985Y72335D01*
X184289Y72835D01*
X187758D01*
X188063Y72335D01*
D02*
G37*
G36*
X391732Y59666D02*
X331257D01*
Y63764D01*
X331127Y64420D01*
X330755Y64976D01*
X323396Y72335D01*
X323590Y72835D01*
X334449D01*
Y61811D01*
X356496D01*
Y72835D01*
X391732D01*
Y59666D01*
D02*
G37*
G36*
X163123Y67041D02*
X163713Y66272D01*
X164482Y65682D01*
X165378Y65311D01*
X166339Y65185D01*
X167299Y65311D01*
X167367Y65339D01*
X167718Y64993D01*
X167558Y64547D01*
X166721Y64464D01*
X165385Y64059D01*
X164154Y63401D01*
X163075Y62516D01*
X162189Y61436D01*
X161531Y60205D01*
X161126Y58869D01*
X160989Y57480D01*
X161126Y56091D01*
X161406Y55168D01*
X158709Y52471D01*
X158119Y51702D01*
X157828Y51001D01*
X157328Y51100D01*
Y51279D01*
X157213Y51862D01*
X156883Y52355D01*
X156389Y52685D01*
X155807Y52801D01*
X155257D01*
Y53740D01*
X155127Y54396D01*
X154755Y54952D01*
X153602Y56106D01*
Y56587D01*
X150197D01*
Y57087D01*
X149697D01*
Y60492D01*
X149016D01*
X148976Y60484D01*
X148494Y60965D01*
X148740Y61426D01*
X149016Y61371D01*
X151378D01*
X152300Y61554D01*
X153081Y62076D01*
X153603Y62858D01*
X153786Y63779D01*
Y66142D01*
X153679Y66684D01*
X154078Y67184D01*
X163064D01*
X163123Y67041D01*
D02*
G37*
G36*
X165017Y72335D02*
X164482Y72113D01*
X163713Y71523D01*
X163123Y70754D01*
X163064Y70612D01*
X124606D01*
X123950Y70481D01*
X123394Y70110D01*
X119068Y65784D01*
X115797D01*
X115087Y65642D01*
X114485Y65240D01*
X114082Y64638D01*
X113941Y63927D01*
Y58120D01*
X114082Y57410D01*
X114190Y57249D01*
X113801Y56930D01*
X113220Y57511D01*
X112664Y57883D01*
X112008Y58013D01*
X105190D01*
X104928Y58451D01*
X105165Y58779D01*
X105359Y58778D01*
X105684Y58713D01*
X108161D01*
Y62008D01*
X108661D01*
Y62508D01*
X113235D01*
Y63706D01*
X113114Y64317D01*
X112768Y64835D01*
X112250Y65181D01*
X111639Y65302D01*
X110375D01*
Y67143D01*
X110716Y67653D01*
X110786Y68004D01*
X106537D01*
X106607Y67653D01*
X106947Y67143D01*
Y65302D01*
X105684D01*
X105073Y65181D01*
X104555Y64835D01*
X104209Y64317D01*
X104087Y63706D01*
Y61903D01*
X103587Y61711D01*
X103030Y61942D01*
X102362Y62030D01*
X101875Y61966D01*
X100621Y63220D01*
X100065Y63591D01*
X99642Y63676D01*
Y63927D01*
X99501Y64638D01*
X99360Y64847D01*
X99494Y65289D01*
X100263Y65878D01*
X100853Y66647D01*
X101224Y67543D01*
X101351Y68504D01*
X101224Y69465D01*
X100853Y70360D01*
X100263Y71129D01*
X99494Y71719D01*
X98599Y72090D01*
X97638Y72217D01*
X96677Y72090D01*
X95781Y71719D01*
X95012Y71129D01*
X94422Y70360D01*
X94051Y69465D01*
X93925Y68504D01*
X94051Y67543D01*
X94422Y66647D01*
X94701Y66284D01*
X94455Y65784D01*
X91978D01*
X91268Y65642D01*
X90666Y65240D01*
X90263Y64638D01*
X90122Y63927D01*
Y62261D01*
X89622Y62009D01*
X89579Y62041D01*
Y62923D01*
X89448Y63579D01*
X89077Y64135D01*
X86251Y66960D01*
X85695Y67332D01*
X85039Y67462D01*
X83706D01*
Y68012D01*
X83591Y68594D01*
X83261Y69088D01*
X82767Y69417D01*
X82185Y69533D01*
X81209D01*
Y65748D01*
X80209D01*
Y69533D01*
X79232D01*
X78650Y69417D01*
X78461Y69291D01*
X76195D01*
X75751Y69588D01*
X75098Y69718D01*
X72146D01*
X71493Y69588D01*
X71044Y69288D01*
X70654Y69375D01*
X70500Y69460D01*
X70481Y69554D01*
X70110Y70110D01*
X67847Y72373D01*
X68038Y72835D01*
X164918D01*
X165017Y72335D01*
D02*
G37*
G36*
X320392Y52183D02*
X335996D01*
X336263Y51683D01*
X336036Y51343D01*
X335966Y50992D01*
X340215D01*
X340145Y51343D01*
X339918Y51683D01*
X340185Y52183D01*
X343289D01*
X343496Y51683D01*
X343025Y51069D01*
X342654Y50174D01*
X342527Y49213D01*
X342654Y48252D01*
X343025Y47356D01*
X343615Y46587D01*
X344384Y45997D01*
X345279Y45626D01*
X346240Y45500D01*
X347201Y45626D01*
X348097Y45997D01*
X348866Y46587D01*
X349456Y47356D01*
X349827Y48252D01*
X349953Y49213D01*
X349827Y50174D01*
X349456Y51069D01*
X348984Y51683D01*
X349191Y52183D01*
X368027D01*
X368183Y51868D01*
X368220Y51683D01*
X367843Y51192D01*
X367586Y50570D01*
X367498Y49902D01*
X367516Y49763D01*
X358433Y40680D01*
X357951Y40879D01*
X357283Y40967D01*
X356615Y40879D01*
X355993Y40621D01*
X355458Y40211D01*
X355048Y39676D01*
X354790Y39054D01*
X354702Y38386D01*
X354790Y37718D01*
X355048Y37095D01*
X355458Y36561D01*
X355993Y36151D01*
X356615Y35893D01*
X357283Y35805D01*
X357951Y35893D01*
X358574Y36151D01*
X359109Y36561D01*
X359373Y36905D01*
X359775Y37174D01*
X369940Y47339D01*
X370079Y47320D01*
X370747Y47408D01*
X371369Y47666D01*
X371904Y48076D01*
X372314Y48611D01*
X372572Y49233D01*
X372660Y49902D01*
X372572Y50570D01*
X372314Y51192D01*
X371937Y51683D01*
X371974Y51868D01*
X372130Y52183D01*
X391732D01*
Y22329D01*
X391232Y22160D01*
X390814Y22704D01*
X390045Y23294D01*
X389150Y23665D01*
X388189Y23792D01*
X387228Y23665D01*
X386333Y23294D01*
X385564Y22704D01*
X384974Y21935D01*
X384670Y21202D01*
X384231Y21093D01*
X384110Y21110D01*
X383765Y21560D01*
X383034Y22121D01*
X382182Y22474D01*
X381769Y22528D01*
Y19064D01*
X380769D01*
Y22528D01*
X380355Y22474D01*
X379504Y22121D01*
X378772Y21560D01*
X378211Y20829D01*
X377859Y19978D01*
X377848Y19893D01*
X377315Y19675D01*
X377084Y19854D01*
Y24630D01*
X376954Y25286D01*
X376582Y25842D01*
X368141Y34283D01*
X367585Y34654D01*
X366929Y34785D01*
X324332D01*
X319886Y39231D01*
X319904Y39370D01*
X319816Y40038D01*
X319558Y40661D01*
X319335Y40951D01*
X319692Y41308D01*
X319994Y41076D01*
X320889Y40705D01*
X321850Y40578D01*
X322811Y40705D01*
X323707Y41076D01*
X324476Y41666D01*
X325066Y42435D01*
X325437Y43330D01*
X325563Y44291D01*
X325437Y45252D01*
X325066Y46148D01*
X324476Y46917D01*
X323707Y47507D01*
X322811Y47878D01*
X321850Y48004D01*
X320889Y47878D01*
X319994Y47507D01*
X319225Y46917D01*
X318635Y46148D01*
X318264Y45252D01*
X318138Y44291D01*
X318264Y43330D01*
X318635Y42435D01*
X319038Y41910D01*
X318681Y41554D01*
X318613Y41605D01*
X317991Y41863D01*
X317323Y41951D01*
X316655Y41863D01*
X316032Y41605D01*
X315498Y41195D01*
X315088Y40661D01*
X314830Y40038D01*
X314742Y39370D01*
X314830Y38702D01*
X315088Y38080D01*
X315498Y37545D01*
X316032Y37135D01*
X316655Y36877D01*
X316735Y36866D01*
Y36362D01*
X316655Y36351D01*
X316032Y36094D01*
X315498Y35683D01*
X315088Y35149D01*
X314830Y34526D01*
X314742Y33858D01*
X314830Y33190D01*
X315088Y32568D01*
X315498Y32033D01*
X316032Y31623D01*
X316655Y31365D01*
X317323Y31277D01*
X317462Y31295D01*
X319654Y29103D01*
X320210Y28731D01*
X320866Y28601D01*
X321063Y28640D01*
X321260Y28601D01*
X365826D01*
X371514Y22912D01*
Y18110D01*
X371645Y17454D01*
X372016Y16898D01*
X372547Y16367D01*
X372307Y15900D01*
X371480Y15791D01*
X370585Y15420D01*
X369815Y14830D01*
X369226Y14061D01*
X368855Y13166D01*
X368728Y12205D01*
X368855Y11244D01*
X369226Y10348D01*
X369815Y9579D01*
X370585Y8989D01*
X370642Y8965D01*
X370543Y8466D01*
X325257D01*
Y13778D01*
X328995Y17516D01*
X329134Y17498D01*
X329802Y17586D01*
X330424Y17843D01*
X330959Y18254D01*
X331369Y18788D01*
X331627Y19411D01*
X331715Y20079D01*
X331627Y20747D01*
X331369Y21369D01*
X330959Y21904D01*
X330424Y22314D01*
X329802Y22572D01*
X329134Y22660D01*
X328466Y22572D01*
X327843Y22314D01*
X327309Y21904D01*
X326899Y21369D01*
X326641Y20747D01*
X326553Y20079D01*
X326571Y19940D01*
X322331Y15700D01*
X321960Y15144D01*
X321829Y14488D01*
Y8466D01*
X320392D01*
Y8284D01*
X319257D01*
Y18545D01*
X319598Y19054D01*
X319668Y19406D01*
X315419D01*
X315489Y19054D01*
X315829Y18545D01*
Y8284D01*
X314573D01*
X314184Y8553D01*
Y12373D01*
Y18273D01*
Y24173D01*
Y30173D01*
Y36073D01*
Y41973D01*
Y48115D01*
X314632Y48402D01*
X314950Y48158D01*
X315572Y47901D01*
X316240Y47813D01*
X316908Y47901D01*
X317531Y48158D01*
X318065Y48569D01*
X318476Y49103D01*
X318733Y49726D01*
X318821Y50394D01*
X318733Y51062D01*
X318476Y51684D01*
X318337Y51864D01*
X318584Y52364D01*
X320392D01*
Y52183D01*
D02*
G37*
G36*
X309299Y58432D02*
X308969Y57938D01*
X308899Y57587D01*
X311024D01*
Y56587D01*
X308899D01*
X308969Y56236D01*
X309310Y55726D01*
Y53994D01*
X306883D01*
Y51524D01*
X310443D01*
Y50524D01*
X306883D01*
Y48276D01*
X306702D01*
Y45504D01*
X306239Y45383D01*
X305818Y46400D01*
X305147Y47273D01*
X304274Y47943D01*
X303257Y48365D01*
X302165Y48509D01*
X301074Y48365D01*
X300057Y47943D01*
X299458Y47484D01*
X298958Y47731D01*
Y48798D01*
X308911Y58751D01*
X309299Y58432D01*
D02*
G37*
G36*
X230609Y57272D02*
X230528Y57075D01*
X230401Y56114D01*
Y50988D01*
X230342Y50539D01*
X230469Y49578D01*
X230496Y49512D01*
Y47571D01*
X231877D01*
X232199Y47324D01*
X233094Y46953D01*
X234055Y46826D01*
X235016Y46953D01*
X235911Y47324D01*
X236233Y47571D01*
X237614D01*
Y49429D01*
X237701Y49637D01*
X237827Y50598D01*
Y54576D01*
X237912Y54661D01*
X240266D01*
X240676Y54161D01*
X240628Y53917D01*
Y52736D01*
X240765Y52045D01*
X241157Y51459D01*
X241710Y51089D01*
X241740Y50827D01*
X241710Y50564D01*
X241157Y50195D01*
X240765Y49609D01*
X240628Y48917D01*
Y47736D01*
X240765Y47045D01*
X241157Y46459D01*
X241710Y46089D01*
X241740Y45827D01*
X241710Y45564D01*
X241157Y45195D01*
X241054Y45041D01*
X228793D01*
X228362Y45209D01*
Y48366D01*
X226575D01*
Y49366D01*
X228362D01*
Y52524D01*
X228289D01*
Y53024D01*
X228158Y53680D01*
X227787Y54236D01*
X224797Y57226D01*
X224988Y57687D01*
X230331D01*
X230609Y57272D01*
D02*
G37*
G36*
X102556Y44421D02*
X95800Y37665D01*
X95210Y36896D01*
X94839Y36000D01*
X94712Y35039D01*
Y25591D01*
X94839Y24630D01*
X95210Y23734D01*
X95800Y22965D01*
X96569Y22375D01*
X97464Y22004D01*
X98425Y21878D01*
X99386Y22004D01*
X100282Y22375D01*
X101051Y22965D01*
X101641Y23734D01*
X102012Y24630D01*
X102138Y25591D01*
Y33501D01*
X102654Y34017D01*
X103116Y33826D01*
Y29774D01*
X103250Y29102D01*
X103630Y28532D01*
X104200Y28151D01*
X104872Y28017D01*
X107452D01*
X111091Y24378D01*
X111647Y24007D01*
X112303Y23877D01*
X135827D01*
X136483Y24007D01*
X137039Y24379D01*
X140976Y28316D01*
X141032Y28400D01*
X141405Y28151D01*
X142077Y28017D01*
X145325D01*
X145997Y28151D01*
X146567Y28532D01*
X146947Y29101D01*
X147081Y29774D01*
Y30934D01*
X147251Y31155D01*
X147622Y32051D01*
X147748Y33012D01*
Y38495D01*
X148216Y38589D01*
X148810Y38985D01*
X149074Y39382D01*
X149574Y39230D01*
Y36350D01*
X149509Y36253D01*
X149376Y35581D01*
Y34746D01*
X149170Y34248D01*
X149043Y33287D01*
Y32677D01*
X149170Y31716D01*
X149376Y31218D01*
Y29774D01*
X149509Y29101D01*
X149890Y28532D01*
X150460Y28151D01*
X150558Y28132D01*
X150684Y27648D01*
X150055Y27110D01*
X148928Y25791D01*
X148021Y24311D01*
X147357Y22708D01*
X147135Y21780D01*
X146593Y21665D01*
X146197Y22181D01*
X145466Y22742D01*
X144615Y23095D01*
X144201Y23149D01*
Y19685D01*
Y16221D01*
X144615Y16275D01*
X145466Y16628D01*
X146197Y17189D01*
X146454Y17524D01*
X146582Y17533D01*
X146991Y17402D01*
X147357Y15874D01*
X148021Y14271D01*
X148928Y12792D01*
X149725Y11859D01*
X149494Y11359D01*
X137672D01*
X136875Y11200D01*
X136200Y10749D01*
X135749Y10073D01*
X135590Y9277D01*
Y4109D01*
X135749Y3312D01*
X136200Y2637D01*
X136452Y2468D01*
X136300Y1969D01*
X122952D01*
X122800Y2468D01*
X123052Y2637D01*
X123504Y3312D01*
X123662Y4109D01*
Y9277D01*
X123504Y10073D01*
X123052Y10749D01*
X122377Y11200D01*
X121580Y11359D01*
X109523D01*
X108726Y11200D01*
X108050Y10749D01*
X107599Y10073D01*
X107440Y9277D01*
Y4109D01*
X107599Y3312D01*
X108050Y2637D01*
X108302Y2468D01*
X108150Y1969D01*
X71870D01*
X71603Y2468D01*
X71753Y2694D01*
X71816Y3010D01*
X72072D01*
X72728Y3141D01*
X73284Y3512D01*
X73528Y3756D01*
X73819Y3718D01*
X74487Y3806D01*
X75109Y4064D01*
X75644Y4474D01*
X76054Y5009D01*
X76312Y5631D01*
X76400Y6299D01*
X76312Y6967D01*
X76054Y7590D01*
X75644Y8124D01*
X75109Y8535D01*
X74487Y8792D01*
X73819Y8880D01*
X73151Y8792D01*
X72636Y8579D01*
X72425Y8672D01*
X72370Y8712D01*
X72195Y8909D01*
X72266Y9449D01*
X72178Y10117D01*
X71920Y10739D01*
X71510Y11274D01*
X71239Y11482D01*
X71248Y12089D01*
X71384Y12179D01*
X71753Y12733D01*
X71851Y13227D01*
X72271Y13364D01*
X72302Y13370D01*
X72376Y13368D01*
X73066Y12906D01*
X73417Y12836D01*
Y14961D01*
X73917D01*
Y15461D01*
X76042D01*
X75972Y15812D01*
X75581Y16396D01*
X75778Y16896D01*
X77067D01*
X77720Y17026D01*
X78273Y17396D01*
X78643Y17950D01*
X78773Y18602D01*
Y20852D01*
X79273Y21059D01*
X82381Y17951D01*
X82152Y17400D01*
X82064Y16732D01*
X82152Y16064D01*
X82410Y15442D01*
X82820Y14907D01*
X83355Y14497D01*
X83978Y14239D01*
X84646Y14151D01*
X85314Y14239D01*
X85936Y14497D01*
X86369Y14829D01*
X86869Y14672D01*
Y13505D01*
X83434Y10070D01*
X83062Y9514D01*
X83034Y9370D01*
X82820Y9207D01*
X82410Y8672D01*
X82152Y8050D01*
X82064Y7382D01*
X82152Y6714D01*
X82410Y6091D01*
X82820Y5557D01*
X83355Y5147D01*
X83978Y4889D01*
X84646Y4801D01*
X85314Y4889D01*
X85936Y5147D01*
X86471Y5557D01*
X86881Y6091D01*
X87139Y6714D01*
X87227Y7382D01*
X87139Y8050D01*
X86882Y8670D01*
X89795Y11583D01*
X90166Y12139D01*
X90297Y12795D01*
Y33739D01*
X101239Y44681D01*
X101378Y44663D01*
X102046Y44751D01*
X102273Y44845D01*
X102556Y44421D01*
D02*
G37*
G36*
X59207Y48256D02*
Y48138D01*
X62992D01*
Y47638D01*
X63492D01*
Y44640D01*
X65256D01*
X65838Y44756D01*
X66332Y45086D01*
X66662Y45579D01*
X66777Y46161D01*
Y46254D01*
X69896D01*
X70015Y46174D01*
X70813Y46015D01*
X70895Y45858D01*
X70964Y45514D01*
X70491Y45198D01*
X70074Y44574D01*
X70027Y44339D01*
X73674D01*
X73627Y44574D01*
X73210Y45198D01*
X72586Y45615D01*
X71931Y45745D01*
X71827Y46085D01*
X71815Y46239D01*
X72227Y46514D01*
X75373D01*
X77659Y44228D01*
X77630Y44185D01*
X77514Y43602D01*
Y41839D01*
X80512D01*
Y41339D01*
X81012D01*
Y37553D01*
X81988D01*
X82570Y37669D01*
X82759Y37795D01*
X85025D01*
X85469Y37499D01*
X86122Y37369D01*
X88372D01*
X88579Y36869D01*
X87371Y35661D01*
X86999Y35105D01*
X86869Y34449D01*
Y19176D01*
X86383Y18758D01*
X86229Y18766D01*
X85858Y19322D01*
X78773Y26407D01*
Y28642D01*
X78643Y29295D01*
X78273Y29848D01*
X77720Y30218D01*
X77067Y30348D01*
X72539D01*
X71886Y30218D01*
X71333Y29848D01*
X70963Y29295D01*
X70896Y28958D01*
X67440D01*
X67172Y29458D01*
X67197Y29495D01*
X68996D01*
X69649Y29625D01*
X70202Y29994D01*
X70572Y30548D01*
X70702Y31201D01*
Y31940D01*
X71202Y32202D01*
X71350Y32173D01*
Y33996D01*
Y35819D01*
X71185Y35786D01*
X71038Y35818D01*
X70637Y36055D01*
X70572Y36381D01*
X70209Y36924D01*
X70138Y37047D01*
Y37478D01*
X70257Y37558D01*
X70674Y38181D01*
X70721Y38417D01*
X67074D01*
X67121Y38181D01*
X67286Y37934D01*
X67019Y37434D01*
X66043D01*
X65390Y37304D01*
X64947Y37008D01*
X63006D01*
X62562Y37304D01*
X61910Y37434D01*
X58957D01*
X58304Y37304D01*
X57750Y36935D01*
X57381Y36381D01*
X57251Y35728D01*
Y34194D01*
X56729D01*
Y35384D01*
X56587Y36094D01*
X56185Y36697D01*
X55582Y37099D01*
X54872Y37240D01*
X51034D01*
X50323Y37099D01*
X49721Y36697D01*
X49458Y36304D01*
X48958Y36455D01*
Y36614D01*
X48828Y37270D01*
X48456Y37826D01*
X45311Y40971D01*
Y43812D01*
X45773Y44004D01*
X47682Y42095D01*
X48238Y41723D01*
X48894Y41593D01*
X49177D01*
Y40404D01*
X49318Y39693D01*
X49721Y39091D01*
X50323Y38688D01*
X51034Y38547D01*
X54872D01*
X55582Y38688D01*
X56185Y39091D01*
X56587Y39693D01*
X56729Y40404D01*
Y46211D01*
X56650Y46605D01*
X56655Y46663D01*
X56970Y47145D01*
X57009Y47168D01*
X57349Y47235D01*
X57905Y47607D01*
X58745Y48447D01*
X59207Y48256D01*
D02*
G37*
G36*
X241157Y31459D02*
X241710Y31089D01*
X241740Y30827D01*
X241710Y30564D01*
X241157Y30195D01*
X240765Y29609D01*
X240628Y28917D01*
Y27736D01*
X240765Y27045D01*
X241157Y26459D01*
X241710Y26089D01*
X241740Y25827D01*
X241710Y25564D01*
X241157Y25195D01*
X240765Y24609D01*
X240672Y24140D01*
X240155Y24013D01*
X239434Y24496D01*
X239083Y24565D01*
Y22441D01*
Y19845D01*
X240812Y18115D01*
Y17736D01*
X240878Y17408D01*
X240584Y16839D01*
X240028Y16468D01*
X239903Y16342D01*
X239764Y16361D01*
X239096Y16273D01*
X238473Y16015D01*
X237939Y15605D01*
X237528Y15070D01*
X237271Y14448D01*
X237183Y13780D01*
X237271Y13112D01*
X237528Y12489D01*
X237939Y11954D01*
X238101Y11830D01*
X238124Y11700D01*
X238046Y11242D01*
X237647Y10976D01*
X237284Y10433D01*
X237273Y10377D01*
X236763D01*
X236700Y10694D01*
X236218Y11415D01*
X235497Y11897D01*
X235356Y11925D01*
X234982Y12299D01*
Y15629D01*
X235087Y15700D01*
X235374Y16128D01*
X235474Y16634D01*
Y17807D01*
X233268D01*
Y18807D01*
X235474D01*
Y19980D01*
X235374Y20486D01*
X235087Y20914D01*
X234659Y21200D01*
X234154Y21301D01*
X233827D01*
X233636Y21763D01*
X233889Y22016D01*
X234261Y22572D01*
X234391Y23228D01*
Y29205D01*
X234744Y29495D01*
X237697D01*
X238350Y29625D01*
X238903Y29994D01*
X239273Y30548D01*
X239403Y31201D01*
Y31613D01*
X241054D01*
X241157Y31459D01*
D02*
G37*
G36*
X251590Y2430D02*
X251399Y1969D01*
X243660D01*
X243605Y2049D01*
X243736Y2728D01*
X243849Y2804D01*
X244212Y3346D01*
X244339Y3986D01*
Y6390D01*
X240748D01*
Y7390D01*
X244339D01*
Y9028D01*
X244801Y9219D01*
X251590Y2430D01*
D02*
G37*
%LPC*%
G36*
X238476Y71181D02*
X238063Y71126D01*
X237211Y70774D01*
X236480Y70213D01*
X235919Y69482D01*
X235566Y68630D01*
X235512Y68217D01*
X238476D01*
Y71181D01*
D02*
G37*
G36*
X205618Y70492D02*
Y67528D01*
X208582D01*
X208528Y67941D01*
X208175Y68793D01*
X207614Y69524D01*
X206883Y70085D01*
X206032Y70438D01*
X205618Y70492D01*
D02*
G37*
G36*
X33177Y71575D02*
Y68610D01*
X36141D01*
X36087Y69024D01*
X35734Y69875D01*
X35173Y70606D01*
X34442Y71167D01*
X33591Y71520D01*
X33177Y71575D01*
D02*
G37*
G36*
X32177D02*
X31763Y71520D01*
X30912Y71167D01*
X30181Y70606D01*
X29620Y69875D01*
X29267Y69024D01*
X29213Y68610D01*
X32177D01*
Y71575D01*
D02*
G37*
G36*
X36141Y67610D02*
X33177D01*
Y64646D01*
X33591Y64700D01*
X34442Y65053D01*
X35173Y65614D01*
X35734Y66345D01*
X36087Y67197D01*
X36141Y67610D01*
D02*
G37*
G36*
X32177D02*
X29213D01*
X29267Y67197D01*
X29620Y66345D01*
X30181Y65614D01*
X30912Y65053D01*
X31763Y64700D01*
X32177Y64646D01*
Y67610D01*
D02*
G37*
G36*
X16248Y70879D02*
Y59555D01*
X27572D01*
X27465Y60911D01*
X27031Y62721D01*
X26318Y64441D01*
X25346Y66028D01*
X24137Y67444D01*
X22721Y68653D01*
X21134Y69625D01*
X19414Y70338D01*
X17604Y70772D01*
X16248Y70879D01*
D02*
G37*
G36*
X15248D02*
X13892Y70772D01*
X12082Y70338D01*
X10362Y69625D01*
X8775Y68653D01*
X7359Y67444D01*
X6150Y66028D01*
X5178Y64441D01*
X4465Y62721D01*
X4031Y60911D01*
X3924Y59555D01*
X15248D01*
Y70879D01*
D02*
G37*
G36*
X27572Y58555D02*
X16248D01*
Y47231D01*
X17604Y47338D01*
X19414Y47772D01*
X21134Y48485D01*
X22721Y49457D01*
X24137Y50666D01*
X25346Y52082D01*
X26318Y53669D01*
X27031Y55389D01*
X27465Y57199D01*
X27572Y58555D01*
D02*
G37*
G36*
X15248D02*
X3924D01*
X4031Y57199D01*
X4465Y55389D01*
X5178Y53669D01*
X6150Y52082D01*
X7359Y50666D01*
X8775Y49457D01*
X10362Y48485D01*
X12082Y47772D01*
X13892Y47338D01*
X15248Y47231D01*
Y58555D01*
D02*
G37*
G36*
X13819Y44488D02*
X5551D01*
Y36220D01*
X13819D01*
Y44488D01*
D02*
G37*
G36*
X33465Y26886D02*
X32385Y26744D01*
X31380Y26327D01*
X30516Y25665D01*
X29854Y24801D01*
X29437Y23796D01*
X29295Y22716D01*
X29437Y21637D01*
X29854Y20632D01*
X30516Y19768D01*
X31380Y19106D01*
X32385Y18689D01*
X33465Y18547D01*
X34544Y18689D01*
X35549Y19106D01*
X36413Y19768D01*
X37075Y20632D01*
X37492Y21637D01*
X37634Y22716D01*
X37492Y23796D01*
X37075Y24801D01*
X36413Y25665D01*
X35549Y26327D01*
X34544Y26744D01*
X33465Y26886D01*
D02*
G37*
G36*
X16248Y27572D02*
Y16248D01*
X27572D01*
X27465Y17604D01*
X27031Y19414D01*
X26318Y21134D01*
X25346Y22721D01*
X24137Y24137D01*
X22721Y25346D01*
X21134Y26318D01*
X19414Y27031D01*
X17604Y27465D01*
X16248Y27572D01*
D02*
G37*
G36*
X15248D02*
X13892Y27465D01*
X12082Y27031D01*
X10362Y26318D01*
X8775Y25346D01*
X7359Y24137D01*
X6150Y22721D01*
X5178Y21134D01*
X4465Y19414D01*
X4031Y17604D01*
X3924Y16248D01*
X15248D01*
Y27572D01*
D02*
G37*
G36*
X32965Y16638D02*
X32433Y16567D01*
X31471Y16169D01*
X30645Y15536D01*
X30012Y14710D01*
X29614Y13748D01*
X29544Y13216D01*
X32965D01*
Y16638D01*
D02*
G37*
G36*
X45030Y16386D02*
X43610D01*
Y12311D01*
X46701D01*
Y14715D01*
X46574Y15354D01*
X46212Y15897D01*
X45669Y16259D01*
X45030Y16386D01*
D02*
G37*
G36*
X32965Y12217D02*
X29544D01*
X29614Y11685D01*
X30012Y10723D01*
X30645Y9897D01*
X31471Y9264D01*
X32433Y8866D01*
X32965Y8795D01*
Y12217D01*
D02*
G37*
G36*
X46701Y11311D02*
X43610D01*
Y7236D01*
X45030D01*
X45669Y7363D01*
X46212Y7725D01*
X46574Y8268D01*
X46701Y8907D01*
Y11311D01*
D02*
G37*
G36*
X33965Y16638D02*
Y12717D01*
Y8795D01*
X34496Y8866D01*
X35458Y9264D01*
X36284Y9897D01*
X36917Y10723D01*
X37033Y11003D01*
X39519D01*
Y8907D01*
X39646Y8268D01*
X40009Y7725D01*
X40551Y7363D01*
X41191Y7236D01*
X42610D01*
Y11811D01*
Y16386D01*
X41191D01*
X40551Y16259D01*
X40009Y15897D01*
X39646Y15354D01*
X39519Y14715D01*
Y14431D01*
X37033D01*
X36917Y14710D01*
X36284Y15536D01*
X35458Y16169D01*
X34496Y16567D01*
X33965Y16638D01*
D02*
G37*
G36*
X27572Y15248D02*
X16248D01*
Y3924D01*
X17604Y4031D01*
X19414Y4465D01*
X21134Y5178D01*
X22721Y6150D01*
X24137Y7359D01*
X25346Y8775D01*
X26318Y10362D01*
X27031Y12082D01*
X27465Y13892D01*
X27572Y15248D01*
D02*
G37*
G36*
X15248D02*
X3924D01*
X4031Y13892D01*
X4465Y12082D01*
X5178Y10362D01*
X6150Y8775D01*
X7359Y7359D01*
X8775Y6150D01*
X10362Y5178D01*
X12082Y4465D01*
X13892Y4031D01*
X15248Y3924D01*
Y15248D01*
D02*
G37*
G36*
X57571Y4421D02*
X55946D01*
X56016Y4070D01*
X56498Y3349D01*
X57220Y2867D01*
X57571Y2797D01*
Y4421D01*
D02*
G37*
G36*
X320038Y67413D02*
X318413D01*
Y65789D01*
X318764Y65859D01*
X319486Y66341D01*
X319968Y67062D01*
X320038Y67413D01*
D02*
G37*
G36*
X317413D02*
X315789D01*
X315859Y67062D01*
X316341Y66341D01*
X317062Y65859D01*
X317413Y65789D01*
Y67413D01*
D02*
G37*
G36*
X275402Y56849D02*
Y55224D01*
X277026D01*
X276956Y55575D01*
X276474Y56297D01*
X275753Y56779D01*
X275402Y56849D01*
D02*
G37*
G36*
X277026Y54224D02*
X275402D01*
Y52600D01*
X275753Y52670D01*
X276474Y53152D01*
X276956Y53873D01*
X277026Y54224D01*
D02*
G37*
G36*
X302665Y32512D02*
Y29043D01*
X306134D01*
X306062Y29588D01*
X305659Y30561D01*
X305018Y31396D01*
X304183Y32037D01*
X303210Y32440D01*
X302665Y32512D01*
D02*
G37*
G36*
X301665Y32512D02*
X301121Y32440D01*
X300148Y32037D01*
X299312Y31396D01*
X298671Y30561D01*
X298268Y29588D01*
X298197Y29043D01*
X301665D01*
Y32512D01*
D02*
G37*
G36*
X285933Y29055D02*
Y26091D01*
X288897D01*
X288843Y26504D01*
X288490Y27356D01*
X287929Y28087D01*
X287198Y28648D01*
X286347Y29000D01*
X285933Y29055D01*
D02*
G37*
G36*
X306134Y28043D02*
X302665D01*
Y24575D01*
X303210Y24646D01*
X304183Y25049D01*
X305018Y25690D01*
X305659Y26526D01*
X306062Y27499D01*
X306134Y28043D01*
D02*
G37*
G36*
X301665D02*
X298197D01*
X298268Y27499D01*
X298671Y26526D01*
X299312Y25690D01*
X300148Y25049D01*
X301121Y24646D01*
X301665Y24575D01*
Y28043D01*
D02*
G37*
G36*
X203740Y50287D02*
X197350D01*
Y43898D01*
X198204Y43982D01*
X199506Y44377D01*
X200705Y45018D01*
X201757Y45881D01*
X202620Y46932D01*
X203261Y48132D01*
X203656Y49434D01*
X203740Y50287D01*
D02*
G37*
G36*
X196350D02*
X189961D01*
X190045Y49434D01*
X190440Y48132D01*
X191081Y46932D01*
X191944Y45881D01*
X192995Y45018D01*
X194195Y44377D01*
X195497Y43982D01*
X196350Y43898D01*
Y50287D01*
D02*
G37*
G36*
X192429Y38542D02*
Y36917D01*
X194053D01*
X193984Y37268D01*
X193502Y37990D01*
X192780Y38472D01*
X192429Y38542D01*
D02*
G37*
G36*
X385697Y70456D02*
Y67035D01*
X389118D01*
X389048Y67567D01*
X388650Y68529D01*
X388016Y69355D01*
X387190Y69988D01*
X386229Y70386D01*
X385697Y70456D01*
D02*
G37*
G36*
X384697D02*
X384165Y70386D01*
X383203Y69988D01*
X382378Y69355D01*
X381744Y68529D01*
X381346Y67567D01*
X381276Y67035D01*
X384697D01*
Y70456D01*
D02*
G37*
G36*
X389118Y66035D02*
X385697D01*
Y62614D01*
X386229Y62684D01*
X387190Y63083D01*
X388016Y63716D01*
X388650Y64542D01*
X389048Y65504D01*
X389118Y66035D01*
D02*
G37*
G36*
X384697D02*
X381276D01*
X381346Y65504D01*
X381744Y64542D01*
X382378Y63716D01*
X383203Y63083D01*
X384165Y62684D01*
X384697Y62614D01*
Y66035D01*
D02*
G37*
G36*
X369331Y70669D02*
X361063D01*
Y62402D01*
X369331D01*
Y70669D01*
D02*
G37*
G36*
X375197Y70705D02*
X374118Y70563D01*
X373112Y70146D01*
X372249Y69484D01*
X371586Y68620D01*
X371169Y67615D01*
X371027Y66535D01*
X371169Y65456D01*
X371586Y64451D01*
X372249Y63587D01*
X373112Y62924D01*
X374118Y62508D01*
X375197Y62366D01*
X376276Y62508D01*
X377282Y62924D01*
X378145Y63587D01*
X378808Y64451D01*
X379224Y65456D01*
X379366Y66535D01*
X379224Y67615D01*
X378808Y68620D01*
X378145Y69484D01*
X377282Y70146D01*
X376276Y70563D01*
X375197Y70705D01*
D02*
G37*
G36*
X151378Y60492D02*
X150697D01*
Y57587D01*
X153602D01*
Y58268D01*
X153433Y59119D01*
X152950Y59840D01*
X152229Y60322D01*
X151378Y60492D01*
D02*
G37*
G36*
X109161Y70628D02*
Y69004D01*
X110786D01*
X110716Y69355D01*
X110234Y70076D01*
X109512Y70559D01*
X109161Y70628D01*
D02*
G37*
G36*
X108161D02*
X107810Y70559D01*
X107089Y70076D01*
X106607Y69355D01*
X106537Y69004D01*
X108161D01*
Y70628D01*
D02*
G37*
G36*
X113235Y61508D02*
X109161D01*
Y58713D01*
X111639D01*
X112250Y58835D01*
X112768Y59181D01*
X113114Y59699D01*
X113235Y60310D01*
Y61508D01*
D02*
G37*
G36*
X354831Y51337D02*
Y49713D01*
X356455D01*
X356385Y50064D01*
X355903Y50785D01*
X355182Y51267D01*
X354831Y51337D01*
D02*
G37*
G36*
X353831D02*
X353480Y51267D01*
X352758Y50785D01*
X352276Y50064D01*
X352206Y49713D01*
X353831D01*
Y51337D01*
D02*
G37*
G36*
X340215Y49992D02*
X338591D01*
Y48368D01*
X338942Y48438D01*
X339663Y48920D01*
X340145Y49641D01*
X340215Y49992D01*
D02*
G37*
G36*
X337591D02*
X335966D01*
X336036Y49641D01*
X336518Y48920D01*
X337240Y48438D01*
X337591Y48368D01*
Y49992D01*
D02*
G37*
G36*
X356455Y48713D02*
X354831D01*
Y47088D01*
X355182Y47158D01*
X355903Y47640D01*
X356385Y48362D01*
X356455Y48713D01*
D02*
G37*
G36*
X353831D02*
X352206D01*
X352276Y48362D01*
X352758Y47640D01*
X353480Y47158D01*
X353831Y47088D01*
Y48713D01*
D02*
G37*
G36*
X386910Y47354D02*
Y44390D01*
X389874D01*
X389819Y44804D01*
X389467Y45655D01*
X388906Y46386D01*
X388175Y46947D01*
X387323Y47300D01*
X386910Y47354D01*
D02*
G37*
G36*
X385910D02*
X385496Y47300D01*
X384644Y46947D01*
X383913Y46386D01*
X383352Y45655D01*
X382999Y44804D01*
X382945Y44390D01*
X385910D01*
Y47354D01*
D02*
G37*
G36*
X389874Y43390D02*
X386910D01*
Y40425D01*
X387323Y40480D01*
X388175Y40832D01*
X388906Y41394D01*
X389467Y42125D01*
X389819Y42976D01*
X389874Y43390D01*
D02*
G37*
G36*
X385910D02*
X382945D01*
X382999Y42976D01*
X383352Y42125D01*
X383913Y41394D01*
X384644Y40832D01*
X385496Y40480D01*
X385910Y40425D01*
Y43390D01*
D02*
G37*
G36*
X339978Y23455D02*
Y20490D01*
X342943D01*
X342888Y20904D01*
X342536Y21755D01*
X341975Y22486D01*
X341244Y23047D01*
X340392Y23400D01*
X339978Y23455D01*
D02*
G37*
G36*
X338978D02*
X338565Y23400D01*
X337713Y23047D01*
X336982Y22486D01*
X336421Y21755D01*
X336068Y20904D01*
X336014Y20490D01*
X338978D01*
Y23455D01*
D02*
G37*
G36*
X318043Y22030D02*
Y20405D01*
X319668D01*
X319598Y20756D01*
X319116Y21478D01*
X318394Y21960D01*
X318043Y22030D01*
D02*
G37*
G36*
X317043D02*
X316692Y21960D01*
X315971Y21478D01*
X315489Y20756D01*
X315419Y20405D01*
X317043D01*
Y22030D01*
D02*
G37*
G36*
X361130Y22362D02*
Y19398D01*
X364094D01*
X364040Y19811D01*
X363687Y20663D01*
X363126Y21394D01*
X362395Y21955D01*
X361544Y22308D01*
X361130Y22362D01*
D02*
G37*
G36*
X360130D02*
X359716Y22308D01*
X358865Y21955D01*
X358134Y21394D01*
X357573Y20663D01*
X357220Y19811D01*
X357166Y19398D01*
X360130D01*
Y22362D01*
D02*
G37*
G36*
X342943Y19490D02*
X339978D01*
Y16526D01*
X340392Y16580D01*
X341244Y16933D01*
X341975Y17494D01*
X342536Y18225D01*
X342888Y19076D01*
X342943Y19490D01*
D02*
G37*
G36*
X338978D02*
X336014D01*
X336068Y19076D01*
X336421Y18225D01*
X336982Y17494D01*
X337713Y16933D01*
X338565Y16580D01*
X338978Y16526D01*
Y19490D01*
D02*
G37*
G36*
X364094Y18398D02*
X361130D01*
Y15433D01*
X361544Y15488D01*
X362395Y15840D01*
X363126Y16401D01*
X363687Y17132D01*
X364040Y17984D01*
X364094Y18398D01*
D02*
G37*
G36*
X360130D02*
X357166D01*
X357220Y17984D01*
X357573Y17132D01*
X358134Y16401D01*
X358865Y15840D01*
X359716Y15488D01*
X360130Y15433D01*
Y18398D01*
D02*
G37*
G36*
X143201Y23149D02*
X142787Y23095D01*
X141936Y22742D01*
X141205Y22181D01*
X140644Y21450D01*
X140291Y20599D01*
X140236Y20185D01*
X143201D01*
Y23149D01*
D02*
G37*
G36*
Y19185D02*
X140236D01*
X140291Y18771D01*
X140644Y17920D01*
X141205Y17189D01*
X141936Y16628D01*
X142787Y16275D01*
X143201Y16221D01*
Y19185D01*
D02*
G37*
G36*
X76042Y14461D02*
X74417D01*
Y12836D01*
X74768Y12906D01*
X75490Y13388D01*
X75972Y14110D01*
X76042Y14461D01*
D02*
G37*
G36*
X99783Y15701D02*
X98822Y15574D01*
X97927Y15204D01*
X97158Y14614D01*
X96568Y13845D01*
X96197Y12949D01*
X96071Y11988D01*
X96197Y11027D01*
X96568Y10132D01*
X97158Y9363D01*
X97927Y8773D01*
X98822Y8402D01*
X99783Y8275D01*
X100744Y8402D01*
X101640Y8773D01*
X102409Y9363D01*
X102999Y10132D01*
X103370Y11027D01*
X103496Y11988D01*
X103370Y12949D01*
X102999Y13845D01*
X102409Y14614D01*
X101640Y15204D01*
X100744Y15574D01*
X99783Y15701D01*
D02*
G37*
G36*
X62492Y47138D02*
X59207D01*
Y46161D01*
X59323Y45579D01*
X59653Y45086D01*
X60146Y44756D01*
X60728Y44640D01*
X62492D01*
Y47138D01*
D02*
G37*
G36*
X73674Y43339D02*
X72350D01*
Y42015D01*
X72586Y42062D01*
X73210Y42479D01*
X73627Y43103D01*
X73674Y43339D01*
D02*
G37*
G36*
X71350D02*
X70027D01*
X70074Y43103D01*
X70491Y42479D01*
X71115Y42062D01*
X71350Y42015D01*
Y43339D01*
D02*
G37*
G36*
X75303Y40741D02*
Y39417D01*
X76626D01*
X76580Y39653D01*
X76163Y40277D01*
X75539Y40694D01*
X75303Y40741D01*
D02*
G37*
G36*
X74303D02*
X74067Y40694D01*
X73444Y40277D01*
X73027Y39653D01*
X72980Y39417D01*
X74303D01*
Y40741D01*
D02*
G37*
G36*
X69398D02*
Y39417D01*
X70721D01*
X70674Y39653D01*
X70257Y40277D01*
X69634Y40694D01*
X69398Y40741D01*
D02*
G37*
G36*
X68398D02*
X68162Y40694D01*
X67538Y40277D01*
X67121Y39653D01*
X67074Y39417D01*
X68398D01*
Y40741D01*
D02*
G37*
G36*
X80012Y40839D02*
X77514D01*
Y39075D01*
X77630Y38493D01*
X77960Y37999D01*
X78453Y37669D01*
X79035Y37553D01*
X80012D01*
Y40839D01*
D02*
G37*
G36*
X76626Y38417D02*
X75303D01*
Y37094D01*
X75539Y37141D01*
X76163Y37558D01*
X76580Y38181D01*
X76626Y38417D01*
D02*
G37*
G36*
X74303D02*
X72980D01*
X73027Y38181D01*
X73444Y37558D01*
X74067Y37141D01*
X74303Y37094D01*
Y38417D01*
D02*
G37*
G36*
X72350Y35819D02*
Y34496D01*
X73674D01*
X73627Y34732D01*
X73210Y35356D01*
X72586Y35772D01*
X72350Y35819D01*
D02*
G37*
G36*
X73674Y33496D02*
X72350D01*
Y32173D01*
X72586Y32220D01*
X73210Y32636D01*
X73627Y33260D01*
X73674Y33496D01*
D02*
G37*
G36*
X238083Y24565D02*
X237732Y24496D01*
X237010Y24013D01*
X236528Y23292D01*
X236458Y22941D01*
X238083D01*
Y24565D01*
D02*
G37*
G36*
Y21941D02*
X236458D01*
X236528Y21590D01*
X237010Y20868D01*
X237732Y20386D01*
X238083Y20317D01*
Y21941D01*
D02*
G37*
%LPD*%
D10*
X279528Y24508D02*
Y26378D01*
X275590Y6299D02*
X281299Y12008D01*
X257087Y6299D02*
X275590D01*
X253543Y9843D02*
X257087Y6299D01*
X309449Y2362D02*
X311024Y3937D01*
X254082Y2362D02*
X309449D01*
X245177Y11267D02*
X254082Y2362D01*
X301575Y4331D02*
X304724Y7480D01*
X255906Y4331D02*
X301575D01*
X250181Y10055D02*
X255906Y4331D01*
X176181Y15945D02*
X186024D01*
X245177Y11267D02*
Y12205D01*
X251772Y15256D02*
X253543Y17028D01*
X241240Y15256D02*
X251772D01*
X239764Y13780D02*
X241240Y15256D01*
X279528Y24508D02*
X281299Y22736D01*
Y12008D02*
Y22736D01*
X284449Y15893D02*
Y18110D01*
Y15893D02*
X293059Y7283D01*
X298228D01*
X278740Y26378D02*
X279528D01*
X386910Y12402D02*
X389543Y9768D01*
X381866Y12402D02*
X386910D01*
X375370Y18898D02*
X381866Y12402D01*
X389543Y4724D02*
Y9768D01*
X375370Y18898D02*
Y24630D01*
X73647Y6299D02*
X73819D01*
X283071Y50000D02*
Y56988D01*
X275590Y64468D02*
X283071Y56988D01*
X271654Y68898D02*
X275590D01*
X270669Y69882D02*
X271654Y68898D01*
X269291Y68504D02*
X270669Y69882D01*
X245387Y23327D02*
X252854D01*
X258760Y17421D01*
X253543Y9843D02*
Y17028D01*
X262449Y20406D02*
X262697D01*
X254528Y28327D02*
X262449Y20406D01*
X186024Y14961D02*
Y15945D01*
Y10827D02*
Y14961D01*
X224837Y28740D02*
X229134Y33037D01*
X224311Y28740D02*
X224837D01*
X167323Y67913D02*
Y68898D01*
X179921Y35630D02*
X182087D01*
X117520Y59842D02*
X118209Y60532D01*
X108877Y49194D02*
X109879Y50197D01*
X176181Y39370D02*
X176181D01*
X179921Y35630D01*
X175984Y28740D02*
X176181Y28543D01*
X175984Y28740D02*
Y61221D01*
X172244Y64961D02*
X175984Y61221D01*
X170276Y64961D02*
X172244D01*
X167323Y67913D02*
X170276Y64961D01*
X166339Y68898D02*
X167323D01*
X124606D02*
X166339D01*
X117717Y62008D02*
X124606Y68898D01*
X174213D02*
X177756D01*
X179823Y68799D02*
X180315Y69291D01*
X192717Y68898D02*
X192717Y68898D01*
X198031D01*
X180315Y69291D02*
X180709Y68898D01*
X178937Y69685D02*
X179823Y68799D01*
X204331Y59055D02*
X205118Y59842D01*
Y67028D01*
X63583Y48228D02*
X63843Y47968D01*
X186024Y27362D02*
X186379D01*
X268787Y18327D02*
X277559D01*
X181374Y57284D02*
X183858D01*
X182087Y40354D02*
Y47047D01*
X211024Y8071D02*
Y15551D01*
X209842Y6890D02*
X211024Y8071D01*
X183858Y56299D02*
Y57284D01*
X182087Y54528D02*
X183858Y56299D01*
X182087Y47047D02*
Y54528D01*
X187992Y7874D02*
Y8858D01*
X186024Y10827D02*
X187992Y8858D01*
X186379Y27362D02*
Y30867D01*
X191929Y36417D01*
X182087Y47047D02*
X182087Y47047D01*
X203543Y37402D02*
X208020Y41879D01*
X219488Y17126D02*
X229528Y27165D01*
X219488Y15239D02*
X221260Y13467D01*
Y6890D02*
Y13467D01*
X219488Y15239D02*
Y17126D01*
X182087Y47047D02*
X182087Y47047D01*
X229134Y33037D02*
Y33465D01*
X226575Y48866D02*
Y53024D01*
X220197Y59402D02*
X237402D01*
X220197D02*
X226575Y53024D01*
X207626Y51772D02*
X208858Y50539D01*
X205512Y59402D02*
X206693Y60583D01*
X238976Y60976D02*
Y67716D01*
X237402Y59402D02*
X238976Y60976D01*
X245276Y67716D02*
X246063Y68504D01*
X238976Y67716D02*
X245276D01*
X234646Y9843D02*
Y10211D01*
X233268Y11589D02*
X234646Y10211D01*
X233268Y11589D02*
Y18307D01*
X225197Y12598D02*
X225458Y12338D01*
Y11747D02*
Y12338D01*
Y11747D02*
X229331Y7874D01*
Y6890D02*
Y7874D01*
X225197Y12598D02*
X225458Y12859D01*
Y17977D01*
X225787Y18307D01*
X232677Y23228D02*
Y36220D01*
X229528Y20079D02*
X232677Y23228D01*
X229528Y15354D02*
Y20079D01*
X236542Y7947D02*
X239691D01*
X240748Y6890D01*
X234646Y9843D02*
X236542Y7947D01*
X238583Y22441D02*
X238910D01*
X243024Y18327D01*
X245387D01*
X262205Y61614D02*
X262402Y61417D01*
X269291D01*
X258957Y46850D02*
X262205Y50098D01*
Y61614D01*
X208020Y41879D02*
X213509D01*
X216339Y44709D01*
Y48866D01*
X218898Y43898D02*
Y48866D01*
Y43898D02*
X221457Y41339D01*
X231102D01*
X221457Y44508D02*
X222638Y43327D01*
X221457Y44508D02*
Y48866D01*
X222638Y43327D02*
X245387D01*
X231102Y41339D02*
X234114Y38327D01*
X229528Y39370D02*
X232677Y36220D01*
X216929Y39370D02*
X229528D01*
X215354Y37795D02*
X216929Y39370D01*
X246063Y61417D02*
X246850D01*
X248319Y62886D01*
Y63476D01*
X253150Y68307D01*
X253543D01*
X245387Y53327D02*
X245389D01*
X246063Y54001D01*
Y61417D01*
X153543Y32874D02*
X153740Y32677D01*
X137917Y56374D02*
X139764Y54528D01*
Y29528D02*
Y54528D01*
X135827Y25591D02*
X139764Y29528D01*
X112303Y25591D02*
X135827D01*
X153543Y49803D02*
Y53740D01*
X150197Y57087D02*
X153543Y53740D01*
X108661Y62008D02*
Y68504D01*
X101969Y59449D02*
X102362D01*
X99410Y62008D02*
X101969Y59449D01*
X94882Y62008D02*
X99410D01*
X112008Y56299D02*
X114173Y54134D01*
X84646Y56299D02*
X112008D01*
X234114Y38327D02*
X245387D01*
X251969Y55905D02*
X257874Y50000D01*
X251575Y55905D02*
X251969D01*
X245387Y48327D02*
X252639D01*
X254115Y46850D02*
X258957D01*
X252639Y48327D02*
X254115Y46850D01*
X288976Y50000D02*
Y56299D01*
X281102Y64173D02*
X288976Y56299D01*
X269291Y68504D02*
X269291Y68504D01*
X311614Y69882D02*
X312992Y71260D01*
X280512Y69882D02*
X311614D01*
X321260Y30315D02*
X366535D01*
X317323Y33858D02*
X320866Y30315D01*
X366535D02*
X373228Y23622D01*
X317323Y39370D02*
X323622Y33071D01*
X366929D01*
X373228Y18110D02*
Y23622D01*
Y18110D02*
X383543Y7795D01*
X366929Y33071D02*
X375370Y24630D01*
X383543Y4724D02*
Y7795D01*
X322047Y71260D02*
X329543Y63764D01*
X312992Y71260D02*
X322047D01*
X329543Y55924D02*
Y63764D01*
X269291Y68504D02*
X271654D01*
X323543Y14488D02*
X329134Y20079D01*
X323543Y4724D02*
Y14488D01*
X317543Y4724D02*
Y19906D01*
X311024Y51605D02*
Y57087D01*
X310443Y51024D02*
X311024Y51605D01*
Y57087D02*
X316381D01*
X317543Y55924D01*
X285433Y25591D02*
X289370Y21654D01*
Y18701D02*
Y21654D01*
X278671Y33396D02*
X278740Y33465D01*
X268856Y33396D02*
X278671D01*
X268787Y33327D02*
X268856Y33396D01*
X245387Y28327D02*
X254528D01*
X297244Y34449D02*
Y49508D01*
X294291Y28543D02*
Y50197D01*
X296260Y52165D01*
Y63976D01*
X297244Y49508D02*
X309842Y62106D01*
X318996D01*
X268701Y10827D02*
X270059D01*
X277559Y18327D01*
Y18701D01*
X357283Y38386D02*
X358563D01*
X370079Y49902D01*
X236358Y33327D02*
X245387D01*
X236221Y33465D02*
X236358Y33327D01*
X244973Y42913D02*
X245387Y43327D01*
X252559Y68504D02*
X252756Y68307D01*
X69784Y4724D02*
X72072D01*
X73647Y6299D01*
X69685Y4823D02*
X69784Y4724D01*
X33858Y12717D02*
X42205D01*
X43110Y11811D01*
X52953Y10827D02*
X59949Y17823D01*
Y19831D01*
X41535Y10827D02*
X41535Y10827D01*
X52953Y21654D02*
X58071D01*
X62008Y25591D01*
X42520Y21654D02*
X47244Y26378D01*
Y36614D01*
X41535Y21654D02*
X42520D01*
X35433Y59055D02*
Y62598D01*
X37795Y64961D01*
X41535D01*
X85039Y65748D02*
X87865Y62923D01*
Y60236D02*
Y62923D01*
X80709Y65748D02*
X85039D01*
X73622D02*
X73622Y65748D01*
Y58858D02*
Y65748D01*
X73622Y67716D02*
X73622Y67716D01*
X80709Y67716D02*
X81432Y66993D01*
X80709Y66929D02*
Y67716D01*
X86452Y58824D02*
X87865Y60236D01*
X84680Y58824D02*
X86452D01*
X84646Y58858D02*
X84680Y58824D01*
X79134Y55020D02*
X81432Y57318D01*
X84646Y7382D02*
Y8858D01*
X88583Y12795D01*
Y34449D01*
X101378Y47244D01*
X84646Y16732D02*
Y18110D01*
X75590Y27165D02*
X84646Y18110D01*
X79724Y42126D02*
Y44587D01*
Y42126D02*
X80512Y41339D01*
X76083Y48228D02*
X79724Y44587D01*
X70605Y47968D02*
X70866Y48228D01*
X63843Y47968D02*
X70605D01*
X70866Y48228D02*
X76083D01*
X79134Y51279D01*
Y52559D02*
Y55020D01*
X80512Y41339D02*
X81693Y42520D01*
X115551Y42520D02*
X117520Y44488D01*
Y59842D01*
X108877Y49194D02*
X115551Y42520D01*
Y42323D02*
Y42520D01*
X108661Y50197D02*
X109879D01*
X74803Y27165D02*
X75590D01*
X63976Y27323D02*
X64055Y27244D01*
X74724D01*
X74803Y27165D01*
X65945Y23622D02*
X69488Y20079D01*
X63976Y23622D02*
X65945D01*
X62008Y25591D02*
X63976Y23622D01*
X69488Y20079D02*
X74803D01*
X94352Y50591D02*
X94882D01*
X93898D02*
X94352D01*
X93822D02*
X93898D01*
X88977Y45670D02*
X93898Y50591D01*
X88977Y42717D02*
Y45670D01*
X87598Y41339D02*
X88977Y42717D01*
X63976Y27323D02*
Y29134D01*
X67520Y32677D01*
Y33465D01*
X59449Y32480D02*
X60130Y33161D01*
X60433Y33465D01*
X60130Y27413D02*
Y33161D01*
X60039Y27323D02*
X60130Y27413D01*
X52953Y32480D02*
X59449D01*
X62008Y25591D02*
Y27323D01*
X59949Y19831D02*
X60039Y19921D01*
X64067Y19685D02*
X65847D01*
X63976Y19776D02*
X64067Y19685D01*
X63976Y19776D02*
Y19921D01*
X65847Y19685D02*
X69685Y15846D01*
Y14862D02*
Y15846D01*
X61917Y19831D02*
X62098Y19650D01*
Y14968D02*
Y19650D01*
Y14968D02*
X62205Y14862D01*
X61917Y19831D02*
X62008Y19921D01*
X50394Y71653D02*
X66142D01*
X46063Y67323D02*
X50394Y71653D01*
X66142D02*
X68898Y68898D01*
X29685Y40197D02*
Y40354D01*
X37402Y32480D02*
X41535D01*
X29685Y40197D02*
X37402Y32480D01*
X19685Y41339D02*
X26575Y48228D01*
X19685Y40354D02*
Y41339D01*
X26575Y48228D02*
X30118D01*
X149949Y57087D02*
X150000D01*
X137917Y56374D02*
Y60508D01*
X137402Y61024D02*
X137917Y60508D01*
X144095Y60039D02*
X146996D01*
X149949Y57087D01*
X106496Y31398D02*
X112303Y25591D01*
X106496Y31398D02*
Y32677D01*
X117717Y61024D02*
Y62008D01*
X141142Y64961D02*
X150197D01*
X137402Y61221D02*
X141142Y64961D01*
X137402Y61024D02*
Y61221D01*
X129134Y61024D02*
X137402D01*
X137402Y61024D01*
X94155Y50394D02*
X94352Y50591D01*
X90672Y53740D02*
X93822Y50591D01*
X84646Y53740D02*
X90672D01*
X70866Y56299D02*
X73622D01*
X68898Y58268D02*
Y68898D01*
Y58268D02*
X70866Y56299D01*
X46063Y46138D02*
Y67323D01*
Y46138D02*
X48894Y43307D01*
X52953D01*
X53347Y64567D02*
Y66083D01*
X48425Y59449D02*
X52953Y63976D01*
X48425Y50000D02*
Y59449D01*
Y50000D02*
X49606Y48819D01*
X69685Y4823D02*
Y9449D01*
X84055Y58858D02*
X84646D01*
X56693Y48819D02*
X59055Y51181D01*
X49606Y48819D02*
X56693D01*
X52953Y63976D02*
Y64961D01*
X59055Y51181D02*
X73622D01*
X62992Y54724D02*
X63942Y53775D01*
X73587D01*
X73622Y53740D01*
X36024Y54134D02*
X41535D01*
X30118Y48228D02*
X36024Y54134D01*
X41535Y42323D02*
X47244Y36614D01*
X41535Y42323D02*
Y43307D01*
X62008Y9843D02*
X62205Y9646D01*
Y4823D02*
Y9646D01*
X58071Y4921D02*
X58169Y4823D01*
X62205D01*
X53347Y66083D02*
X55001Y67737D01*
X62619D01*
X62992Y68110D01*
Y54724D02*
Y61024D01*
X52953Y54134D02*
X62402D01*
X62992Y54724D01*
X41535Y43307D02*
Y54134D01*
D62*
Y64961D02*
D03*
X52953D02*
D03*
X41535Y54134D02*
D03*
X52953D02*
D03*
X117717Y61024D02*
D03*
X129134D02*
D03*
X41535Y43307D02*
D03*
X52953D02*
D03*
X41535Y32480D02*
D03*
X52953D02*
D03*
X43110Y22047D02*
D03*
X54528D02*
D03*
Y11811D02*
D03*
X43110D02*
D03*
X209842Y6890D02*
D03*
X221260D02*
D03*
X229331Y6890D02*
D03*
X240748D02*
D03*
X180315Y68898D02*
D03*
X191732D02*
D03*
D63*
X94882Y50591D02*
D03*
Y62008D02*
D03*
X176181Y26378D02*
D03*
Y14961D02*
D03*
X186024D02*
D03*
Y26378D02*
D03*
X182087Y34646D02*
D03*
Y46063D02*
D03*
D67*
X219094Y25394D02*
D03*
Y17913D02*
D03*
X210039Y21654D02*
D03*
D71*
X289370Y18701D02*
D03*
X277559D02*
D03*
D72*
X108661Y62008D02*
D03*
Y50197D02*
D03*
D73*
X62992Y68110D02*
D03*
Y61024D02*
D03*
X153543Y42717D02*
D03*
Y49803D02*
D03*
X62992Y54724D02*
D03*
Y47638D02*
D03*
X74803Y20079D02*
D03*
Y27165D02*
D03*
X278740Y33465D02*
D03*
Y26378D02*
D03*
X269291Y61417D02*
D03*
Y68504D02*
D03*
X246063Y61417D02*
D03*
Y68504D02*
D03*
D74*
X73622Y65748D02*
D03*
X80709D02*
D03*
X87598Y41339D02*
D03*
X80512D02*
D03*
X60433Y33465D02*
D03*
X67520D02*
D03*
X236221D02*
D03*
X229134D02*
D03*
D78*
X134646Y32677D02*
D03*
X106496D02*
D03*
D79*
X143701D02*
D03*
X152756D02*
D03*
X115551D02*
D03*
X124606D02*
D03*
D80*
X143701Y6693D02*
D03*
X115551D02*
D03*
D81*
X302165Y28543D02*
D03*
Y44291D02*
D03*
D82*
X196850Y51772D02*
X197882D01*
X210039Y21654D02*
X211024Y20669D01*
Y15551D02*
Y20669D01*
X197882Y51772D02*
X205512Y59402D01*
X168110Y57480D02*
Y58465D01*
Y56621D02*
Y57480D01*
X161334Y49846D02*
X168110Y56621D01*
X212598Y27559D02*
X212795Y27362D01*
X209646Y27559D02*
X212598D01*
X214764Y25394D02*
X219094D01*
X212795Y27362D02*
X214764Y25394D01*
X212795Y27362D02*
X220079Y34646D01*
X203543Y37402D02*
X209646D01*
X202756D02*
X203543D01*
X202756Y37402D02*
X202756Y37402D01*
X152756Y32677D02*
Y33287D01*
X153287Y33819D01*
Y42461D01*
X153543Y42717D01*
X158405Y43248D02*
X161334Y46177D01*
Y49846D01*
X153799Y43248D02*
X158405D01*
X153543Y42992D02*
X153799Y43248D01*
X153543Y42717D02*
Y42992D01*
X205512Y59402D02*
X220197D01*
X234114Y56114D02*
X237402Y59402D01*
X234114Y50598D02*
Y56114D01*
X234055Y50539D02*
X234114Y50598D01*
X205512Y59402D02*
X208858Y56055D01*
Y50539D02*
Y56055D01*
X145669Y42205D02*
Y46260D01*
X144035Y40571D02*
X145669Y42205D01*
X144035Y33012D02*
Y40571D01*
X143701Y32677D02*
X144035Y33012D01*
X122047Y42205D02*
Y46260D01*
Y42205D02*
X124272Y39980D01*
Y33012D02*
Y39980D01*
Y33012D02*
X124606Y32677D01*
X134646D01*
X98425Y25591D02*
Y35039D01*
X105709Y42323D01*
X115551Y32677D02*
Y42323D01*
Y32677D02*
X115551Y32677D01*
D84*
X33465Y22716D02*
D03*
Y12717D02*
D03*
X375197Y66535D02*
D03*
X385197D02*
D03*
X19685Y40354D02*
D03*
X29685D02*
D03*
D85*
X345472Y67913D02*
D03*
D86*
X15748Y59055D02*
D03*
Y15748D02*
D03*
D87*
X163386Y19291D02*
D03*
X198819D02*
D03*
D88*
X183858Y56299D02*
D03*
X168110Y57480D02*
D03*
X196850Y50787D02*
D03*
D89*
X365197Y66535D02*
D03*
X9685Y40354D02*
D03*
D90*
X74803Y38917D02*
D03*
X68898D02*
D03*
X71850Y43839D02*
D03*
Y33996D02*
D03*
X79134Y51279D02*
D03*
Y58760D02*
D03*
X81102Y55020D02*
D03*
X77165D02*
D03*
D91*
X245177Y12205D02*
D03*
X284449Y18110D02*
D03*
X338090Y50492D02*
D03*
X316240Y50394D02*
D03*
X274902Y54724D02*
D03*
X101575Y52264D02*
D03*
X73917Y14961D02*
D03*
X73819Y6299D02*
D03*
X275590Y64468D02*
D03*
Y68898D02*
D03*
X258760Y17421D02*
D03*
X253543Y17028D02*
D03*
X262697Y20406D02*
D03*
X280512Y69882D02*
D03*
X215354Y37795D02*
D03*
X187992Y7874D02*
D03*
X191929Y36417D02*
D03*
X182087Y40354D02*
D03*
X238583Y22441D02*
D03*
X225197Y12598D02*
D03*
X234646Y9843D02*
D03*
X239764Y13780D02*
D03*
X108661Y68504D02*
D03*
X102362Y59449D02*
D03*
X229528Y15354D02*
D03*
X251575Y55905D02*
D03*
X257874Y50000D02*
D03*
X283071D02*
D03*
X288976D02*
D03*
X281102Y64173D02*
D03*
X317323Y33858D02*
D03*
Y39370D02*
D03*
X329134Y20079D02*
D03*
X317543Y19906D02*
D03*
X292323Y11811D02*
D03*
X298228Y7283D02*
D03*
X304724Y7480D02*
D03*
X311024Y3937D02*
D03*
X250181Y10055D02*
D03*
X297244Y34449D02*
D03*
X294291Y28543D02*
D03*
X296260Y63976D02*
D03*
X318996Y62106D02*
D03*
X317913Y67913D02*
D03*
X311024Y57087D02*
D03*
X354331Y49213D02*
D03*
X357283Y38386D02*
D03*
X370079Y49902D02*
D03*
X114173Y54134D02*
D03*
X35433Y59055D02*
D03*
X87865Y60236D02*
D03*
X84646Y7382D02*
D03*
X101378Y47244D02*
D03*
X84646Y16732D02*
D03*
X88583Y49370D02*
D03*
X70866Y48228D02*
D03*
X69685Y9449D02*
D03*
X62205Y9646D02*
D03*
X58071Y4921D02*
D03*
D92*
X381269Y19064D02*
D03*
X224311Y28740D02*
D03*
X166339Y68898D02*
D03*
X174213D02*
D03*
X198031D02*
D03*
X205118Y67028D02*
D03*
X164370Y37402D02*
D03*
X211024Y15551D02*
D03*
X202756Y37402D02*
D03*
X143701Y19685D02*
D03*
X168307Y44291D02*
D03*
X238976Y67716D02*
D03*
X220079Y34646D02*
D03*
X285433Y25591D02*
D03*
X286024Y36024D02*
D03*
X268701Y10827D02*
D03*
X321850Y44291D02*
D03*
X386409Y43890D02*
D03*
X360630Y18898D02*
D03*
X372441Y12205D02*
D03*
X388189Y20079D02*
D03*
X339478Y19990D02*
D03*
X346240Y49213D02*
D03*
X99783Y11988D02*
D03*
X32677Y68110D02*
D03*
X97638Y68504D02*
D03*
X98425Y25591D02*
D03*
X144095Y60039D02*
D03*
D109*
X237402Y59402D02*
D03*
X205512D02*
D03*
D110*
X234055Y50539D02*
D03*
X208858D02*
D03*
D111*
X226575Y48866D02*
D03*
X224016D02*
D03*
X221457D02*
D03*
X218898D02*
D03*
X216339D02*
D03*
D112*
X145669Y46260D02*
D03*
X122047D02*
D03*
D113*
X262205Y68307D02*
D03*
Y61614D02*
D03*
X253543D02*
D03*
Y68307D02*
D03*
D114*
X233268Y18307D02*
D03*
X225787D02*
D03*
X229528Y27362D02*
D03*
D115*
X389543Y4724D02*
D03*
X383543D02*
D03*
X377543D02*
D03*
X371543D02*
D03*
X365543D02*
D03*
X359543D02*
D03*
X353543D02*
D03*
X347543D02*
D03*
X341543D02*
D03*
X335543D02*
D03*
X329543D02*
D03*
X323543D02*
D03*
X317543D02*
D03*
X389543Y55924D02*
D03*
X383543D02*
D03*
X377543D02*
D03*
X371543D02*
D03*
X365543D02*
D03*
X359543D02*
D03*
X353543D02*
D03*
X347543D02*
D03*
X341543D02*
D03*
X335543D02*
D03*
X329543D02*
D03*
X323543D02*
D03*
X317543D02*
D03*
D116*
X310443Y9624D02*
D03*
Y15524D02*
D03*
Y21424D02*
D03*
Y27324D02*
D03*
Y33324D02*
D03*
Y39224D02*
D03*
Y45124D02*
D03*
Y51024D02*
D03*
D117*
X150197Y57087D02*
D03*
Y64961D02*
D03*
D118*
X137402Y61024D02*
D03*
D119*
X69685Y4823D02*
D03*
X65945D02*
D03*
X62205D02*
D03*
X69685Y14862D02*
D03*
X65945D02*
D03*
X62205D02*
D03*
D120*
X84646Y51181D02*
D03*
Y53740D02*
D03*
Y56299D02*
D03*
Y58858D02*
D03*
X73622D02*
D03*
Y56299D02*
D03*
Y53740D02*
D03*
Y51181D02*
D03*
D121*
X79134Y55020D02*
D03*
D122*
X115551Y42323D02*
D03*
X105709D02*
D03*
D123*
X209646Y37402D02*
D03*
Y27559D02*
D03*
D124*
X60039Y27323D02*
D03*
X62008D02*
D03*
X63976D02*
D03*
X60039Y19921D02*
D03*
X62008D02*
D03*
X63976D02*
D03*
D125*
X268787Y53327D02*
D03*
Y48327D02*
D03*
Y43327D02*
D03*
Y38327D02*
D03*
Y33327D02*
D03*
Y28327D02*
D03*
Y23327D02*
D03*
Y18327D02*
D03*
X245387Y53327D02*
D03*
Y48327D02*
D03*
Y43327D02*
D03*
Y38327D02*
D03*
Y33327D02*
D03*
Y28327D02*
D03*
Y23327D02*
D03*
Y18327D02*
D03*
M02*
